<svg height="110" version="1" width="110" xmlns="http://www.w3.org/2000/svg"><g><circle cx="55" cy="55" r="55" fill="#25B7D3"/><path d="M70 45.036l-2 1-3-10-17 5s1.5-2.107 3-5c-7.25 0-9 10-9 10l-1-.5V53l4 10 5.105 3.995c.57.64 1.384 1.005 2.24 1.005h5.31c.856 0 1.67-.366 2.24-1.005L65 63l3.193-7.982c2.846-.19 3.807-4.5 3.807-7.76 0-1.11-1-2.222-2-2.222z" fill="#FBC8C8"/><path d="M83 76c-.615-1.333-1.698-2.395-3.043-2.983L68 69H42l-11.957 4.017c-1.345.588-2.428 1.65-3.043 2.983l-4 11h64l-4-11z" fill="#fff"/><path fill="#F79392" d="M24.078 84.036h61.844l-1.09-3H25.168zM27 76l-.377 1.036h56.754L83 76c-.35-.76-.867-1.417-1.484-1.964H28.484C27.867 74.583 27.35 75.24 27 76z"/><path d="M55 79.072c3.857 0 13-1 13-7V69h-3v3.072s-2 4-10 4-10-4-10-4V69h-3v3.072c0 6 9.143 7 13 7z" fill="#21B2D1"/><path d="M57.655 68h-5.31c-.856 0-1.67-.366-2.24-1.005L45 63v9.036s2 4 10 4 10-4 10-4V63l-5.105 3.995c-.57.64-1.384 1.005-2.24 1.005z" fill="#F7B4B4"/><path d="M50.105 66.995L45 63v9.036s2 4 10 4V68h-2.655c-.856 0-1.67-.365-2.24-1.005z" fill="#FBC8C8"/><path d="M51 36.036c-7.25 0-9 10-9 10l-2-1c-1 0-2 1.11-2 2.222 0 3.26.96 7.568 3.807 7.76L45 63l5.105 3.995c.57.64 1.384 1.005 2.24 1.005H55V38.977l-7 2.06s1.5-2.108 3-5z" fill="#FBD7D7"/><path d="M52 47.036c0-1.104-.896-2-2-2h-.006c0 .022.006.042.006.063 0 1.102-.892 1.995-1.994 2 .033 1.074.91 1.937 1.994 1.937 1.104 0 2-.896 2-2zM61.994 47.036c0-1.104-.896-2-2-2h-.006c0 .02.006.04.006.062 0 1.103-.892 1.996-1.994 2 .033 1.075.91 1.938 1.994 1.938 1.104 0 2-.895 2-2z" fill="#3E3E3F"/><path d="M50 58.036h10s0 3-5 3-5-3-5-3z" fill="#F79392"/><path d="M55 26.43c-8.284 0-15 6.42-15 15v3.606l2 1s1.75-10 9-10c-1.5 2.893-3 5-3 5l17-5 3 10 2-1V41.43c0-8.58-6.716-15-15-15z" fill="#84462D"/><path d="M40 41.43v3.606l2 1s1.75-10 9-10c-1.5 2.893-3 5-3 5l7-2.06V26.43c-8.284 0-15 6.42-15 15z" fill="#9C6144"/></g></svg>