<svg height="24" width="24" xmlns="http://www.w3.org/2000/svg"><path d="M18.378 4.176l-9.19 9.19.706.708 4.53 4.53c.356-1.2.483-2.487.278-3.682l5.656-5.656c.86.012 1.79-.19 2.638-.473l-3.91-3.91-.708-.707z" fill="#c0392b"/><path d="M9.187 13.367L7.773 14.78l-2.828 2.83-1.414 1.413-.706 2.12 1.414-1.413 4.242-4.242 1.414-1.414-.707-.707z" fill="#bdc3c7"/><path d="M9.894 14.074L8.48 15.488l-2.828 2.828-1.414 1.414-1.414 1.414 2.12-.707 1.415-1.414 2.827-2.828L10.6 14.78l-.706-.706z" fill="#7f8c8d"/><path d="M15.175.972c-.283.85-.485 1.778-.473 2.638L9.046 9.266c-1.195-.205-2.483-.078-3.68.28l4.528 4.528 9.19-9.19L15.175.97z" fill="#e74c3c"/></svg>