<svg xmlns="http://www.w3.org/2000/svg" viewBox="0 0 230.4 257.8" enable-background="new 0 0 230.4 257.8"><path fill="none" d="M134.3 83.6c0 .1 0 .2-.1.3 0-.1 0-.2.1-.3zM134 50.1s0 .1 0 0c.7-.2 1.4-.2 2-.2-.6.1-1.2 0-1.9.2-.1-1.1-.1-2.1-.1-3 0 .9-.1 1.8 0 3zM141.8 53.5c-.3-.2-.5-.3-.7-.5.2.1.4.3.7.5.8.6 1.6 1.3 2.2 2.2.2.3.4.6.5 1 0 .2.1.5.2.8.1.6.2 1.3.3 2h.1c0 .2.2.5.3.8-.5.4-1 .8-1.4 1.2-.5.4-1.1.7-1.7.9-.6.2-1.3.3-2 .3-1.5 0-2.8-.4-3.9-1-.3-.1-.6-.4-.8-.6-.3-.2-.5-.5-.7-.7.2.2.4.4.7.6.2.2.5.4.8.5 1.1.6 2.4 1 3.9 1 .7 0 1.4-.1 2-.3.6-.2 1.2-.5 1.7-.9.4-.3.9-.7 1.4-1.2 0-.1.1-.1.2-.2v-.1c-.1-.1-.2-.3-.3-.5-.1-.7-.3-1.4-.4-2-.1-.3-.2-.6-.2-.8l-.6-.9c-.7-.9-1.5-1.6-2.3-2.1zM139 50.1s-.1 0 0 0c-.4-.1-.8-.1-1.2-.1.4 0 .8 0 1.2.1-.1 0 0 0 0 0zM134 47s.1 0 .2-.1c.7-.2 1.5-.4 2.6-.4-1 0-1.9.1-2.6.4-.1.1-.2.1-.2.1zM145 50.3v.1c-.1 0-.2-.1-.4-.2.2.1.3.2.4.2v-.2c.1.2.3.4.4.6.3.4.5.8.8 1.2.2.4.4.8.6 1.1.2.4.5.9.6 1.3.1.2.2.4.2.6.2.5.4.9.5 1.3.1.2.1.5.2.9v-.1c0-.4-.1-.6-.2-.9-.1-.4-.3-.8-.5-1.3-.1-.2-.2-.4-.2-.6-.2-.4-.4-.8-.6-1.3-.2-.4-.4-.7-.6-1.1-.2-.4-.5-.8-.8-1.3-.1-.2-.2-.4-.4-.6v.1c.1.1 0 .2 0 .2zM134.4 53.3c.7-.1 1.5-.2 2.5-.2-1 0-2 .1-2.7.2-1 .1-1.2.5-2.2.9 1-.3 1.2-.6 2.3-.8 0 .8.4 1.8.5 2.8 0 .3.2.6.2.9 0-.3-.1-.7-.2-1-.2-.9-.4-1.9-.4-2.8zM132.9 70.9c-.1-.6-.2-1-.2-1.1 0-1.6.6-3.4 1.8-5.4-1.2 2-1.8 3.8-1.8 5.4 0 .1 0 .4.2 1.1zM136 59.6l.9.6.6.3c-.2-.1-.3-.1-.5-.2-.3-.3-.7-.5-1-.7zM137.6 54.5l.3.3.4.4-.5.5h.2c-.3.4-.4.9-.4 1.4 0 .7.3 1.2.9 1.4-.6-.2-.8-.7-.8-1.4 0-.5.3-1 .5-1.4.1-.2-.3-.4.7-.6v-.2h-.4c-.3 0-.5-.4-.5-.4-.1 0-.2.1-.2.1-.1 0-.2-.1-.2-.1-.4 0-.7.1-.9.5.1-.3.4-.5.9-.5zM128.3 85.2c.7.3 1.5.4 2.3.4.4 0 .9 0 1.2-.1-.4.1-.8.1-1.2.1-.8 0-1.6-.1-2.3-.4zM141.1 46.1c.7.2 1.3.4 1.9.6 1.6.6 2.4 1.3 2.4 1.8v.1-.5s-.8-1-2.4-1.6c-.6-.2-1.2-.2-1.9-.4-.6-.2-1.2-.4-1.8-.5-1.7-.4-3-.7-4-.7h-.1c1 0 2.3.2 4 .7.6.1 1.2.3 1.9.5zM144 57.4c-.7-1-1.5-1.9-2.4-2.6-.3-.2-.6-.5-.9-.6-1.2-.7-2.4-1.1-3.8-1.1 1.4 0 2.6.4 3.8 1.1.3.2.6.5.8.7.8.7 1.6 1.5 2.3 2.6v.4-.2c.1-.1.3-.2.2-.3zM135 58.1v.3c.1.2.2.3.3.4-.2-.2-.3-.4-.3-.7zM179.8 61.2l-.4-1.2-.8-1.7c-.5-.6-1.1-1.2-1.8-1.8-.6-.5-1.2-1-1.9-1.3-1.1-.5-2.3-.7-3.5-.7-.4 0-.8 0-1.2.1l-2.4.6s-1.5.5-2.3.9c-.7.3-1.5.7-2.2 1.2-.4.2-.7.4-1 .6-1 .7-1.9 1.5-2.7 2.5 0 0 .1 0 .1.1.8-1 1.6-1.8 2.6-2.5.3-.2.7-.5 1-.7.7-.4 1.5-.8 2.2-1.2l-.1.8c0 4.7 2.5 7 7.7 7-5.1 0-7.7-2.4-7.7-7v-.8c.7-.3 1.5-.6 2.3-.9s1.6-.5 2.4-.6c.4-.1.8-.1 1.2-.1 1.2 0 2.3.2 3.5.7.6.3 1.2.7 1.9 1.3l1.8 1.8c0 .1-.1.2-.1.4l.6 1.3v2.1h.2l.1-.1.2-.2v-.1c.1-.2.2-.4.3-.5.3-.3.6-.7.8-1.1s.4-.7.6-1c-.2.3-.4.7-.6 1s-.5.7-.8 1.1zM134 45.1c0-2.8.2-5.5.6-8.1 0-.2.1-.4.1-.7 0 .2-.1.4-.1.6-.5 2.7-.6 5.4-.6 8.2zM174.4 56.5l-.3.8c-.1-.7-.5-1.1-1.1-1.1h-.5.5c.6 0 1 .4 1.1 1.2l-.1.1v.4c0 .1.4.2.7.2-.2 0-.4-.1-.5-.2 0-.1-.1-.2-.1-.4v-.1l.3-.9c.8 0 1.2.3 1.2.7 0-.5-.4-.7-1.2-.7zM159.2 60.1h.1-.1zM186.1 53.3c-.1-.6-.3-1.2-.5-1.8.2.5.3 1.1.5 1.8zM185.6 51.4c-.2-.5-.4-1.1-.7-1.6.2.6.5 1.1.7 1.6zM175.9 52.3c-.7-.3-1.5-.6-2.1-.8.6.2 1.3.5 2.1.8.6.3 1.2.6 1.7.8.3.4.6.8.9 1.3.2.3.3.6.4 1 0 .1 0 .1.1.2 0 .1.1.3.1.4 0-.2-.1-.3-.1-.4 0-.1-.1-.1-.1-.2-.1-.4-.3-.7-.4-1-.3-.5-.5-1-.9-1.3-.5-.2-1.1-.5-1.7-.8zM143.2 24.2l.1-.1.1-.1s.1 0 .1-.1h-.1l-.1.1h-.2c.2.1.1.2.1.2-.1 0-.1 0 0 0h-.2.2c-.1 0 0 0 0 0zM135.3 33.3c0 .1-.1.3-.1.5 0 .1 0 .3-.1.5.1-.1.1-.3.2-.3h-.1s.1-.5.1-.6c.7-2.6 1.5-4.7 2.6-6.2.3-.4.6-.7.9-1.1-.3.3-.6.6-.9 1-1.1 1.6-1.9 3.6-2.6 6.2zM164 47.3c-.4.1-.7.2-1.1.3.4-.2.7-.3 1.1-.3zM172.9 51.1c-.5 0-.9.2-1.4.3.5-.1.9-.3 1.4-.3zM167 54.6c-.6.2-1.1.4-1.7.7-1 .4-1.9 1-2.8 1.6-1.2.9-2.4 2-3.4 3.1 1-1.1 2.3-2.2 3.4-3.1.9-.7 1.8-1.2 2.8-1.6.6-.2 1.2-.4 1.7-.7 1.1-.3 2.3-.5 3.4-.5-1.2 0-2.3.2-3.4.5zM158.5 49.2l.6-.3-.6.3c-.2.1-.3.2-.5.4-.4.4-.6.7-.6 1.1 0-.4.2-.7.6-1.1.2-.1.4-.2.5-.4zM181.8 45.9c-.5-.4-1.1-.9-1.8-1.3.7.4 1.3.8 1.8 1.3zM179.8 99.2l4.1 1.9-4.1-1.9zM163.5 118.9c-.4-1.3-.7-2.6-1-3.7-.3-1.2-.7-2.2-.9-3.2-.2-1.3-.6-2.5-.6-3.6 0 1 .3 2.2.6 3.6.2 1 .6 2.1.9 3.2.3 1.2.6 2.4 1 3.7.1.5.3 1.1.5 1.7l1.8 4.8v.4l-2.2-5.7c.3 0 .1-.6-.1-1.2zM198.2 206.4c-.5 1.4-1.1 2.9-1.7 4.3-.1.2-.2.4-.3.7-.6 1.6-1.2 3.1-1.9 4.6-1.2 2.1-2.3 4.1-3.2 5.8-.1.1-.2.3-.3.4l4.3 20.9-.4.1.4-.1-4.3-20.9c0-.1.1-.3.2-.4.9-1.7 2-3.6 3.2-5.8.7-1.5 1.3-3.1 1.9-4.6.1-.2.2-.4.3-.7.7-1.4 1.3-2.8 1.8-4.3zM154 120.3c.1-.2.1-.5.1-.8 0 .3-.1.6-.1.8zM189.1 119.5c-.1-.1-.4-.3-.6-.4-.1-.1-.3-.2-.3-.2l-2.7-3.3c-3.1 1.3-6 3.1-8.9 5.1-1.1.8-2.3 1.6-3.4 2.3l-1 .7c-.7.5-1.4 1-1.9 1.4-.8.6-1.5 1.1-1.9 1.4-.3.2-.5.4-.6.5l-.1.1c-.1.2-.3.4-.5.5.2-.1.4-.2.5-.5l.1-.1c.1-.1.3-.3.6-.5.4-.4 1.1-.8 1.9-1.4.6-.4 1.2-.9 1.9-1.4l1.1-.7c1.1-.7 2.3-1.5 3.5-2.3 2.8-2 5.8-3.8 8.9-5.1l2.7 3.3c.1.1.2.2.3.2.2.1.3.3.5.4.8.7 1.7 1.5 2.7 2.5 0-.1-.1-.2-.1-.3-1.1-.8-2-1.5-2.7-2.2zM147.9 70.1s.1.1.2.3c.1.1.3.1.6.2.5.2 1.3.4 2.4.5v.4c.1.3 0 .6 0 .9 0 .2-.2.3-.2.5 0-.2.2-.4.2-.5 0-.4.2-.6.1-.9 0-.1-.1-.2-.1-.4-1.1-.1-1.9-.3-2.5-.5-.3-.1-.5-.2-.6-.4-.1-.1-.1-.2-.1-.3.2-1 .5-2.2.6-3.4-.1 1.2-.5 2.5-.7 3.4.1.1.1.1.1.2zM191.7 121.7l.3.3-.3-.3c-.3-.9-.5-2-.6-3.2v-.2.2c.1 1.2.3 2.3.6 3.2zM199.7 202.4l.3-.9.3-.9-.3.9-.3.9zM204.4 251.2c-.8-6.7-1.8-13.6-3.1-20.2-1.1-5.8-2.4-11.5-4.1-17.3 1.6 5.7 3 11.6 4.1 17.4 1.2 6.5 2.3 13.3 3.1 20.1zM191.3 207.4c.5-1.2 1-2.3 1.5-3.3l-.2-.4.2.4c-.5 1-1 2.1-1.5 3.3-.2.3-.3.6-.5.9-.1.5-.3 1-.4 1.5.2-.5.4-1 .5-1.5.2-.3.3-.6.4-.9zM187.2 141.6c-2.1 4.6-3.4 9.1-3.9 13.4 0 .2 0 .5-.1.7-.1 1-.1 2.1-.1 3.2 0 4.6.4 8.7 1.2 12.2 0 .2.1.4.2.6 2.7 5.1 5.5 10.4 8.2 15.6 1.3 2.5 2.5 5 3.7 7.5.8-2.8 1.2-5.5 1.2-8.1v-2.4c-.1-1.8-.3-4.2-.6-7.1-.6-6.6-1.2-14-1.8-22.4v-.1l7-1.4-7 1.4v.1l-1.7.3-.9-5.2c-.7-4.3-1.5-9.1-2.5-14.5 0 .1-.1.2-.1.3l-.1.1c-.9 1.9-1.7 3.8-2.7 5.8zM186 225.3V225.6 225.3zM170.4 124.2c.8-.8 1.6-1.5 2.4-2.3 1.1-.9 2.2-1.9 3.4-2.8 1.1-.9 2.2-1.9 3.3-2.8 1.2-1 2.2-2.1 3-3.3.6-.8 1-1.6 1.4-2.5.2-.4.4-.9.5-1.3-.2.5-.3.9-.5 1.3-.4.9-.9 1.7-1.4 2.5-.8 1.2-1.8 2.3-3 3.3-1.1.9-2.2 1.9-3.3 2.8-1.1.9-2.2 1.9-3.4 2.8-.8.8-1.6 1.5-2.4 2.3l-2.4 2.4-1 1 1-1 2.4-2.4zM148.6 79.3v.1-.1zM146.1 76.8s.1 0 0 0c.3.1.5.1.7 0h-.7zM148.9 82.6c-.1-.4-.1-.8-.1-1.3 0-.7-.1-1.3-.1-1.8v-.1.1c0 .5.1 1.1.1 1.8.1.5.1.9.1 1.3.1.6.2 1.1.3 1.5.1.2.1.3.2.5-.1-.1-.1-.3-.2-.5-.1-.4-.2-.9-.3-1.5zM150.3 80c.7.2 1.5.3 2.4.3-.9 0-1.7-.1-2.4-.3-.7-.2-1.2-.5-1.7-.9-.1-.3-.1-.6-.2-.9-.2-.5-.4-.9-.6-1.2l-.3-.3h-.1l.3.3c.2.3.4.7.6 1.2.1.3.2.5.2.9v.1-.1c.5.4 1.1.7 1.8.9zM150.4 85.8l.1.1c.3.1.6.2.9.2-.3 0-.7 0-.9-.2 0 0-.1 0-.1-.1zM160.2 77.1c.2 0 .4.1.6.2-.1.2-.2.3-.3.5-.3.5-.5 1-.8 1.4-.1.3-.3.5-.4.7-.2.4-.5.8-.7 1.1-.1.1-.2.2-.2.3-.1.2-.3.3-.3.4-1.9 2.6-4.1 4-6.1 4.3H151.7h.5c2.1-.2 4.1-1.7 6-4.3.1-.1.2-.3.3-.4.1-.1.2-.2.2-.3.2-.3.5-.7.7-1.1.1-.2.2-.5.3-.7.2-.4.5-.9.8-1.4.1-.2.3-.3.4-.5V77h-.2c-.2 0-.4-.1-.6-.2-1-.3-1.8-.5-2.5-.6V76v.2c.7.2 1.6.6 2.6.9zM191.4 109.9c-.3 2.1-.4 4-.4 5.6v.9-.9c.1-1.7.2-3.6.4-5.6.3-1.4.4-2.8.6-3.9.1-.7.4-1.3.5-1.9-.1.5-.4 1.2-.5 1.9-.1 1.1-.3 2.4-.6 3.9zM159.9 58.4c.3-.4.6-.7 1-1.1-.4.4-.8.8-1 1.1zM134 45.2c.4-.2.8-.3 1.2-.3-.4 0-1 .1-1.2.3zM147.9 75.7c.7 0 1.6 0 2.6-.6-1 .6-1.9.6-2.6.6zM146.1 76.8s0-.1 0 0v-.3c0-.1.2-.3.4-.4.1-.1.2-.2.4-.3.2-.1.4-.1.6-.1-.2 0-.5 0-.6.1-.1 0-.3.2-.4.3-.2.1-.3.3-.4.4v.3c0-.1 0 0 0 0-.1 0-.1.1-.1.1v.2h.1v-.3c0 .1 0 0 0 0zM151.7 86.1c-.1 0-.1-.1-.2-.1.1.1.1.1.2.1zM187.9 70.3l.1-.1c-.1 0-.1 0-.1.1s-.1.3-.2.4c-.5.8-1 1.8-1.5 2.9.5-1.1 1-2 1.5-2.9 0-.1.1-.3.2-.4zM203.4 58.6c-.2.5-.3 1.1-.5 1.5.2-.5.3-1 .5-1.5zM101.5 132.2c-1-1.3-3.8-5.9-8.3-13.8-.3-.5-.5-1-.8-1.4.3.5.5.9.8 1.4 4.4 7.9 7.2 12.5 8.3 13.8 2.5 3.1 5.3 6.8 8.2 11.1.3.4.7.8 1.1 1.2-.4-.4-.7-.8-1.1-1.2-2.9-4.3-5.7-8-8.2-11.1zM75.3 83.4c-.2 0-.3.1-.5.1s-.4.1-.7.1c.2 0 .4-.1.7-.1.1 0 .3 0 .5-.1zM70.5 77.6l-.6-.7.6.7c.2.9.3 1.7.3 2.5-.6-.2-1.1-.2-1.3-.2-.4 0-.8.2-1.1.2.3 0 .7-.2 1.1-.2.2 0 .6.2 1.3.2h.1c.6 0 1.2.3 2.1.6l2.3 2.7-2.3-2.7-2.5-3.1zM143.1 24.1c0-.1 0-.1 0 0 0-.1 0-.1 0 0 0-.1 0-.1 0 0zM164.3 17.8c.8.1 1.9.3 3.3.3s3.1-.2 5.1-.3c1.5-.1 2.8-.2 4-.2h1.1c1.5 0 2.6.1 3.6.2 7.7 1 13.3 2.6 16.8 4.8.4.2.8.5 1.2.8.4.3.7.6 1 .9.5.5.9 1.1 1.3 1.7.4.6.8 1.3 1.1 2.1.5 1.3 1 2.8 1.3 4.4.1.6.2 1.1.3 1.7.2 1.2.3 2.5.4 3.9.1 1.4.1 2.8.1 4.4v2.2c0 2.3-.2 4.4-.3 6.3 0 .4-.1.8-.1 1.2 0-.4.1-.8.1-1.2.2-1.9.3-4 .3-6.3v-2.2c0-1.6 0-3-.1-4.4-.1-1.4-.2-2.7-.4-3.9-.1-.6-.2-1.2-.3-1.7-.3-1.7-.8-3.2-1.3-4.4-.3-.8-.7-1.5-1.1-2.1-.4-.6-.9-1.2-1.3-1.7-.3-.3-.6-.6-1-.9-.4-.3-.7-.5-1.2-.8-3.4-2.1-9-3.7-16.8-4.8-.9-.1-2-.2-3.5-.2h-1c-1 0-2.7 0-4.2.1-2 .1-3.8.1-5.2.1-1.4 0-2.5-.1-3.3-.2-1.8-.3-3.4-.6-4.7-.8-2.2-.3-3.9-.7-4.9-.7 1 0 2.6.4 4.9.7 1.4.2 3 .7 4.8 1zM204.2 54.9c-.2 1.3-.5 2.5-.8 3.6.3-1.1.6-2.3.8-3.6zM184.4 77.2l-.6 1.2c.2-.3.4-.7.6-1.2zM189.9 49.8c0-.2-.1-.4-.1-.6.2 1.7.5 3.6.8 5.9-.2-2-.5-3.7-.7-5.3zM77.9 86.7l-1.7-2c-.2 0-.3-.1-.5-.1-.3-.1-.6-.1-.9-.2-.3-.1-.5-.2-.8-.3-.2-.1-.5-.2-.7-.3.2.1.5.2.7.3.2.1.5.2.8.3.3.1.5.2.9.2.2 0 .3.1.5.1l1.7 2c-.2.1-.3.1-.5.1-.4.1-.9.1-1.4.1-1.3-.3-2.4-.5-3.3-.6-.4-.1-.8-.1-1.2-.1h-1c-.3 0-.5 0-.7.1h.7c.2 0 .3-.1.5-.1h.5c.3 0 .7.1 1.2.2.9.1 2 .4 3.3.6.5 0 1 0 1.4-.1h.5v.2l2.3 2.7c0 .2.1.2.1.4 0-.1-.1-.3-.1-.6l-2.3-2.9zM179.4 84.2c-.3.2-.6.5-.9.7-.1 0-.1 0-.2.1.1 0 .1 0 .2-.1.3-.2.6-.4.9-.7zM178.3 85c-.1 0-.1 0-.2.1-.2.1-.5.2-.8.3.3-.1.5-.2.8-.3.1 0 .2-.1.2-.1zM68.1 83.2v-.1c0-.1.1-.1.1-.2 0 .1-.1.1-.1.2v.1zM143.1 21.1c.1-.2.2-.3.3-.4l.6-.6c.1-.1.2-.1.3-.2l.5-.5.1-.1s.1 0 .1-.1c.4-.2.9-.4 1.6-.5.7-.1 1.5-.2 2.5-.2.7 0 1.5 0 2.4.1.3 0 .6.1.9.1.6.1 1.3.2 2 .3 2.2.4 4.8.9 7.8 1.6.5.1 1 .2 1.5.4 1.6.4 3.2.8 5 1.3 3.2.9 9.1 3 17.5 6.3.1 0 .1 0 .2.1.1 0 .1 0 .2.1.7.2 1.3.5 1.9.7 1.8.8 3.3 1.6 4.6 2.5.8.6 1.6 1.2 2.2 1.9.6.7 1.1 1.4 1.4 2.1.4.8.7 1.8 1 3.1-.2-1.3-.6-2.3-1-3.1-.4-.7-.8-1.4-1.4-2.1-.6-.7-1.3-1.3-2.2-1.9-1.3-.9-2.8-1.7-4.6-2.5-.6-.3-1.2-.5-1.9-.7-.1 0-.1-.1-.2-.1s-.1-.1-.2-.1c-8.4-3.3-14.3-5.4-17.5-6.3-1.8-.5-3.4-.9-5-1.3-.5-.1-1-.3-1.5-.4-3-.7-5.6-1.3-7.8-1.6-.7-.1-1.4-.3-2-.4-.3 0-.6-.2-.9-.2-.9-.1-1.7-.4-2.4-.4-1 0-1.8.3-2.5.4-.6.1-1.2.5-1.6.7 0 0-.1 0-.1.1l-.1.1c-.1.1-.3.2-.6.4-.1.1-.2.2-.3.2l-.6.6c-.1.1-.3.2-.3.3l.1.3zM175.1 151.3c-3.6-1.7-7.3-2.9-11.3-3.6-3.2-.5-7.2-.6-11.8-.6 4.6 0 8.5.1 11.8.7 4 .6 7.7 1.8 11.3 3.5zM145.7 26.3l1 1c.6.5 1.2 1.1 1.8 1.6-.6-.5-1.2-1-1.8-1.6l-1-1zM188.1 69.9zM136.7 20.4c.1 0 .2.3.2.3v-.1s0-.2-.2-.2c-.1 0-.2-.3-.3-.3.2 0 .2.2.3.3zM127 42.1s0-.1 0 0V40.3c0-.9-.1-1.7-.1-2.5v-5.9c0 .3-.1.7-.1 1.2 0 .7 0 1.6.1 2.6 0 .7 0 1.4.1 2.1 0 .8 0 1.6.1 2.5 0 .4 0 .9.1 1.4-.2 0-.2.2-.2.4 0-.1 0 0 0 0 .1 1.2.5 4.2 1.2 8.8.1.9.4 1.9.5 3-.2-1.1-.4-2-.5-3-.7-4.7-1.1-7.6-1.2-8.8zM76.2 78.6c-.1 0-.2-.1-.2-.1h-.1c-.1-.1-.2-.1-.3-.2-.2-.2-.3-.5-.3-.8.1.3.2.6.3.8.1.1.2.2.3.2h.1c0 .1.1.1.2.1.1.1.1.1.3.2.1 0 .2.1.4.1h-.3c-.1-.1-.3-.2-.4-.3zM82.1 91.8l-.2-.1zM181.2 154.7s-.1 0-.1-.1c-8.3-2.4-16.4-3.5-24.3-3.5 8 0 16.1 1.2 24.4 3.6zM84.9 103.7c.1.2.2.4.3.5-.1-.1-.2-.3-.3-.5z"/><path fill="#F1CC96" d="M74.9 84.3c.3.1.5.2.9.2.2 0 .3.1.5.1l-1-1.2c-.2 0-.3.1-.5.1s-.4.1-.7.1h-.7c.2.1.5.2.7.3.3.2.5.3.8.4zM85.2 104.3c.5.9 1.2 2 1.8 3.1.3.5.5.9.8 1.4.7 1.2 1.5 2.6 2.3 4.1.5.8 1 1.7 1.5 2.6.3.5.5.9.8 1.4s.5.9.8 1.4c4.4 7.9 7.2 12.5 8.3 13.8 2.5 3.1 5.3 6.8 8.2 11.1.3.4.7.8 1.1 1.2 1.1 1.1 2.4 2.1 3.7 2.9 5.8-.9 11.1-2.4 16-4.4 0-.2-.1-.5-.1-.8-.6-3.4-2.1-6.2-4.4-8.4-.8-.7-1.6-1.4-2.6-1.9l-5.9 2.5c-.8-.4-1.5-.9-2.3-1.5-4.7-3.1-8.5-7-11.3-11.7l-8.1-12.6-13.8-17 .1.2c-.4-.3-.8-.6-1.1-.8l-.4-.4c-.1-.1-.1-.1-.1-.2-.1-.1-.1-.2-.1-.3 0-.1-.1-.2-.1-.4L78 86.9v-.2h-.5c-.5.3-1 .3-1.5.3-1.3-.3-2.4-.5-3.3-.6-.4-.1-.8-.1-1.2-.2H71c-.2 0-.4.1-.5.1h-.7c-.4.1-.7.3-.8.5V87.1h.2c.6 0 2.3.1 5 .6 2.5.5 3.9.6 4.2.9l.1.1c0 .3-.3.7-1.1 1.1-.7.3-1.3.5-1.7.5-1-.4-1.9-.7-2.9-.9-1-.2-1.9-.3-2.9-.3h-2.2c4 4.4 8 7.1 11.9 7.9.7.1 1.4.5 2 1.2.3.3.8.8 1.3 1.4l.1-.1s0 .1.1.2c.5 1.1 1.1 2.4 1.8 3.8.1.4.2.6.3.8z"/><path fill="#E6A23C" d="M69.5 79.9c.2 0 .6 0 1.3.2 0-.8-.1-1.6-.3-2.5l-.6-.7-2.9-3.6c.1 1.2 1.1 3.2 1.4 6l-.2.8h.1c.4 0 .8-.2 1.2-.2z"/><path fill="#E8A84A" d="M67.7 84.7v-.1c.1-.4.1-.7.2-.9.1-.2.1-.4.1-.5v-.1c0-.1.1-.1.1-.2.2-.3.5-.5 1-.5.4 0 1.4.2 2.7.7.4.1.8.3 1.4.5h.7c.2 0 .4-.1.7-.1.2 0 .4-.1.5-.1L73 80.7c-.9-.3-1.5-.6-2.1-.6h-.1c-.6 0-1.1-.2-1.3-.2-.4 0-.8.2-1.1.2h-.1l-.7-.1-.5.9-.2.6c0 1.2.3 2.3.8 3.2z"/><path fill="#ECBA71" d="M80.2 89.6c0 .2.1.4.1.6 0 .1 0 .2.1.3 0 .1.1.1.1.2.1.1.2.3.4.4.3.2.6.5 1.1.8l-.1-.2-1.7-2.1zM78.3 88.5c-.3-.2-1.7-.4-4.2-.9-2.7-.5-4.3-.6-5-.6h-.2V86.7c.1-.2.4-.4.8-.5.2 0 .4-.1.7-.1h1c.3 0 .7.1 1.2.1.9.1 2 .3 3.3.6.5 0 1 0 1.4-.1.2 0 .3-.1.5-.1l-1.7-2c-.2 0-.3-.1-.5-.1-.3-.1-.6-.1-.9-.2-.3-.1-.5-.2-.8-.3-.2-.1-.5-.2-.7-.3-.5-.2-1-.4-1.4-.5-1.3-.5-2.3-.7-2.7-.7-.5 0-.9.2-1 .5 0 .1-.1.1-.1.2v.1c0 .1-.1.3-.1.5-.1.2-.1.5-.2.9v.4c-.1.5-.3 1.2-.4 2-.1.1-.2.3-.2.4l.1 1.1c.1.1.2.3.4.4h2.2c1 0 1.9.1 2.9.3 1 .2 1.9.5 2.9.9.4 0 1-.2 1.7-.5.7-.4 1.1-.7 1.1-1.1 0 .1 0 0-.1-.1.1.1.1.1 0 0z"/><path fill="#E9AC52" d="M114.5 147.4c-1.4-.8-2.6-1.8-3.7-2.9-.4-.4-.7-.8-1.1-1.2-2.9-4.3-5.7-8-8.2-11.1-1-1.3-3.8-5.9-8.3-13.8-.3-.5-.5-1-.8-1.4-.3-.5-.5-.9-.8-1.4-.5-.9-1-1.8-1.5-2.6-.8-1.5-1.6-2.8-2.3-4.1-.3-.5-.6-1-.8-1.4-.7-1.2-1.3-2.2-1.8-3.1-.1-.2-.2-.4-.3-.5.9 1.9 1.9 4.1 3.1 6.6 5 10.4 9 18.5 12.1 24.1 1.2 2.2 2.4 4.3 3.7 6.2 2.7 4.3 6 8.2 9.8 11.5.3.2.7.5 1.1.8 5.7-2.3 11-5.3 16-9 0-.3-.1-.7-.2-1.1-4.8 2-10.1 3.5-16 4.4z"/><path fill="#EDBD78" d="M161 108.1v.2c0 1 .3 2.2.6 3.6.2 1 .6 2.1.9 3.2.3 1.2.6 2.4 1 3.7.1.5.3 1.1.5 1.7l2.2 5.7.1.1.7 1.2 1-1c.8-.8 1.6-1.7 2.4-2.4s1.6-1.5 2.4-2.3c1.1-.9 2.2-1.9 3.4-2.8 1.1-.9 2.2-1.9 3.3-2.8 1.2-1 2.2-2.1 3-3.3.6-.8 1-1.6 1.4-2.5.2-.4.4-.9.5-1.3.2-.5.3-.9.4-1.4l.3-1.5c.1-.5.1-1 .1-1.4 0-1.1-.3-2-.9-2.9-.2-.3-.3-.5-.5-.8l-4.1-1.9v.6c-.2.8-.6 1.5-1.1 2.1-1.1 1.2-2.3 2.1-3.7 2.9-1.4.6-2.7 1.5-3.8 2.6v.1c.2.1.3.1.4.2l.2.2c.4.4.6.9.6 1.6 0 .6-.2 1.1-.6 1.6-.4.4-.9.6-1.6.6-.6 0-1.1-.2-1.6-.6-.2-.2-.4-.5-.5-.8-.1-.2-.1-.5-.1-.8 0-.6.2-1.1.6-1.6.4-.4.7-.5 1.2-.6-.3-.4-.6-.8-.9-1.1-.9-.9-1.6-2-2-3.2-.3-.9-.3-1.6.2-2.1 0 .1.1.2.2.3.1.2.2.5.3.9.6 1.7 1.6 3.5 2.9 5.2h.2c2.2-1.9 4-3.2 5.2-3.7 1.2-.6 2-1.3 2.5-2 .4-.7.7-1.6.7-2.6 0-.1.1-.2.1-.3l.1-.1-1.3-2.1h.1l-.1-.1-.7-1.5c-.1-.2-.2-.4-.3-.7 0 0 0-.1-.1-.1-.8-1.9-1.5-4-2-6-.1-.5-.2-1.1-.3-1.6-1.6.5-3.3 1.2-5.4 2-.9.4-1.9 1-3 1.4-.6.3-1.2.5-1.7.8.3.7.6 1.3.8 2 .2.7.5 1.5.7 2.3l.7 3.4.2 1.2-2.5 1.9c-.2.1-.4.3-.5.6h-.2l-.6.6c-.5.7-1.1 1.7-1.3 3-.4.7-.7 1.5-.7 2.4zM171.4 109c-.1.4-.3.8-.6 1.1l-.3.3.3-.3c.4-.3.6-.6.6-1.1zM167.9 110.4c.3.3.8.4 1.3.4-.5 0-1-.1-1.3-.4z"/><path fill="#E3EEF9" d="M153.6 113.9c0 .1 0 .4.1.9 0 .3.1.7.1 1.2.1.7.2 1.7.3 2.8v.5c0 .3 0 .6-.1.8 0 .1-.1.2-.1.3 2.6-4.2 4.4-7.1 5.3-8.7.3-.5.5-.9.6-1.1.1 0 .1 0 .1-.2 0 .1.7 1.9 2 5.4.3.8.4 1.5.6 2.1.2.6.5 1.1.5 1.5 0 .4.4.8.5 1.2v-.1l.1.1c.1.4.3.8.5 1.2l1.7 3.4-1.8-4.8c-.2-.5-.4-1.1-.5-1.7-.4-1.3-.7-2.6-1-3.7-.3-1.2-.7-2.2-.9-3.2-.2-1.3-.6-2.5-.6-3.6V107.9c0-.8.3-1.6.4-2.2.2-1.3.7-2.3 1.2-3.1.2-.2.4-.6.6-.6h.3c.1-.2.4-.4.6-.6l2.5-1.9-.2-1.2-2.3.8c-1.9.2-3.4.9-4.5 1.4-1.6.6-2.9 1.6-3.8 2.6-.3 0-.6.3-.9.7-.2.3-.4.7-.6 1.2v.1c0 .2-.1.4-.1.6-.5 1.4-.6 4.1-.6 8.2z"/><path fill="#33406F" d="M204.4 251.2c-.8-6.7-1.8-13.5-3.1-20.2-1.1-5.8-2.4-11.6-4.1-17.4l-.7-1.5c-.7 1.3-1.4 2.6-2.2 3.9.7-1.5 1.3-3.1 1.9-4.6-.6 1.6-1.2 3.1-1.9 4.6-1.2 2.1-2.3 4.1-3.2 5.8-.1.1-.2.3-.2.4l4.3 20.9-.4.1c-1.1-3.1-1.8-5-2.8-5.4v.7s.5 2.7 1.4 7.8c0 .8 0 .7-.1 1.7h-.8c0-1-.5-1.9-1.6-4.5-1-2.6-1.8-4.2-1.8-4.4v1.3c1 2.4 2 4.7 3 6.9v.7h-1.6c-1.6-4-2.6-5.8-3.1-6.8 0 1.3.3 3.8 1 6.8h-.6c-.3 0-.7-1.4-.9-2.7-.2-1.3-.5-2.1-.6-2.4-.1-.7-.4-1.4-.5-2-.3-1.6-.7-3.2-.7-4.7v-.2h.2c.4-6 .8-9.3.8-10.5v-.5c2-6.6 3.4-11.5 4.3-14.6 0-.2.1-.4.2-.6.1-.5.3-1 .4-1.5.1-.3.3-.6.4-.9.5-1.2 1.1-2.3 1.5-3.3l-.2-.4-2.5-5.3c-1.1-3.1-2.2-6.1-3.3-9.3-1.8-5.6-3.6-11.2-5.2-17-.2-.8-.4-2.1-.6-2.1h-.2v-1.1c-.1-1.9 0-4.1.1-6.1.2-2.7.1-5.4 1.1-8.1v-.2c0-.8.1-1.7.3-2.5.9-5.3 2.5-9.6 4.9-13.1.8-1.1 1.7-2.2 2.7-3.1v.1l.1-.1c0-.1.1-.2.1-.3 1 5.4 1.8 10.2 2.5 14.5l.9 5.2 1.7-.3v-.1l7-1.4s0-.1-.1-.1l3-.5v.1l.9-.2-.4-2.8c-.3-2.9-.6-5.7-.7-8.6-.1-2.9-.1-5.8-.1-8.7 0-3 .1-6 .3-9 .1-1.1.3-2.1.5-3 .3-1.3.4-2.6.4-4v-1c-.1-1.7-.4-3.4-1-5.1l-.1-.4c-.3-.6-.7-1.3-1-1.9-.5-1-1.4-1.8-2.5-2.5-1.3-.6-2.6-1-3.8-1.2-1.2-.2-2-.4-2.4-.7-.7-.4-.9-.7-1.9-1 0 .4-.3.8-.4 1.3-.1.5-.4 1.2-.5 1.9-.2 1.1-.4 2.5-.6 3.9-.3 2.1-.4 4-.4 5.6v3.2c.1 1.2.3 2.3.6 3.2l.3.3v.1h-.2c-1-1-2-1.8-2.7-2.5-.1-.1-.3-.3-.5-.4-.1-.1-.3-.2-.3-.2l-2.7-3.3c-3.1 1.3-6 3.1-8.9 5.1-1.1.8-2.3 1.6-3.5 2.3l-1.1.7c-.7.5-1.4 1-1.9 1.4-.8.6-1.5 1.1-1.9 1.4-.3.2-.5.4-.6.5l-.1.1c-.1.2-.3.4-.5.5l-.7-1.2-.1-.1v-.4l-1.7-3.4c-.1-.4-.3-.8-.4-1.2v-.1c-.1-.2-.2-.6-.4-1.1-.1-.4-.3-.9-.6-1.5-.2-.6-.5-1.3-.7-2.1-1.3-3.5-1.9-5.3-2-5.4 0 .1 0 .2-.1.2-.1.2-.3.6-.6 1.1-.9 1.6-2.6 4.5-5.3 8.7 0-.1.1-.2.1-.3.1-.2.1-.5.1-.8v-.5c-.1-1.1-.2-2.1-.3-2.8-.1-.5-.1-.9-.1-1.2 0-.5-.1-.8-.1-.9 0-4.1.1-6.8.3-8.2 0-.2.1-.4.1-.6v-.2c.1-.5.3-.9.6-1.3-1.6.5-2.9 1.3-3.8 2.4-1.6 1.7-4.5 5.4-8.6 11.1-4.2 5.6-10.5 10.6-18.8 14.9.9.6 1.8 1.2 2.6 1.9 2.3 2.2 3.8 4.9 4.4 8.4 0 .2.1.5.1.8 0 .3.1.7.2 1.1l.2 1.3c5.8-3.7 11.3-7.8 16.4-12.4-.5 2.4-.8 4.6-.8 6.8 0 2.8.4 4.4 1.1 4.8.9.5 1.8 1.4 2.8 2.3h1.4c4.6 0 8.5 0 11.8.6 3.9.7 7.7 1.9 11.3 3.6 2.1 1 4.1 2.1 6.1 3.4h-.1s.1 0 .1.1c-8.3-2.4-16.4-3.6-24.4-3.6h-2.8c1 1.5 1.9 3.1 2.8 4.7 1.1 2.6 2.2 5.6 3.4 8.9.5 1.5 1 3.1 1.5 4.7.2.7.5 1.5.7 2.5 1 5.8.9 11.6-.3 17.4 0 .3-.1.6-.2.9-.5 2.7-1 5.4-1.2 8.1l-.3 3.9c0 .8-.2 1.6-.2 2.4 0 .2-.2.5-.2.8v.2h.1c-.4 3.3-.6 9.1-.6 17.6 0 2.4.3 9.2.9 19.9l.9 14.9h43.7c-.1-.9-.1-1.7-.2-2.5-.1-.7-.1-1.4-.2-2.1-.8-1.6-.9-2.4-1-3.2z"/><path fill="#E3EEF9" d="M179 98.6c.1 0 .1 0 0 0h.4c.2.2.3.4.3.6l4.1 1.9c.2.3.4.5.5.8.5.9.8 1.9.9 2.9 0 .5 0 .9-.1 1.4l-.3 1.5s-.3.9-.4 1.4c-.2.5-.3.9-.5 1.3-.4.9-.9 1.7-1.4 2.5-.8 1.2-1.8 2.3-3 3.3-1.1.9-2.2 1.9-3.3 2.8-1.1.9-2.2 1.9-3.4 2.8-.8.7-1.6 1.5-2.4 2.3l-2.4 2.4-1 1c.2-.1.4-.2.5-.5l.1-.1c.1-.1.3-.3.6-.5.4-.4 1.1-.8 1.9-1.4.6-.4 1.2-.9 1.9-1.4l1-.7c1.1-.7 2.3-1.5 3.4-2.3 2.8-2 5.8-3.8 8.9-5.1l2.7 3.3c.1.1.2.2.3.2.2.1.4.3.6.4.7.6 1.6 1.4 2.5 2.2-.3-.9-.5-2-.6-3.2v-3.2c.1-1.6.2-3.5.4-5.6.2-1.4.4-2.8.6-3.9.1-.7.4-1.3.5-1.9 0-.5.4-.9.4-1.3v-2.2c0-1.4-1.7-2.6-4.5-2.6h-.2l-10.4-1.5h-.1l1.5 2.4zM191.7 122.1h.2v-.1l-.3-.3c.1.1.1.3.1.4z"/><path fill="#283257" d="M198.2 206.4c.3-.7.5-1.4.8-2-.3.7-.5 1.4-.8 2-.5 1.4-1.1 2.9-1.7 4.3-.1.2-.2.4-.3.7.1-.2.2-.4.3-.7.6-1.4 1.2-2.8 1.7-4.3zM207.3 223.9c-1.8-6.7-4.1-13.2-6.8-19.6l-1.8 3.9c-.6 1.2-1.2 2.4-1.9 3.6-.1.1-.2.3-.2.4l.7 1.5c1.6 5.7 3 11.5 4.1 17.3 1.2 6.6 2.3 13.5 3.1 20.2l.3 2.4c.1.7.2 1.3.2 2.1.1.7.1 1.5.2 2.5h7.2c-1.2-7-2-13.4-2.6-20.2-.5-4.9-1.3-9.6-2.5-14.1zM192.8 204.1c1.4-3.1 2.4-5.4 2.8-6.8.3-.8.5-1.5.7-2.3-1.2-2.5-2.4-5-3.7-7.5-2.7-5.2-5.5-10.5-8.2-15.6 0-.2-.1-.4-.2-.6-.8-3.5-1.2-7.6-1.2-12.2 0-1 0-2.1.1-3.2 0-.2 0-.5.1-.7.5-4.3 1.8-8.8 3.9-13.4.9-2 1.8-3.9 2.6-5.7v-.1c-1 .9-1.9 2-2.7 3.1-2.4 3.4-4 7.8-4.9 13.1-.1.8-.3 1.7-.3 2.5v.2c-1 2.7-.9 5.4-1.1 8.1-.1 1.9-.2 4.1-.1 6.1 0 .3-.1.1 0 1.1h.2c.1 0 .3 1.2.6 2.1 1.6 5.7 3.4 11.3 5.2 17 1 3.1 2.1 6.2 3.3 9.3l2.5 5.3.4.2zm-12-34.4l.2-.1-.2.1z"/><path fill="#9c3" d="M163.2 119.6c.2.6.3.9.4 1.1v.1c-.1-.4-.3-.8-.4-1.2z"/><path fill="#283257" d="M156.4 151.1h.4c7.9 0 16 1.2 24.3 3.5h.1c-2-1.3-4-2.4-6.1-3.4-3.6-1.6-7.3-2.8-11.3-3.5-3.2-.5-7.2-.7-11.8-.7h-.4c-.3 0-.7.1-1 .1 1 1 2.1 1.9 3.1 3.9H154.3c.6.1 1.3.1 2.1.1zm-2.6-.1c0-.1-.1-.2-.1-.2h.1v.2z"/><path fill="#2F747B" d="M153.8 151v-.2h-.1s.1.1.1.2z"/><path fill="#89B02D" d="M180.8 169.7l.2-.1-.2.1z"/><path fill="#991A1A" d="M173 51.1h-.1.1zM143.1 24c0 .1 0 .1 0 0 0 .1 0 .1 0 0 0 .1 0 .1 0 0zM126.2 84c.7.5 1.4 1 2.1 1.2.7.3 1.5.4 2.3.4.4 0 .9 0 1.2-.1.4-.1.7-.2 1-.3.2-.1.4-.2.5-.3.4-.3.7-.6.9-1 0-.1 0-.2.1-.3.1-.5.2-1.3.2-2.5 0-.9-.1-1.9-.2-3.1-.1-1.1-.4-2.4-.7-3.8-.2-1.1-.4-2-.6-2.7-.1-.3-.1-.5-.1-.7-.1-.6-.2-1-.2-1.1 0-1.6.6-3.4 1.8-5.4 0-.7.1-1.4.1-2.1 0-.6.1-1.2.1-1.8 0-.9 0-1.7.1-2.3 0 .1.1.2.2.3v-1.2c0-.3-.1-.6-.2-.9-.1-1-.5-1.9-.5-2.8-1 .1-1.3.4-2.3.8v-1.6c1-.2 1-.4 2-.4 0 0 0-.1-.1-.1h.1c0-.7 0-1-.1-2l.1.1v-.1c-.1-1.1 0-2.1 0-3h-.1v-1.7c.1 0 .1-.1.2-.1v-.2c0-2.8.2-5.5.6-8.2 0-.2.1-.4.1-.6l.3-1.8s0-.1.1-.1c0-.1 0-.3.1-.5 0-.2.1-.4.1-.5.7-2.6 1.5-4.6 2.6-6.1.3-.4.6-.7.9-1v-.1c1.2-1.2 2.5-2 4-2h.1V24h.6v.1h.1l-.1.1-.1.1-.1.1h-.2v1.2c0 .3.1.6.1.9v1.9c0 .7.2 1.5.7 2.5 1.1 2.1 3.3 5 6.6 8.4l.1.1.1.1.3.3c3 2.3 7.4 4.8 13.1 7.5.2.1.5.2.7.3.2.1.5.2.7.3.3.1.7.3 1.3.6 1 .4 2.3.9 3.9 1.6.7.3 1.5.6 2.3 1h.2c.1 0 .3.1.4.2v.2c.6.2 1.4.5 2.1.8.6.2 1.2.5 1.7.8.5.2 1 .5 1.5.7 1.4.7 2.7 1.3 3.8 2 .7.4 1.4.8 2 1.2.6.4 1.1.8 1.6 1.2l.2.2s0-.1-.1-.1v-.1c0-1.9-.2-3.5-.4-4.9-.1-.6-.3-1.2-.5-1.8-.2-.5-.4-1.1-.7-1.6-.1-.3-.3-.5-.4-.8l-.6-.9s0-.1-.1-.1c-.1-.1-.2-.2-.2-.3-.3-.4-.7-.8-1-1.2-.2-.2-.5-.5-.8-.7-.5-.4-1.1-.9-1.8-1.3-.4-.2-.7-.5-1.1-.7s-.8-.5-1.3-.7c-1.4-.7-3-1.4-4.8-2.1-.6-.2-1.2-.5-1.9-.7-1.8-.7-3.5-1.3-5.1-1.9-4.9-1.9-8.2-3.3-10-4.3-.7-.4-1.4-.8-2.2-1.3-1.7-1.1-3.4-2.4-5.1-3.8-.6-.5-1.2-1-1.8-1.6l-1-1-2.2-2.2c.6.2 1.4.6 2.5 1.2.7.4 1.4.8 2.2 1.2 1.3.6 2.7 1.1 4.3 1.6 2.6.8 5.7 1.4 9.1 1.8 5.6.7 11 1.9 16 3.6.6.2 1.2.4 1.7.6 4.7 1.7 7.4 3.5 8.1 5.3.2.4.3.9.5 1.4.2.5.3 1.1.5 1.8.3 1.3.6 2.9.9 4.7.1.5.2 1.1.3 1.8 0 .2.1.4.1.6.2 1.5.5 3.3.7 5.3.4 2 .7 3.6.9 4.8.4-.1.8-.1 1.1-.1.8 0 1.3.1 1.4.4 0 .1.1.2.1.4v.4c0 .1 0 .3-.1.5 0 1.1-.3 2.1-.8 3.1-.3.6-.8 1.3-1.4 1.9l-.5.5h.1l.1.1c.4.4.6.9.6 1.6 0 .6-.2 1.2-.7 1.7-.4.4-1 .7-1.7.7-.6 0-1.2-.2-1.7-.7-.1-.1-.1-.2-.2-.2l-.1.1c0 .1-.1.3-.2.4v.5c0 .3 0 .7-.1 1.2s-.1.9-.1 1.5-.1 1.2-.1 1.8c0 .3 0 .7-.1 1 0 4.2.5 6.8 1.4 7.9.3.3.7.7 1.3 1 .2.1.4.2.7.3.4.2.8.4 1.3.6s1 .4 1.5.5c.8.3 1.8.5 2.8.8.3.1.7.2 1.1.3 1.2.3 2.7.6 4.6.8.6.1 1.3.1 2.1.2 1.6-.8 3.1-1.8 4.6-3.1 3.7-3.1 5.5-6.1 5.5-9 0-.7-.1-1.5-.4-2.3-1.5 1.4-2.7 2.5-3.6 3.2-1.7 1.4-3.3 2.1-4.7 2.1-1.8 0-3 0-3.6-.2-.7-.2-1-.6-1-1.3 2.1-2.9 4.2-6.2 6.4-9.8 3.7-6.3 5.8-12.6 6.3-18.9 0-.9.1-1.9.1-2.9 0-3.7-.3-8.9-.8-15.4-.1-1.8-.4-3.6-1-5.3-2.4-3.9-5.5-6.9-9.3-8.9-6.3-3.2-11.8-5.2-16.2-6.1-2.8-.5-7.8-.7-15-.7-6.8 0-12.1.3-15.9.9-5 .8-9.4 2.3-13.1 4.6-.1 0-.2.1-.3.2s-.3.2-.4.3h-1.1c-1.4 0-3.6.6-6.4 1.9-3.5 1.5-5.6 3.3-6.3 5.2-1.4 3.9-2.1 6.4-2.2 7.2v1.2c0 1.1.1 3 .3 5.5 0 3.5.2 6.3.6 8.4.1.9.4 2.2.7 3.7.1.9.4 1.9.6 3.1.6 3 1.2 5.9 1.7 8.7.4 2.8.8 4.7 1.1 5.7.3 1 .5 2 .7 3 .1.4.1 1.8.1 3.9v1.7c-.1 2-.4 3.5-.9 4.4-.6 1.1-1.7 1.6-3.2 1.6-1.8 0-3.1-.3-3.9-.9.2.4.4.8.7 1.2h.3c.3.2.9.8 2.1 1.9zM143 21v-.5c1-1 2.1-1.8 3.5-2.4 1.3-.6 2.8-1.1 4.5-1.3.5-.1 1.1-.2 1.7-.2l.1-.1c.6 0 1.2-.3 1.8-.3 1 0 2.6.4 4.9.7 1.3.2 2.9.5 4.7.8.8.1 1.9.2 3.3.2s3.2 0 5.2-.1c1.5-.1 3.2-.1 4.2-.1h1c1.5 0 2.6.1 3.5.2 7.7 1 13.3 2.6 16.8 4.8.4.2.8.5 1.2.8.4.3.7.6 1 .9.5.5.9 1.1 1.3 1.7.4.6.8 1.3 1.1 2.1.5 1.3 1 2.8 1.3 4.4.1.6.2 1.1.3 1.7.2 1.2.3 2.5.4 3.9.1 1.4.1 2.8.1 4.4v2.2c0 2.3-.2 4.4-.3 6.3 0 .4-.1.8-.1 1.2 0 .2 0 .3-.1.5-.1.7-.2 1.3-.3 2v.1c-.2 1.3-.5 2.5-.8 3.6-.2.5-.3 1.1-.5 1.5-1 2.9-4.2 8.8-9.6 17.7.1-.3.3-1.4.7-3.2.1-.5.2-1.1.4-1.7.1-.6.3-1.3.5-2.1s.3-1.6.5-2.4c.2-.9.4-1.8.6-2.8l.3-1.5c.2-1.1.4-2.1.6-3.1.1-.3.1-.6.2-1 .1-.8.3-1.6.4-2.4.1-.6.2-1.2.2-1.8v-.2c.1-.7.1-1.3.2-2 .2-1.9.3-3.8.3-5.7v-2.1c0-2-.2-3.8-.4-5.2-.1-.5-.1-1-.2-1.4-.2-1.3-.6-2.3-1-3.1-.4-.7-.8-1.4-1.4-2.1-.6-.7-1.3-1.3-2.2-1.9-1.3-.9-2.8-1.7-4.6-2.5-.6-.3-1.2-.5-1.9-.7-.1 0-.1 0-.2-.1-.1 0-.1 0-.2-.1-8.4-3.3-14.3-5.4-17.5-6.3-1.8-.5-3.4-.9-5-1.3-.5-.1-1-.3-1.5-.4-3-.7-5.6-1.2-7.8-1.6-.7-.1-1.4-.2-2-.3-.3 0-.6-.1-.9-.1-.9-.1-1.7-.1-2.4-.1-1 0-1.8.1-2.5.2s-1.2.3-1.6.5c0 0-.1 0-.1.1l-.1.1-.5.5c-.1.1-.2.1-.3.2l-.6.6c-.1.1-.1.2-.2.4h-.1V21zm-12.7 11.7c-.4.5-.8 1.1-1.2 1.8-.1.2-.3.5-.4.8-.3.8-.6 1.6-.7 2.6v.3c-.1.7-.1 2.2-.1 4.3 0 .5 0 1.1.1 1.7 0 .5.1 1 .1 1.5 0 .1.1.1.1.2.1 1.5.8 3.2.8 5.1v2.8l-.2.1c-.2-1.1-.4-2-.5-3-.7-4.6-1.1-7.6-1.2-8.8v-.5c0-.5 0-.9-.1-1.4 0-.9-.1-1.7-.1-2.5s0-1.5-.1-2.1c0-1 0-1.8-.1-2.6 0-.5.1-.9.1-1.2 0 0 .1-.1.1-.2 0-.4-.1-.7-.1-.9 0-2.1.2-3.9.8-5.4.4-.9.9-1.7 1.5-2.3.4-.4.8-.8 1.3-1.1s1-.6 1.6-.9c.6-.2 1.2-.5 1.9-.6.7-.1 1.4-.4 2.2-.4h.1c.1 0 .2.3.3.3.1 0 .2.2.2.2v2.6c0 .6-.6 1.7-1.7 3.3-.6.8-1.2 1.7-2.1 2.7-.4.5-.9 1.1-1.3 1.6-.2.7-.7 1.3-1.3 2zM190.6 69.7c-.4.3-.9.4-1.5.4-.4 0-.7-.1-1-.2.3.1.6.2 1 .2.6 0 1.1-.1 1.5-.4z"/><path fill="#BC2121" d="M133.2 29.2c.8-1 1.5-1.9 2.1-2.7 1.1-1.6 1.7-2.7 1.7-3.3v-2.5s-.1-.3-.2-.3-.2-.3-.3-.3h-.1c-.8 0-1.5.3-2.2.4-.7.1-1.3.4-1.9.6-.6.2-1.1.5-1.6.9s-.9.7-1.3 1.1c-.6.6-1.1 1.4-1.5 2.3-.6 1.5-.8 3.3-.8 5.4 0 .2.1.6.1.9 0 0-.1.1-.1.2 0 .3-.1.7 0 1.2v4.7c0 .8 0 1.6.1 2.5v1.9c.1 1.2.5 4.2 1.2 8.8.1.9.4 1.9.5 3l.2-.1v-2.8c0-1.9-.6-3.6-.8-5.1 0-.1-.1-.1-.1-.2 0-.5-.1-1-.1-1.5 0-.6-.1-1.1-.1-1.7 0-2.1 0-3.6.1-4.3V38c.1-.9.3-1.8.7-2.6.1-.3.2-.5.4-.8.3-.6.7-1.2 1.2-1.8.5-.6 1.1-1.2 1.5-1.8.5-.7.9-1.3 1.3-1.8zM143.3 20.7l.6-.6c.1-.1.2-.2.3-.2.2-.2.4-.3.6-.4l.1-.1s.1 0 .1-.1c.4-.2.9-.6 1.6-.7.7-.1 1.5-.4 2.5-.4.7 0 1.5.3 2.4.4.3 0 .6.2.9.2.6.1 1.3.2 2 .4 2.2.4 4.8.9 7.8 1.6.5.1 1 .3 1.5.4 1.6.4 3.2.8 5 1.3 3.2.9 9.1 3 17.5 6.3.1 0 .1.1.2.1s.1.1.2.1c.7.2 1.3.5 1.9.7 1.8.8 3.3 1.6 4.6 2.5.8.6 1.6 1.2 2.2 1.9.6.7 1.1 1.4 1.4 2.1.4.8.7 1.8 1 3.1.1.4.2.9.2 1.4.2 1.5.3 3.2.4 5.2V48c0 1.8-.1 3.7-.3 5.7-.1.6-.1 1.3-.2 2v.2c-.1.6-.1 1.2-.2 1.8-.1.8-.2 1.6-.4 2.4-.1.3-.1.6-.2 1-.2 1-.4 2.1-.6 3.1l-.3 1.5c-.2 1-.4 1.9-.6 2.8-.2.9-.4 1.7-.5 2.4s-.3 1.4-.5 2.1c-.1.6-.3 1.2-.4 1.7-.4 1.8-.6 2.9-.7 3.2 5.3-8.8 8.5-14.7 9.6-17.7.2-.5.3-1 .5-1.5.3-1.1.6-2.3.8-3.6V55c.1-.6.2-1.3.3-2 0-.2 0-.3.1-.5 0-.4.1-.8.1-1.2.2-1.9.3-4 .3-6.3v-2.2c0-1.6 0-3-.1-4.4-.1-1.4-.2-2.7-.4-3.9-.1-.6-.2-1.2-.3-1.7-.3-1.7-.8-3.2-1.3-4.4-.3-.8-.7-1.5-1.1-2.1-.4-.6-.9-1.2-1.3-1.7-.3-.3-.6-.6-1-.9-.4-.3-.7-.5-1.2-.8-3.4-2.1-9-3.7-16.8-4.8-.9-.1-2.1-.2-3.6-.2h-1.1c-1.2 0-2.5.2-4 .2-2 .1-3.7.3-5.1.3-1.4 0-2.5-.2-3.3-.3-1.8-.3-3.4-.8-4.7-1-2.2-.3-3.9-.7-4.9-.7-.6 0-1.2.2-1.8.3l-.1.1c-.6 0-1.2.2-1.7.2-1.7.2-3.2.7-4.5 1.3-1.3.6-2.5 1.4-3.5 2.4v.4-.1c-.3-.1-.1-.2 0-.3z"/><path fill="#F1CC96" d="M168.9 88.4c2.1-.8 3.9-1.4 5.4-2 .8-.3 1.5-.5 2.1-.7l.9-.3c.3-.1.5-.2.8-.3.1 0 .1 0 .2-.1.1 0 .1 0 .2-.1.3-.2.6-.4.9-.7.6-.5 1.1-1 1.7-1.6 1-1.2 2-2.6 2.8-4.2l.6-1.2c.6-1.3 1.1-2.5 1.7-3.6s1-2 1.5-2.9c.1-.1.2-.3.2-.4l.1-.1c-.1-.1-.2-.3-.2-.4.1.1.3.1.4.2-.1-.1-.3-.1-.4-.2-.1-.3-.2-.6-.2-1 0-.6.2-1.2.7-1.7s1-.7 1.7-.7c.6 0 1.2.2 1.6.7l.5-.5c.6-.6 1-1.2 1.4-1.9.5-1 .8-2 .8-3.1 0-.2 0-.4.1-.5v-.4c0-.2 0-.4-.1-.4-.1-.2-.6-.4-1.4-.4-.3 0-.7 0-1.1.1-.4.1-.8.2-1.2.4s-.9.4-1.4.6c-.3-.4-.6-.8-.9-1.1-.1-.1-.1-.2-.2-.3l-1.2-1.2c-.1 0-.2-.1-.2-.2-.4-.4-1-.8-1.6-1.2-.6-.4-1.2-.8-2-1.2-1.1-.6-2.3-1.3-3.8-2-.5-.2-1-.5-1.5-.7.3.4.6.8.9 1.3.2.3.3.6.4 1 0 .1 0 .1.1.2 0 .1.1.3.1.4l2.2 2.9c-.2.3-.4.7-.6 1s-.5.7-.8 1.1c-.1.1-.2.3-.3.5v.1l-.2.2-.1.1h.1s.1 0 0 .1-.2.1-.4.3c-.2.2-.4.4-.6.5-.6.4-1.2.8-2 1-.5.2-1.1.3-1.7.4-.9.2-1.9.2-3 .2-1.8 0-3.6-.3-5.6-1-.2-.1-.4-.2-.7-.2-.6-.2-1.1-.5-1.7-.7-.7-.4-1.2-.7-1.7-1-.7-.4-1.3-.7-1.8-1-.1-.1-.3-.1-.4-.2l.1-.1s-.1 0-.1-.1l-.2-.3H159v-.4c.2-.3.5-.7.8-1.1 0-.1.1-.1.1-.2.3-.4.6-.7 1-1.1.2-.2.4-.4.6-.5.8-.7 1.8-1.5 3.1-2.4 2.6-1.6 4.9-2.6 6.8-3 .5-.1 1-.3 1.4-.3h.1c-.8-.3-1.6-.7-2.3-1-1.6-.7-2.9-1.2-3.9-1.6-1.6.3-3 .7-4.2 1.5-.9.7-1.7 1.3-2.5 1.8-.4.3-.8.5-1.1.7-.4.2-.7.4-1 .6-.2-.5-.3-.9-.4-1.3-.1-.4-.1-.8-.1-1.1 0-.4.2-.7.6-1.1.1-.1.3-.2.5-.4s.4-.2.6-.3c.4-.2 1-.5 1.6-.7.3-.1.6-.2 1-.3.4-.1.8-.2 1.2-.4.4-.1.8-.2 1.1-.3-5.7-2.6-10-5.1-13.1-7.5l-.3-.3-.1-.1-.1-.1c-3.4-3.5-5.6-6.3-6.6-8.4-.5-1-.7-1.8-.7-2.5v-1.9c0-.4-.1-.7-.1-.9V24h.1s.1-.1.2-.1h.2l.1-.1v-.1h-.6v.3h-.1c-1.5 0-2.8.8-4 2v.1c-.3.3-.6.6-.9 1.1-1.1 1.5-1.9 3.7-2.6 6.2 0 .1-.1.6-.1.6h.1c-.1 0-.1.1-.2.3 0 0 0 .1-.1.1l-.3 1.8c0 .2-.1.4-.1.7-.4 2.6-.6 5.3-.6 8.1v.2c.2-.2.8-.3 1.2-.3h.1c1 0 2.3.2 4 .7.6.1 1.1.3 1.8.5s1.3.2 1.9.4c1.6.6 2.4 1.6 2.4 1.6v.7c0 .3-.1.7-.3 1.3.1.2.2.4.4.6.3.4.5.9.8 1.3.2.4.4.8.6 1.1.2.4.5.9.6 1.3.1.2.2.4.2.6.2.5.4.9.5 1.3.1.2.1.5.2.9v.2c0 .2 0 .4.1.6v1.5c0 .3.1.6.1.9 0 .1.1.3.1.4 0 .4.2.8.2 1.2v.2c0 1.5-.2 3-.4 4.3-.1 1.2-.4 2.5-.6 3.4 0 .1 0 .2.1.3.1.1.3.3.6.4.5.2 1.4.4 2.5.5 0 .1.1.2.1.4.1.3-.1.6-.1.9 0 .2-.2.3-.2.5l.3.1c0 .3.2.6.2.8-.1.4-.1.7-.3 1.1 0 .1-.1.2-.1.2h2.3c1.1.1 2.6 1 4.3 1v.2c.7.1 1.5.3 2.5.6.2 0 .4.2.6.2h.2v.3c-.2.2-.3.3-.4.5-.3.5-.5 1-.8 1.4-.1.3-.2.5-.3.7-.2.4-.5.8-.7 1.1-.1.1-.2.2-.2.3-.1.2-.2.3-.3.4-1.9 2.6-3.9 4-6 4.3h-.2c0 .1.3.2.4.4.1.2.3.4.5.7.2.3.3.6.4.9.1.2.1.4.1.6 0 .4-.3.8-1 1.2-.4.2-.6.4-.8.6-.1.1-.2.3-.2.4 0 .1-.1.3-.1.5l.1 1.7v.1c1 .4 2.1.8 3.1.8h.2c.4 0 1-.2 1.7-.4 1.7-.5 4.3-1.5 7.7-3 .5-.2 1.1-.5 1.7-.8 1-.4 2-1 3-1.4zM143.1 24c0 .1 0 .1 0 0 0 .1 0 .1 0 0 0 .1 0 .1 0 0 0 .1 0 .1 0 0zM173.7 51.3c-.1 0-.3-.1-.4-.2.1.1.3.2.4.2zM173.1 51.1s-.1 0 0 0c-.1 0-.1 0 0 0z"/><path fill="#7B1515" d="M189.8 49.2l-.3-1.8c-.3-1.8-.6-3.4-.9-4.7-.2-.7-.3-1.3-.5-1.8s-.3-1-.5-1.4c-.7-1.8-3.4-3.5-8.1-5.3-.5-.2-1.1-.4-1.7-.6-5-1.7-10.4-2.9-16-3.6-3.5-.4-6.5-1-9.1-1.8-1.6-.5-3-1-4.3-1.6-.8-.5-1.6-.9-2.2-1.2-1.1-.6-1.9-1-2.5-1.2l2.2 2.2 1 1c.6.5 1.2 1.1 1.8 1.6 1.7 1.5 3.5 2.8 5.1 3.8.7.5 1.5.9 2.2 1.3 1.7.9 5.1 2.4 10 4.3 1.5.6 3.2 1.2 5.1 1.9.7.2 1.3.5 1.9.7 1.8.7 3.4 1.4 4.8 2.1.5.2.9.5 1.3.7s.8.5 1.1.7c.7.4 1.3.9 1.8 1.3.3.2.6.5.8.7.4.4.7.8 1 1.2.1.1.2.2.2.3 0 0 0 .1.1.1l.6.9c.1.2.3.5.4.8.3.5.5 1 .7 1.6.2.6.4 1.2.5 1.8.2 1.3.4 2.9.4 4.9v.1s0 .1.1.1l1.2 1.2c.1.1.1.2.2.3.3.4.6.7.9 1.1.5-.2.9-.5 1.4-.6s.8-.3 1.2-.4c-.2-1.1-.5-2.7-.9-4.8-.5-2.2-.8-4.2-1-5.9z"/><path fill="#6D1212" d="M164.8 47.6c-.2-.1-.5-.2-.7-.3-.4.1-.7.2-1.1.3-.4.1-.8.2-1.2.4-.3.1-.7.2-1 .3-.6.2-1.1.4-1.6.7l-.6.3s-.3.2-.5.4c-.4.4-.6.7-.6 1.1 0 .3 0 .7.1 1.1.1.4.2.8.4 1.3.3-.2.7-.4 1-.6.4-.2.7-.5 1.1-.7.8-.5 1.6-1.1 2.5-1.8 1.2-.7 2.6-1.2 4.2-1.5-.5-.2-.9-.4-1.3-.6-.2-.2-.5-.3-.7-.4z"/><path fill="#E9AF5A" d="M159.2 60.1h-.2l-.1.1h.1l.2-.1zM159 60.1c1-1.1 2.3-2.2 3.4-3.1.9-.7 1.8-1.2 2.8-1.6.6-.3 1.1-.5 1.7-.7 1.1-.3 2.2-.5 3.3-.5h1.1c.7 0 1.4-.2 2.1 0s1.4.1 2.1.4c.6.2 1.2.4 1.8.7.6.3 1.2.6 1.7 1 0-.2-.1-.3-.1-.4 0-.1-.1-.1-.1-.2-.1-.4-.3-.7-.4-1-.3-.5-.5-1-.9-1.3-.5-.2-1.1-.6-1.7-.8-.7-.3-1.5-.6-2.1-.8v-.2c-.1 0-.3-.1-.4-.2H173c-.4 0-.9.2-1.4.3-1.9.4-4.3 1.4-6.8 3-1.3.8-2.3 1.6-3.1 2.4-.2.2-.4.4-.6.5-.4.4-.7.8-1 1.1 0 .1-.1.1-.1.2-.3.4-.5.7-.8 1.1l-.2.1z"/><path d="M159 60.1zM179.1 56.1c-.6-.4-1.1-.7-1.7-1-.6-.3-1.2-.5-1.8-.7-.7-.2-1.4-.3-2.1-.4s-1.4 0-2.1 0h-1.1c-1.1 0-2.2.3-3.3.6-.6.2-1.2.4-1.7.7-1 .4-1.9 1-2.8 1.6-1.2.9-2.4 2-3.4 3.1H159.4l.2.3c.8-1 1.7-1.8 2.7-2.5.3-.2.7-.4 1-.6.7-.4 1.5-.8 2.2-1.2.7-.3 1.5-.6 2.3-.9s1.6-.5 2.4-.6c.4-.1.8-.1 1.2-.1 1.2 0 2.3.2 3.5.7.6.3 1.2.8 1.9 1.3l1.8 1.8.8 1.7.4 1.2c.3-.3.6-.7.8-1.1s.4-.7.6-1l-2.1-2.9z"/><path fill="#5E7A30" d="M174 57.4c0 .1 0 .3.1.4v-.5l-.1.1zM178.4 58.2l.1.4c0-.1.1-.2.1-.4-.5-.6-1.1-1.2-1.8-1.8-.6-.5-1.2-.9-1.9-1.3-1.1-.5-2.3-.7-3.5-.7-.4 0-.8 0-1.2.1l-2.4.6s-1.5.5-2.3.9v.8c0 4.7 2.6 7 7.7 7 2.6.1 4.3-1.8 5.2-5.6zm-2.8-1c0 .6-.3.9-.8.9h-.2c-.3 0-.7-.1-.7-.2v.3c0 1.8-.7 2.8-2.1 2.8-1.7 0-2.6-.8-2.6-2.2 0-.9 1-1.7 2.9-2.7h.7c.6 0 1 .3 1.1 1.1l.3-.8c1 .1 1.4.3 1.4.8z"/><path fill="#fff" d="M179 61.7V60l-.5-1.4-.1-.4c-.9 3.7-2.6 5.6-5.2 5.6-5.2 0-7.7-2.3-7.7-7l.1-.8c-.7.3-1.5.7-2.2 1.2-.4.2-.7.4-1 .7-1 .7-1.8 1.5-2.6 2.5l-.1.1c.1.1.2.1.4.2.5.2 1.1.6 1.8 1 .5.3 1.1.6 1.7 1 .6.3 1.2.5 1.7.7.2.1.4.2.7.2 2 .7 3.9 1 5.6 1 1.1 0 2.1-.1 3-.2.6-.1 1.2-.2 1.7-.4.8-.3 1.4-.6 2-1 .2-.2.4-.3.6-.5.1-.1.2-.1.4-.3 0 0-.1-.1 0-.1H179v-.4z"/><path fill="#E9AF5A" d="M151.2 91.5c0-.2 0-.3.1-.5 0-.1.1-.3.2-.4.2-.2.5-.5.8-.6.7-.3 1-.7 1-1.2 0-.1 0-.3-.1-.6-.1-.2-.2-.5-.4-.9-.1-.3-.4-.5-.5-.7-.1-.2-.4-.3-.4-.4h-.3c-.1 0-.1-.1-.2-.1-.3 0-.6 0-.9-.2-.1 0-.1-.1-.1-.1-.1 0-.2-.1-.2-.1-.3-.3-.5-.6-.7-1-.1-.1-.1-.3-.2-.5-.1-.4-.2-1-.3-1.5 0-.4 0-.8-.1-1.3 0-.7-.1-1.3-.1-1.8v-.4c-.1-.3-.1-.6-.2-.9-.2-.5-.4-.9-.6-1.2l-.3-.3h-.6c-.2 0-.5.1-.6.1.1.1.1.2.2.2h-.7v-.2s.1 0 .1-.1V76.5c0-.1.2-.3.4-.4.1-.1.2-.2.4-.3.2-.1.4-.1.6-.1h.4c.7 0 1.6 0 2.6-.6h.5c0-.1.1-.1.1-.2.1-.3.2-.7.3-1.1 0-.3-.2-.5-.2-.8l-.3-.1c0-.2.2-.4.2-.5 0-.4.1-.6 0-.9v-.4c-1.1-.1-1.9-.3-2.4-.5-.3-.1-.5-.1-.6-.2-.1-.1-.2-.3-.2-.3v-.2c.2-1 .6-2.2.7-3.4.1-1.3.4-2.8.4-4.3V62c0-.4-.2-.8-.2-1.2 0-.2-.1-.3-.1-.4 0-.3-.1-.6-.1-.9V58c0-.2 0-.4-.1-.6v-.1c0-.4-.1-.7-.2-.9-.1-.4-.3-.8-.5-1.3-.1-.2-.2-.4-.2-.6-.2-.4-.4-.8-.6-1.3-.2-.4-.4-.7-.6-1.1-.2-.4-.5-.8-.8-1.2-.1-.2-.3-.4-.4-.6v.2c-.1 0-.2-.1-.4-.2s-.4-.3-.6-.5c-.2-.2-.5-.4-.9-.7s-.7-.6-1.1-1c-.1-.1-.3-.2-.5-.4-.3-.2-.7-.4-1.1-.6-.6-.2-1.3-.4-2-.5-.5-.1-1.1-.1-1.6-.1-1 0-1.8.1-2.6.4-.1 0-.2 0-.2.1 0 .9 0 1.9.1 3 .6-.2 1.3-.2 1.9-.2.2 0 .4.2.6.2h1.2c.4 0 .7 0 1.1.1h.1c1.4.4 2.5.9 3.4 2 .5.6.9 1.2 1.3 1.9.2.4.4 1 .7 1.8.1.2.1.5.2.8 0 .2.1.5.2.8.1.6.3 1.3.4 2 0 .1.1.3.3.5v.1c-.1 0-.1.1-.2.2-.5.4-1 .8-1.4 1.2-.5.4-1.1.7-1.7.9-.6.2-1.3.3-2 .3-1.5 0-2.8-.3-3.9-1-.3-.1-.6-.3-.8-.5-.3-.2-.5-.4-.7-.6 0 .5 0 1.1-.1 1.8 0 .6-.1 1.3-.1 2.1s-.1 1.7-.2 2.7c0 .4 0 .8-.1 1.3 0 1.5.1 3 .4 4.4.3 1.4.7 2.9 1.2 4.3 1.1 2.8 2.7 5.5 4.9 8 .4.5 1 1.1 1.5 1.7l.3.3c2.3 2.3 4.4 4 6.5 5.1.7.4 1.4.7 2.1 1l-.2-1.7z"/><path fill="#6D1212" d="M133.8 47.1h.1c.1 0 .1 0 .2-.1.7-.2 1.6-.4 2.6-.4.6 0 1.1 0 1.6.1.8.1 1.4.3 2 .5.4.2.8.3 1.1.6.2.1.3.2.5.4.4.4.8.7 1.1 1s.6.5.9.7c.2.2.5.4.6.5.2.1.3.2.4.2V50.3c.1-.5.2-1 .3-1.3V48.7c0-.6-.8-1.2-2.4-1.8-.5-.2-1.2-.4-1.9-.6-.6-.2-1.2-.4-1.8-.5-1.7-.4-3-.6-4-.7-.4 0-.8.1-1.2.3-.1 0-.1.1-.2.1.1.4.1.9.1 1.6z"/><path fill="#C9841D" d="M134 50.1c-.1 0-.1 0 0 0-.1 0-.1 0 0 0v2l2-.2c2 0 2.7.1 3.3.1.1 0 .3.1.4.1.4.1.8.4 1.4.8.2.1.5.3.7.5.9.6 1.6 1.3 2.2 2.2l.6.9c-.1-.3-.1-.5-.2-.8-.2-.7-.4-1.3-.7-1.8-.4-.7-.8-1.4-1.3-1.9-.9-1.1-2.1-1.6-3.4-2h-.1c-.3-.1-.7-.1-1.1-.1h-1.2c-.2 0-.4-.2-.6-.2-.6.2-1.3.2-2 .4 0 .1 0 0 0 0z"/><path d="M136.9 53.1s.1 0 0 0c1.5 0 2.7.4 3.9 1.1l.9.6c.8.7 1.6 1.5 2.4 2.6 0 0-.2.1-.1.2v.4c1 .3.7.8 1.1 1.4-.1-.7-.2-1.4-.3-2-.1-.3-.1-.6-.2-.8-.2-.3-.3-.7-.5-1-.6-.9-1.4-1.6-2.2-2.2-.3-.2-.5-.3-.7-.5-.6-.4-1-.6-1.4-.8-.2-.1-.3-.1-.4-.1-.5 0-1.3-.1-3.3-.1l-2 .2V52h-.1c.1 0 .1.1.1.1-1 0-1 .2-2 .4v1.6c1-.3 1.2-.7 2.2-.9.6 0 1.5-.1 2.6-.1z"/><path fill="#5E7A30" d="M135.3 58.9c.1.1.1.2.2.3l.5.5c.3.2.7.4 1 .7.2.1.3.2.5.2.4.2.8.3 1.1.4.5.2 1 .2 1.5.2s1 0 1.4-.1c.4-.1.8-.3 1.2-.5s.6-.6.8-1c.3-.4.4-.8.4-1.3v-.4c-.1-.1 0-.2 0-.2-.7-1-1.5-1.9-2.3-2.6-.3-.2-.5-.5-.8-.7-1.2-.7-2.4-1.1-3.8-1.1h-.1c-1 0-1.8.1-2.5.2 0 .8.2 1.8.4 2.8 0 .3.2.6.2 1v.9c0 .2.1.4.3.7 0-.1 0 0 0 0zm1.4-3.9c.1-.3.4-.5.9-.5l.3.3c.1 0 .1-.1.2-.1 0 0 .2.4.5.4h.4c1.7.1 2.6.8 2.6 2 0 1.1-.6 1.7-1.9 1.7-.5 0-.8-.1-1.1-.2-.6-.2-.9-.7-.9-1.4 0-.5.1-1 .4-1.4h-.2c-.1.1-.2.2-.3.2-.6-.1-.9-.4-.9-1z"/><path fill="#fff" d="M136.3 61.6c1.1.6 2.4 1 3.9 1 .7 0 1.4-.1 2-.3.6-.2 1.2-.5 1.7-.9.4-.3.9-.7 1.4-1.2 0-.3-.2-.5-.3-.8h-.1c-.3-.6-.1-1-1.1-1.4 0 .5-.2 1-.4 1.3-.3.4-.5.7-.8 1s-.7.4-1.2.5c-.4.1-.9.1-1.4.1-.5 0-1 0-1.5-.2-.4-.1-.7-.2-1.1-.4l-.6-.3-.9-.6c-.2-.1-.4-.3-.5-.5-.1-.1-.2-.2-.2-.3-.1-.1-.2-.3-.3-.4-.1-.1-.1-.2-.2-.3 0 .6 0 1.5-.1 2.3l.7.7c.4.4.7.6 1 .7z"/><path fill="#7B1515" d="M140.8 85c-2.2-2.6-3.8-5.2-4.9-8-.5-1.4-1-2.8-1.2-4.3-.3-1.4-.4-2.9-.4-4.4 0-.4 0-.8.1-1.3 0-.9.1-1.8.2-2.7-1.2 2-1.8 3.8-1.8 5.4 0 .1.1.5.2 1.1 0 .2.1.4.1.7.1.7.3 1.6.6 2.7.3 1.4.5 2.6.7 3.8.1 1.1.2 2.2.2 3.1 0 1.1 0 1.9-.2 2.5 0 .1 0 .2-.1.3-.2.4-.5.8-.9 1-.2.1-.3.2-.5.3-.3.1-.6.2-1 .3-.4.1-.8.1-1.2.1-.8 0-1.5-.1-2.3-.4-.7-.3-1.4-.7-2.1-1.2-1.1-1.1-1.8-1.6-2-1.6h-.3c.9 1.6 1.8 3.3 2.9 5.2 1.4 1.5 3.9 2.3 7.6 2.3 1.4 0 3-.3 4.7-1 1.1-.4 2.3-1.1 3.6-1.9l-.3-.3c-.7-.6-1.3-1.2-1.7-1.7zM197.3 88.2c-.4-.1-.7-.2-1.1-.3-1-.3-2-.5-2.8-.8-.6-.2-1.1-.4-1.5-.5s-.9-.4-1.3-.6c-.2-.1-.5-.2-.7-.3-.6-.3-1-.7-1.3-1-.9-1.1-1.4-3.7-1.4-7.9 0-.4 0-.7.1-1 0-.7.1-1.3.1-1.8 0-.6.1-1 .1-1.5s0-.8.1-1.2v-.5c-.5.8-1 1.8-1.5 2.9s-1.1 2.3-1.7 3.6l-.6 1.2c-.8 1.6-1.7 3-2.8 4.2-.5.6-1.1 1.1-1.7 1.6-.3.2-.6.5-.9.7-.1 0-.1 0-.2.1-.1 0-.1 0-.2.1-.2.1-.5.2-.8.3l-.9.3c.9.5 2.3 1.4 4.1 2.5.8.4 1.7.8 2.6 1.2.3.1.6.2 1 .4 3.1 1.2 6.1 1.8 8.8 1.8 4 0 7.7-.8 11-2.4-.7-.1-1.4-.1-2.1-.2-1.7-.3-3.2-.6-4.4-.9z"/><path fill="#D70F0F" d="M146.1 76.8s0 .1 0 0v.3h.3c-.1 0-.1-.2-.3-.3.1 0 0 0 0 0zM151 75.1h-.4c-1.1.6-1.9.6-2.6.6h-.4c-.2 0-.5 0-.6.1-.1 0-.3.2-.4.3-.2.1-.3.3-.4.4V76.8H147.6l-.1-.1h1c2.5.1 6.1.4 10.9.4h.7v.2s0 .1-.1.2 0 .1-.1.1c-.2.1-.3.3-.5.5-.3.3-.5.6-.8.8-.7.8-1.4 1.5-2 2.1-1 1-2 1.7-2.8 2.2s-1.5.7-2 .7c-.3 0-.6-.1-.9-.2-.8-.2-1.5-.6-1.9-1.1.1.6.2 1.1.3 1.5.1.2.1.3.2.5.2.4.4.8.7 1 .1.1.1.1.2.1s.1.1.2.1c.3.1.6.2.9.2.1 0 .1.1.2.1H152c2-.2 4.3-1.7 6.1-4.3.1-.1.2-.3.3-.4.1-.1.2-.2.2-.3.2-.3.4-.7.7-1.1.1-.2.3-.5.4-.7.2-.4.5-.9.8-1.4.1-.2.2-.3.3-.5-.2 0-.4-.1-.6-.2-1-.3-1.8-.7-2.5-.8v-.2c-1.7 0-3.1-.9-4.3-1h-1c-.6-.1-.9-.1-1.4-.1z"/><path fill="#fff" d="M148.4 78.3c.1.3.2.5.2.9.4.4 1 .7 1.7.9.7.2 1.5.3 2.4.3.3 0 .9-.1 1.7-.4.8-.2 1.8-.6 3.1-1.1.3-.1.6-.3.9-.4.3-.1.6-.3.9-.4.1-.2.3-.4.5-.5 0 0 0-.1.1-.1s0-.1.1-.2v-.2h-.7c-4.8 0-8.4-.3-10.9-.4h-1l.1.1.3.3c.2.2.4.7.6 1.2z"/><path d="M148.8 81.3c0 .4 0 .9.1 1.3.4.6 1 .9 1.9 1.1.3.1.6.1.9.2.5 0 1.2-.2 2-.7s1.7-1.2 2.8-2.2c.6-.6 1.3-1.3 2-2.1.2-.3.5-.5.8-.8-.3.1-.6.2-.9.4-.3.1-.6.3-.9.4-1.3.5-2.3.8-3.1 1.1-.8.2-1.4.4-1.7.4-.9 0-1.7-.1-2.4-.3-.7-.2-1.2-.5-1.7-.9v.4c.1.4.2 1 .2 1.7z"/><path fill="#fff" d="M189.1 70.1c.6 0 1-.1 1.5-.4.1-.1.3-.2.4-.3.5-.4.7-1 .7-1.7v-.5l-.1-.1h-.1c-.4-.4-1-.7-1.6-.7-.6 0-1.2.2-1.7.7s-.7 1-.7 1.7c0 .4.1.7.2 1 .1.1.3.1.4.2.3 0 .6.1 1 .1z"/><path fill="#D9D9D9" d="M189.9 71.1c.6 0 1.2-.2 1.7-.7.4-.4.7-1 .7-1.7 0-.6-.2-1.1-.6-1.6v.5c0 .7-.2 1.3-.7 1.7-.1.1-.3.2-.4.3-.4.3-.9.4-1.5.4-.4 0-.7-.1-1-.2-.1-.1-.3-.1-.4-.2.1.1.1.3.2.4.1.1.1.2.2.2.5.6 1.1.9 1.8.9z"/><path fill="#fff" d="M137.5 55.9c.1 0 .2-.1.3-.2l.5-.5-.4-.4-.3-.3c-.4 0-.7.1-.9.5 0 .6.3.9.8.9z"/><path d="M138.3 55.8c-.3.4-.5.9-.5 1.4 0 .7.3 1.1.8 1.4.3.1.7.2 1.1.2 1.3 0 1.9-.6 1.9-1.7 0-1.2-.9-1.9-2.6-2v.2c-1 .1-.6.3-.7.5zM139 55.1h-.2.2z"/><path fill="#fff" d="M174.4 56.5l-.3.8v.5c.1.1.3.2.5.2h.2c.5 0 .8-.3.8-.9 0-.4-.4-.6-1.2-.6z"/><path d="M174 57.3c-.1-.7-.5-1.2-1.1-1.2h-.7c-1.9 1-2.9 1.8-2.9 2.7 0 1.3.8 2.2 2.6 2.2 1.4 0 2.1-.9 2.1-2.8V57.3z"/><path fill="#BA7A1B" d="M70.5 77.6l2.5 3.1 2.3 2.8 1 1.2 1.7 2 2.3 2.9 1.7 2.1 13.8 17 1.1 1.4 3.1-3.5-13.1-15.4-6.5-7.5c-1.1-.5-2.1-1.1-3-1.8-.4-.3-.7-.5-1-.8-.4-.4-.8-.8-1.1-1.2-.2-.3-.4-.5-.6-.8-.4-.8-.5-1.5-.2-2.3L15.3 8.1l-.6.7 52 64 .4.5 2.9 3.6.5.7z"/><path fill="#F1CC96" d="M74.7 79.1c.1.3.3.5.6.8.3.4.7.8 1.1 1.2.2.2.6.5 1 .8.9.7 1.9 1.3 3 1.8l6.5 7.5c-.5-4.8-.8-7.9-.8-9.2-.9-.1-1.8-.3-2.7-.6h-.1c-1-.3-1.9-.7-2.9-1.2-.5-.3-1.3-.7-1.8-1.1-.4-.3-.6-.6-1.4-.7l-.1.6h-.2c-.2 0-.2 0-.4-.1-.1 0-.2-.1-.4-.2-.1 0-.1-.1-.2-.1h-.1c-.1-.1-.2-.1-.3-.2-.2-.2-.3-.5-.3-.8l.2-.9.1.1v-.1l-.8-.2c-.1.2-.2.3-.2.5-.3.6-.2 1.3.2 2.1z"/><path fill="#DD3422" d="M75.5 76.5zM75.2 77.5c.1.4.2.6.3.8.1.1.2.2.3.2h.1c.1 0 .2.1.2.1.1.1.3.1.4.2h.5l.1-.7V78H77v.1c0-.2-.2-.4-.4-.5-.4-.4-.7-.7-1.1-1l-.1-.1-.2 1z"/><path fill="#C18702" d="M170.2 107.4c-1.3-1.7-2.2-3.5-2.9-5.2l-.3-.9c0-.1-.1-.2-.2-.3-.5.5-.5 1.2-.2 2.1.4 1.1 1.1 2.2 2 3.2.3.4.6.7.9 1.1h.4c.2-.1.2 0 .3 0zM179.5 98.6h-.4s-.1 0-.1.1-.1.2-.1.3c0 .9-.2 1.8-.7 2.6-.5.7-1.3 1.4-2.5 2-1.2.5-2.9 1.8-5.2 3.7.2 0 .4.1.5.2v-.1c1.1-1.1 2.4-2 3.8-2.6 1.4-.7 2.6-1.7 3.7-2.9.5-.6.9-1.3 1.1-2.1.1-.2.1-.4 0-.6.1-.2 0-.4-.1-.6z"/><path fill="#97D8E8" d="M171.4 109c-.1.4-.3.8-.6 1.1l-.3.3c-.4.2-.8.4-1.3.4s-1-.1-1.3-.4c.1.3.2.5.5.8.4.4.9.6 1.6.6.6 0 1.1-.2 1.6-.6.4-.4.6-.9.6-1.6 0-.6-.2-1.1-.6-1.6l-.2-.2c0 .2.1.5.1.8 0 .1 0 .3-.1.4z"/><path fill="#fff" d="M170.2 107.4H169.6c-.5.1-.8.3-1.2.6-.4.4-.6.9-.6 1.6 0 .3 0 .5.1.8.3.3.8.4 1.3.4s.9-.1 1.3-.4l.3-.3c.3-.3.5-.7.6-1.1v-.5c0-.3 0-.5-.1-.8-.1-.1-.3-.2-.4-.2-.2-.1-.4-.1-.5-.2-.1.1-.1.1-.2.1z"/><path fill="#F1CC96" d="M190.8 222.3c0-.1.2-.3.3-.4.9-1.7 2-3.6 3.2-5.8.7-1.5 1.3-3.1 1.9-4.6.1-.2.2-.4.3-.7.6-1.4 1.2-2.9 1.7-4.3.3-.7.5-1.4.8-2 .2-.7.5-1.4.7-2l.3-.9.3-.9c.5-1.5 1-2.9 1.4-4.4.5-1.8 1.1-3.6 1.6-5.4.3-1.3.5-2.6.7-3.9v-.1c0-.3 0-.7.1-1v-1c-.1-1.2-.2-2.4-.2-3.6v-7.6c0-1.3-.1-2.7-.2-4-.1-1.2-.2-2.4-.3-3.7-.1-1.1-.3-2.2-.4-3.3-.1-1.8-.4-3.6-.6-5.4-.1-.6 0-1.2 0-1.8v-.6c-.1-.4-.2-.8-.5-1.2l-7 1.4v.1c.6 8.3 1.2 15.7 1.8 22.4.2 2.9.4 5.3.6 7.1v2.4c0 2.6-.4 5.3-1.2 8.1-.2.8-.4 1.5-.7 2.3-.5 1.4-1.4 3.7-2.8 6.8-.5 1-.9 2.1-1.5 3.3-.1.3-.2.6-.4.9-.1.5-.3 1-.5 1.5-.1.2-.1.4-.2.6-.8 3.1-2.3 7.9-4.3 14.6v.6c0 1.1-.4 4.5-.8 10.5h.1v.2c0 1.5.4 3.1.7 4.7.1.6.4 1.3.5 2 .1.2.4 1.1.6 2.4.2 1.3.6 2.7.9 2.7h.6c-.6-3-.9-5.5-1-6.8.4.9 1.5 2.8 3.1 6.8h1.6v-.7c-1-2.2-2-4.5-3-6.9v-1.3c0 .2.7 1.8 1.8 4.4 1 2.6 1.5 3.5 1.6 4.5h.8c.1-1 .1-.9.1-1.7-.9-5-1.4-7.7-1.4-7.8v-.7c1 .4 1.7 2.3 2.8 5.4l.4-.1-4.3-21.1z"/><path fill="#EAB462" d="M205 153l-3 .5s0 .1.1.1c.3.4.4.8.5 1.2v.6c0 .6-.1 1.2 0 1.8.2 1.8.5 3.6.6 5.4.1 1.1.3 2.2.4 3.3.1 1.2.2 2.4.3 3.7.1 1.3.2 2.7.2 4v7.6c0 1.1.1 2.3.2 3.6v1c0 .3 0 .7-.1 1v.1c-.1 1.3-.3 2.6-.7 3.9-.5 1.8-1 3.6-1.6 5.4-.5 1.5-.9 2.9-1.4 4.4l-.3.9-.3.9c-.2.7-.5 1.4-.7 2-.2.7-.5 1.4-.8 2-.5 1.4-1.1 2.9-1.7 4.3-.1.2-.2.4-.3.7-.6 1.6-1.2 3.1-1.9 4.6.8-1.3 1.5-2.6 2.2-3.9.1-.1.2-.3.2-.4.6-1.1 1.3-2.3 1.9-3.6.6-1.3 1.3-2.6 1.8-3.9 0 0 0-.1.1-.1.7-1.4 1.3-2.9 2-4.4.5-1.1 1-2.2 1.5-3.4.7-1.7 1.4-3.4 2-5.1.4-1.2.8-2.4 1.1-3.7.1-.6.1-1.2.1-1.8-.1-1.3-.2-2.8-.2-4.2 0-1.2-.1-2.5-.2-3.8l-.3-4.5c-.1-1.8-.3-3.6-.4-5.3 0-1-.1-2-.2-3 0-1-.1-2-.2-3.1s-.2-2.2-.2-3.3c-.1-1.8-.3-3.5-.4-5.2-.3-.2-.3-.2-.3-.3z"/></svg>