<?xml version="1.0" encoding="utf-8"?>
<!-- Generator: Adobe Illustrator 18.1.1, SVG Export Plug-In . SVG Version: 6.00 Build 0)  -->
<svg version="1.1" id="Layer_1" xmlns="http://www.w3.org/2000/svg" xmlns:xlink="http://www.w3.org/1999/xlink" x="0px" y="0px"
	 viewBox="0 0 230.4 257.8" enable-background="new 0 0 230.4 257.8" xml:space="preserve">
<g>
	<path fill="none" d="M134.3,83.6c0,0.1,0,0.2-0.1,0.3C134.2,83.8,134.2,83.7,134.3,83.6z"/>
	<path fill="none" d="M134,50.1C134,50.1,134,50.1,134,50.1C134,50.1,134,50.1,134,50.1C134,50.1,134,50.2,134,50.1
		c0.7-0.2,1.4-0.2,2-0.2c-0.6,0.1-1.2,0-1.9,0.2c-0.1-1.1-0.1-2.1-0.1-3C134,48,133.9,48.9,134,50.1z"/>
	<path fill="none" d="M141.8,53.5c-0.3-0.2-0.5-0.3-0.7-0.5C141.3,53.1,141.5,53.3,141.8,53.5c0.8,0.6,1.6,1.3,2.2,2.2
		c0.2,0.3,0.4,0.6,0.5,1c0,0.2,0.1,0.5,0.2,0.8c0.1,0.6,0.2,1.3,0.3,2c0,0,0.1,0,0.1,0c0,0.2,0.2,0.5,0.3,0.8
		c-0.5,0.4-1,0.8-1.4,1.2c-0.5,0.4-1.1,0.7-1.7,0.9c-0.6,0.2-1.3,0.3-2,0.3c-1.5,0-2.8-0.4-3.9-1c-0.3-0.1-0.6-0.4-0.8-0.6
		c-0.3-0.2-0.5-0.5-0.7-0.7c0,0,0,0,0,0c0.2,0.2,0.4,0.4,0.7,0.6c0.2,0.2,0.5,0.4,0.8,0.5c1.1,0.6,2.4,1,3.9,1c0.7,0,1.4-0.1,2-0.3
		c0.6-0.2,1.2-0.5,1.7-0.9c0.4-0.3,0.9-0.7,1.4-1.2c0-0.1,0.1-0.1,0.2-0.2c0,0,0,0,0-0.1l0,0c-0.1-0.1-0.2-0.3-0.3-0.5
		c-0.1-0.7-0.3-1.4-0.4-2c-0.1-0.3-0.2-0.6-0.2-0.8c0,0,0,0,0,0c-0.2-0.3-0.4-0.6-0.6-0.9C143.4,54.7,142.6,54,141.8,53.5z"/>
	<path fill="none" d="M139,50.1C139,50.1,138.9,50.1,139,50.1c-0.4-0.1-0.8-0.1-1.2-0.1C138.2,50,138.6,50,139,50.1
		C138.9,50.1,139,50.1,139,50.1z"/>
	<path fill="none" d="M134,47C134,47,134,47,134,47L134,47c0,0,0.1,0,0.2-0.1c0.7-0.2,1.5-0.4,2.6-0.4c-1,0-1.9,0.1-2.6,0.4
		C134.1,47,134,47,134,47z"/>
	<path fill="none" d="M145,50.3c0,0,0,0.1,0,0.1c-0.1,0-0.2-0.1-0.4-0.2c0.2,0.1,0.3,0.2,0.4,0.2C145,50.4,145,50.4,145,50.3
		c0,0,0-0.1,0-0.1c0.1,0.2,0.3,0.4,0.4,0.6c0.3,0.4,0.5,0.8,0.8,1.2c0.2,0.4,0.4,0.8,0.6,1.1c0.2,0.4,0.5,0.9,0.6,1.3
		c0.1,0.2,0.2,0.4,0.2,0.6c0.2,0.5,0.4,0.9,0.5,1.3c0.1,0.2,0.1,0.5,0.2,0.9c0,0,0,0,0,0c0,0,0,0,0-0.1c0-0.4-0.1-0.6-0.2-0.9
		c-0.1-0.4-0.3-0.8-0.5-1.3c-0.1-0.2-0.2-0.4-0.2-0.6c-0.2-0.4-0.4-0.8-0.6-1.3c-0.2-0.4-0.4-0.7-0.6-1.1c-0.2-0.4-0.5-0.8-0.8-1.3
		c-0.1-0.2-0.2-0.4-0.4-0.6c0,0,0,0,0,0.1C145.1,50.2,145,50.3,145,50.3z"/>
	<path fill="none" d="M134.4,53.3c0.7-0.1,1.5-0.2,2.5-0.2c0,0,0,0,0,0c-1,0-2,0.1-2.7,0.2c-1,0.1-1.2,0.5-2.2,0.9
		c1-0.3,1.2-0.6,2.3-0.8c0,0.8,0.4,1.8,0.5,2.8c0,0.3,0.2,0.6,0.2,0.9c0-0.3-0.1-0.7-0.2-1C134.6,55.2,134.4,54.2,134.4,53.3z"/>
	<path fill="none" d="M132.9,70.9c-0.1-0.6-0.2-1-0.2-1.1c0-1.6,0.6-3.4,1.8-5.4c-1.2,2-1.8,3.8-1.8,5.4
		C132.7,69.9,132.7,70.2,132.9,70.9z"/>
	<path fill="none" d="M136,59.6c0.3,0.2,0.6,0.4,0.9,0.6c0.2,0.1,0.4,0.2,0.6,0.3c-0.2-0.1-0.3-0.1-0.5-0.2
		C136.7,60,136.3,59.8,136,59.6z"/>
	<path fill="none" d="M137.6,54.5c0,0,0.1,0.1,0.3,0.3c0.1,0.1,0.3,0.3,0.4,0.4c-0.2,0.2-0.4,0.4-0.5,0.5c0.1,0,0.1,0,0.2,0
		c-0.3,0.4-0.4,0.9-0.4,1.4c0,0.7,0.3,1.2,0.9,1.4c-0.6-0.2-0.8-0.7-0.8-1.4c0-0.5,0.3-1,0.5-1.4c0.1-0.2-0.3-0.4,0.7-0.6v-0.2
		c-0.1,0-0.1,0-0.2,0c0,0-0.1,0-0.2,0c-0.3,0-0.5-0.4-0.5-0.4c-0.1,0-0.2,0.1-0.2,0.1C137.7,54.6,137.6,54.5,137.6,54.5
		c-0.4,0-0.7,0.1-0.9,0.5c0,0,0,0,0,0C136.8,54.7,137.1,54.5,137.6,54.5z"/>
	<path fill="none" d="M128.3,85.2c0.7,0.3,1.5,0.4,2.3,0.4c0.4,0,0.9,0,1.2-0.1c-0.4,0.1-0.8,0.1-1.2,0.1
		C129.8,85.6,129,85.5,128.3,85.2z"/>
	<path fill="none" d="M141.1,46.1c0.7,0.2,1.3,0.4,1.9,0.6c1.6,0.6,2.4,1.3,2.4,1.8v0c0,0,0,0.1,0,0.1c0,0.1,0,0.2,0-0.5h0
		c0,0-0.8-1-2.4-1.6C142.4,46.3,141.8,46.3,141.1,46.1c-0.6-0.2-1.2-0.4-1.8-0.5c-1.7-0.4-3-0.7-4-0.7c0,0,0,0-0.1,0
		c1,0,2.3,0.2,4,0.7C139.8,45.7,140.4,45.9,141.1,46.1z"/>
	<path fill="none" d="M144,57.4c-0.7-1-1.5-1.9-2.4-2.6c-0.3-0.2-0.6-0.5-0.9-0.6c-1.2-0.7-2.4-1.1-3.8-1.1c1.4,0,2.6,0.4,3.8,1.1
		c0.3,0.2,0.6,0.5,0.8,0.7c0.8,0.7,1.6,1.5,2.3,2.6c0,0,0,0.1,0,0.2c0,0.1,0,0.1,0,0.2c0-0.1,0-0.1,0-0.2
		C143.9,57.6,144.1,57.5,144,57.4z"/>
	<path fill="none" d="M135,58.1c0,0.1,0,0.2,0,0.3c0.1,0.2,0.2,0.3,0.3,0.4C135.1,58.6,135,58.4,135,58.1z"/>
	<path fill="none" d="M179.8,61.2l-0.4-1.2l-0.8-1.7c-0.5-0.6-1.1-1.2-1.8-1.8c-0.6-0.5-1.2-1-1.9-1.3c-1.1-0.5-2.3-0.7-3.5-0.7
		c-0.4,0-0.8,0-1.2,0.1c-0.8,0.2-1.6,0.4-2.4,0.6s-1.5,0.5-2.3,0.9c-0.7,0.3-1.5,0.7-2.2,1.2c-0.4,0.2-0.7,0.4-1,0.6
		c-1,0.7-1.9,1.5-2.7,2.5c0,0,0.1,0,0.1,0.1c0.8-1,1.6-1.8,2.6-2.5c0.3-0.2,0.7-0.5,1-0.7c0.7-0.4,1.5-0.8,2.2-1.2l-0.1,0.8
		c0,4.7,2.5,7,7.7,7c0,0,0,0,0,0c-5.1,0-7.7-2.4-7.7-7l0-0.8v0c0.7-0.3,1.5-0.6,2.3-0.9s1.6-0.5,2.4-0.6c0.4-0.1,0.8-0.1,1.2-0.1
		c1.2,0,2.3,0.2,3.5,0.7c0.6,0.3,1.2,0.7,1.9,1.3c0.6,0.6,1.2,1.2,1.8,1.8c0,0.1-0.1,0.2-0.1,0.4L179,60c0,0.5,0,1.1,0,1.7
		c0,0,0,0.4,0,0.4h0.2c0,0,0,0,0.1-0.1c0,0,0.1-0.1,0.2-0.2c0,0,0,0,0,0c0,0,0,0,0-0.1C179.6,61.5,179.7,61.3,179.8,61.2
		c0.3-0.3,0.6-0.7,0.8-1.1s0.4-0.7,0.6-1v0c-0.2,0.3-0.4,0.7-0.6,1S180.1,60.8,179.8,61.2z"/>
	<path fill="none" d="M134,45.1c0-2.8,0.2-5.5,0.6-8.1c0-0.2,0.1-0.4,0.1-0.7c0,0.2-0.1,0.4-0.1,0.6C134.1,39.6,134,42.3,134,45.1z"
		/>
	<path fill="none" d="M174.4,56.5l-0.3,0.8c-0.1-0.7-0.5-1.1-1.1-1.1c-0.1,0-0.3,0-0.5,0c0.2,0,0.3,0,0.5,0c0.6,0,1,0.4,1.1,1.2
		l-0.1,0.1c0,0.1,0,0.3,0,0.4c0,0.1,0.4,0.2,0.7,0.2c-0.2,0-0.4-0.1-0.5-0.2c0-0.1-0.1-0.2-0.1-0.4l0-0.1L174.4,56.5
		c0.8,0,1.2,0.3,1.2,0.7c0,0,0,0,0,0C175.6,56.7,175.2,56.5,174.4,56.5z"/>
	<path fill="none" d="M159.2,60.1c0.1,0,0.1,0,0.1,0L159.2,60.1C159.2,60.1,159.2,60.1,159.2,60.1z"/>
	<path fill="none" d="M186.1,53.3c-0.1-0.6-0.3-1.2-0.5-1.8C185.8,52,185.9,52.6,186.1,53.3z"/>
	<path fill="none" d="M185.6,51.4c-0.2-0.5-0.4-1.1-0.7-1.6C185.1,50.4,185.4,50.9,185.6,51.4z"/>
	<path fill="none" d="M175.9,52.3c-0.7-0.3-1.5-0.6-2.1-0.8v0C174.4,51.7,175.1,52,175.9,52.3c0.6,0.3,1.2,0.6,1.7,0.8
		c0.3,0.4,0.6,0.8,0.9,1.3c0.2,0.3,0.3,0.6,0.4,1c0,0.1,0,0.1,0.1,0.2c0,0.1,0.1,0.3,0.1,0.4c0,0,0,0,0,0c0,0,0,0,0,0
		c0-0.2-0.1-0.3-0.1-0.4c0-0.1-0.1-0.1-0.1-0.2c-0.1-0.4-0.3-0.7-0.4-1c-0.3-0.5-0.5-1-0.9-1.3l0,0
		C177.1,52.9,176.5,52.6,175.9,52.3z"/>
	<path fill="none" d="M143.2,24.2c0,0,0.1-0.1,0.1-0.1c0,0,0,0,0,0c0,0,0,0,0,0c0,0,0.1-0.1,0.1-0.1s0.1,0,0.1-0.1c0,0,0,0-0.1,0
		c0,0,0,0,0,0c0,0,0,0,0,0c0,0-0.1,0.1-0.1,0.1c0,0-0.1,0-0.1,0c0,0-0.1,0-0.1,0C143.3,24.1,143.2,24.2,143.2,24.2
		C143.1,24.2,143.1,24.2,143.2,24.2c-0.1,0-0.2,0-0.2,0C143,24.2,143.1,24.2,143.2,24.2C143.1,24.2,143.2,24.2,143.2,24.2z"/>
	<path fill="none" d="M135.3,33.3c0,0.1-0.1,0.3-0.1,0.5c0,0.1,0,0.3-0.1,0.5c0.1-0.1,0.1-0.3,0.2-0.3h-0.1c0,0,0.1-0.5,0.1-0.6
		c0.7-2.6,1.5-4.7,2.6-6.2c0.3-0.4,0.6-0.7,0.9-1.1c-0.3,0.3-0.6,0.6-0.9,1C136.8,28.7,136,30.7,135.3,33.3z"/>
	<path fill="none" d="M164,47.3c-0.4,0.1-0.7,0.2-1.1,0.3C163.3,47.4,163.6,47.3,164,47.3L164,47.3z"/>
	<path fill="none" d="M172.9,51.1c-0.5,0-0.9,0.2-1.4,0.3C172,51.3,172.4,51.1,172.9,51.1C172.9,51.1,172.9,51.1,172.9,51.1z"/>
	<path fill="none" d="M167,54.6c-0.6,0.2-1.1,0.4-1.7,0.7c-1,0.4-1.9,1-2.8,1.6c-1.2,0.9-2.4,2-3.4,3.1c1-1.1,2.3-2.2,3.4-3.1
		c0.9-0.7,1.8-1.2,2.8-1.6C165.9,55.1,166.5,54.9,167,54.6c1.1-0.3,2.3-0.5,3.4-0.5c0,0,0,0,0,0C169.2,54.1,168.1,54.3,167,54.6z"/>
	<path fill="none" d="M158.5,49.2c0.2-0.1,0.4-0.2,0.6-0.3C158.9,49,158.7,49.1,158.5,49.2c-0.2,0.1-0.3,0.2-0.5,0.4
		c-0.4,0.4-0.6,0.7-0.6,1.1c0,0,0,0,0,0c0-0.4,0.2-0.7,0.6-1.1C158.2,49.5,158.4,49.4,158.5,49.2z"/>
	<path fill="none" d="M181.8,45.9c-0.5-0.4-1.1-0.9-1.8-1.3C180.7,45,181.3,45.4,181.8,45.9z"/>
	<polygon fill="none" points="179.8,99.2 183.9,101.1 179.8,99.2 	"/>
	<path fill="none" d="M163.5,118.9c-0.4-1.3-0.7-2.6-1-3.7c-0.3-1.2-0.7-2.2-0.9-3.2c0,0,0,0,0,0c-0.2-1.3-0.6-2.5-0.6-3.6
		c0,1,0.3,2.2,0.6,3.6c0,0,0,0,0,0c0.2,1,0.6,2.1,0.9,3.2C162.8,116.4,163.1,117.6,163.5,118.9c0.1,0.5,0.3,1.1,0.5,1.7l1.8,4.8l0,0
		l0,0l0,0l0,0l0,0l0,0l0,0l0,0l0,0l0,0l0,0l0,0l0,0l0,0l0,0l0,0.1l0,0.1l0,0.1l0,0.1l-2.2-5.7C163.9,120.1,163.7,119.5,163.5,118.9z
		"/>
	<path fill="none" d="M198.2,206.4c-0.5,1.4-1.1,2.9-1.7,4.3c-0.1,0.2-0.2,0.4-0.3,0.7c-0.6,1.6-1.2,3.1-1.9,4.6
		c-1.2,2.1-2.3,4.1-3.2,5.8c-0.1,0.1-0.2,0.3-0.3,0.4l4.3,20.9l-0.4,0.1l0.4-0.1l-4.3-20.9c0-0.1,0.1-0.3,0.2-0.4
		c0.9-1.7,2-3.6,3.2-5.8c0.7-1.5,1.3-3.1,1.9-4.6c0.1-0.2,0.2-0.4,0.3-0.7C197.1,209.3,197.7,207.9,198.2,206.4z"/>
	<path fill="none" d="M154,120.3c0.1-0.2,0.1-0.5,0.1-0.8C154.1,119.8,154,120.1,154,120.3z"/>
	<path fill="none" d="M189.1,119.5c-0.1-0.1-0.4-0.3-0.6-0.4c-0.1-0.1-0.3-0.2-0.3-0.2l-2.7-3.3l0,0l0,0c-3.1,1.3-6,3.1-8.9,5.1
		c-1.1,0.8-2.3,1.6-3.4,2.3l-1,0.7c-0.7,0.5-1.4,1-1.9,1.4c-0.8,0.6-1.5,1.1-1.9,1.4c-0.3,0.2-0.5,0.4-0.6,0.5
		c-0.1,0.1-0.1,0.1-0.1,0.1c-0.1,0.2-0.3,0.4-0.5,0.5l0,0c0.2-0.1,0.4-0.2,0.5-0.5c0,0,0.1-0.1,0.1-0.1c0.1-0.1,0.3-0.3,0.6-0.5
		c0.4-0.4,1.1-0.8,1.9-1.4c0.6-0.4,1.2-0.9,1.9-1.4l1.1-0.7c1.1-0.7,2.3-1.5,3.5-2.3c2.8-2,5.8-3.8,8.9-5.1l2.7,3.3
		c0.1,0.1,0.2,0.2,0.3,0.2c0.2,0.1,0.3,0.3,0.5,0.4c0.8,0.7,1.7,1.5,2.7,2.5c0-0.1-0.1-0.2-0.1-0.3
		C190.7,120.9,189.8,120.2,189.1,119.5z"/>
	<path fill="none" d="M147.9,70.1L147.9,70.1c0,0,0.1,0.1,0.2,0.3c0.1,0.1,0.3,0.1,0.6,0.2c0.5,0.2,1.3,0.4,2.4,0.5
		c0,0.1,0,0.2,0,0.4c0.1,0.3,0,0.6,0,0.9c0,0.2-0.2,0.3-0.2,0.5c0-0.2,0.2-0.4,0.2-0.5c0-0.4,0.2-0.6,0.1-0.9c0-0.1-0.1-0.2-0.1-0.4
		c-1.1-0.1-1.9-0.3-2.5-0.5c-0.3-0.1-0.5-0.2-0.6-0.4c-0.1-0.1-0.1-0.2-0.1-0.3c0.2-1,0.5-2.2,0.6-3.4c-0.1,1.2-0.5,2.5-0.7,3.4
		C147.9,70,147.9,70,147.9,70.1z"/>
	<path fill="none" d="M191.7,121.7c0.1,0.1,0.2,0.2,0.3,0.3C191.9,121.9,191.8,121.8,191.7,121.7c-0.3-0.9-0.5-2-0.6-3.2
		c0-0.1,0-0.1,0-0.2c0,0.1,0,0.1,0,0.2C191.2,119.7,191.4,120.8,191.7,121.7z"/>
	<path fill="none" d="M199.7,202.4c0.1-0.3,0.2-0.6,0.3-0.9c0.1-0.3,0.2-0.6,0.3-0.9c-0.1,0.3-0.2,0.6-0.3,0.9
		C199.9,201.8,199.8,202.1,199.7,202.4z"/>
	<path fill="none" d="M204.4,251.2c-0.8-6.7-1.8-13.6-3.1-20.2c-1.1-5.8-2.4-11.5-4.1-17.3c1.6,5.7,3,11.6,4.1,17.4
		C202.5,237.6,203.6,244.4,204.4,251.2z"/>
	<path fill="none" d="M191.3,207.4c0.5-1.2,1-2.3,1.5-3.3l-0.2-0.4l0.2,0.4C192.3,205.1,191.8,206.2,191.3,207.4
		c-0.2,0.3-0.3,0.6-0.5,0.9c-0.1,0.5-0.3,1-0.4,1.5c0.2-0.5,0.4-1,0.5-1.5C191.1,208,191.2,207.7,191.3,207.4z"/>
	<path fill="none" d="M187.2,141.6c-2.1,4.6-3.4,9.1-3.9,13.4c0,0.2,0,0.5-0.1,0.7c-0.1,1-0.1,2.1-0.1,3.2c0,4.6,0.4,8.7,1.2,12.2
		c0,0.2,0.1,0.4,0.2,0.6c2.7,5.1,5.5,10.4,8.2,15.6c1.3,2.5,2.5,5,3.7,7.5c0.8-2.8,1.2-5.5,1.2-8.1c0-0.6,0-1.5,0-2.4
		c-0.1-1.8-0.3-4.2-0.6-7.1c-0.6-6.6-1.2-14-1.8-22.4c0,0,0-0.1,0-0.1l7-1.4c0,0,0,0,0,0l-7,1.4c0,0,0,0.1,0,0.1l-1.7,0.3l-0.9-5.2
		c-0.7-4.3-1.5-9.1-2.5-14.5c0,0.1-0.1,0.2-0.1,0.3c0,0,0,0-0.1,0.1C189,137.7,188.2,139.6,187.2,141.6L187.2,141.6z"/>
	<path fill="none" d="M186,225.3c0,0,0,0,0,0.1c0,0.1,0,0.1,0,0.2c0-0.1,0-0.1,0-0.1C186,225.4,186,225.3,186,225.3z"/>
	<path fill="none" d="M170.4,124.2c0.8-0.8,1.6-1.5,2.4-2.3c1.1-0.9,2.2-1.9,3.4-2.8c1.1-0.9,2.2-1.9,3.3-2.8c1.2-1,2.2-2.1,3-3.3
		c0.6-0.8,1-1.6,1.4-2.5c0.2-0.4,0.4-0.9,0.5-1.3c-0.2,0.5-0.3,0.9-0.5,1.3c-0.4,0.9-0.9,1.7-1.4,2.5c-0.8,1.2-1.8,2.3-3,3.3
		c-1.1,0.9-2.2,1.9-3.3,2.8c-1.1,0.9-2.2,1.9-3.4,2.8C172,122.7,171.2,123.4,170.4,124.2c-0.8,0.8-1.6,1.6-2.4,2.4
		c-0.3,0.3-0.7,0.7-1,1l0,0c0.3-0.3,0.7-0.7,1-1C168.8,125.8,169.6,125,170.4,124.2z"/>
	<path fill="none" d="M148.6,79.3c0,0,0,0.1,0,0.1C148.6,79.4,148.6,79.3,148.6,79.3C148.6,79.3,148.6,79.3,148.6,79.3z"/>
	<path fill="none" d="M146.1,76.8C146.1,76.8,146.1,76.8,146.1,76.8C146.1,76.8,146.2,76.8,146.1,76.8c0.3,0.1,0.5,0.1,0.7,0
		C146.6,76.8,146.3,76.8,146.1,76.8C146.1,76.8,146.1,76.8,146.1,76.8z"/>
	<path fill="none" d="M148.9,82.6L148.9,82.6c-0.1-0.4-0.1-0.8-0.1-1.3c0-0.7-0.1-1.3-0.1-1.8c0,0,0,0,0-0.1c0,0,0,0,0,0.1
		c0,0.5,0.1,1.1,0.1,1.8C148.9,81.8,148.9,82.2,148.9,82.6c0.1,0.6,0.2,1.1,0.3,1.5c0.1,0.2,0.1,0.3,0.2,0.5
		c-0.1-0.1-0.1-0.3-0.2-0.5C149.1,83.7,149,83.2,148.9,82.6z"/>
	<path fill="none" d="M150.3,80c0.7,0.2,1.5,0.3,2.4,0.3C151.8,80.3,151,80.2,150.3,80c-0.7-0.2-1.2-0.5-1.7-0.9
		c-0.1-0.3-0.1-0.6-0.2-0.9c-0.2-0.5-0.4-0.9-0.6-1.2c-0.1-0.1-0.2-0.2-0.3-0.3c0,0-0.1,0-0.1,0c0.1,0.1,0.2,0.2,0.3,0.3
		c0.2,0.3,0.4,0.7,0.6,1.2c0.1,0.3,0.2,0.5,0.2,0.9c0,0,0,0.1,0,0.1c0,0,0,0,0-0.1C149,79.5,149.6,79.8,150.3,80z"/>
	<path fill="none" d="M150.4,85.8c0,0,0.1,0.1,0.1,0.1c0.3,0.1,0.6,0.2,0.9,0.2c0,0,0,0,0,0c-0.3,0-0.7,0-0.9-0.2
		C150.5,85.9,150.4,85.9,150.4,85.8z"/>
	<path fill="none" d="M160.2,77.1c0.2,0,0.4,0.1,0.6,0.2l0,0c-0.1,0.2-0.2,0.3-0.3,0.5c-0.3,0.5-0.5,1-0.8,1.4
		c-0.1,0.3-0.3,0.5-0.4,0.7c-0.2,0.4-0.5,0.8-0.7,1.1c-0.1,0.1-0.2,0.2-0.2,0.3c-0.1,0.2-0.3,0.3-0.3,0.4c-1.9,2.6-4.1,4-6.1,4.3v0
		c0,0,0,0-0.1,0c-0.1,0-0.1,0-0.2,0c0.1,0,0.2,0,0.3,0c0.1,0,0.1,0,0.2,0h0c2.1-0.2,4.1-1.7,6-4.3c0.1-0.1,0.2-0.3,0.3-0.4
		c0.1-0.1,0.2-0.2,0.2-0.3c0.2-0.3,0.5-0.7,0.7-1.1c0.1-0.2,0.2-0.5,0.3-0.7c0.2-0.4,0.5-0.9,0.8-1.4c0.1-0.2,0.3-0.3,0.4-0.5v-0.3
		h-0.2c-0.2,0-0.4-0.1-0.6-0.2c-1-0.3-1.8-0.5-2.5-0.6c0,0,0-0.2,0-0.2c0,0,0,0,0,0c0,0,0,0.2,0,0.2
		C158.3,76.4,159.2,76.8,160.2,77.1z"/>
	<path fill="none" d="M191.4,109.9c-0.3,2.1-0.4,4-0.4,5.6c0,0.3,0,0.5,0,0.8c0,0,0,0.1,0,0.1c0,0,0-0.1,0-0.1c0-0.3,0-0.5,0-0.8
		C191.1,113.8,191.2,111.9,191.4,109.9c0.3-1.4,0.4-2.8,0.6-3.9c0.1-0.7,0.4-1.3,0.5-1.9c-0.1,0.5-0.4,1.2-0.5,1.9
		C191.9,107.1,191.7,108.4,191.4,109.9z"/>
	<path fill="none" d="M159.9,58.4c0.3-0.4,0.6-0.7,1-1.1C160.5,57.7,160.1,58.1,159.9,58.4z"/>
	<path fill="none" d="M134,45.2c0.4-0.2,0.8-0.3,1.2-0.3C134.8,44.9,134.2,45,134,45.2z"/>
	<path fill="none" d="M147.9,75.7c0.7,0,1.6,0,2.6-0.6C149.5,75.7,148.6,75.7,147.9,75.7z"/>
	<path fill="none" d="M146.1,76.8C146.1,76.8,146.1,76.8,146.1,76.8C146.1,76.8,146.1,76.7,146.1,76.8c0-0.1,0-0.3,0-0.3
		c0-0.1,0.2-0.3,0.4-0.4c0.1-0.1,0.2-0.2,0.4-0.3c0.2-0.1,0.4-0.1,0.6-0.1c-0.2,0-0.5,0-0.6,0.1c-0.1,0-0.3,0.2-0.4,0.3
		c-0.2,0.1-0.3,0.3-0.4,0.4C146.1,76.5,146.1,76.6,146.1,76.8C146.1,76.7,146.1,76.8,146.1,76.8c-0.1,0-0.1,0.1-0.1,0.1v0.2h0.1
		L146.1,76.8C146.1,76.9,146.1,76.8,146.1,76.8z"/>
	<path fill="none" d="M151.7,86.1c-0.1,0-0.1-0.1-0.2-0.1C151.6,86.1,151.6,86.1,151.7,86.1z"/>
	<path fill="none" d="M187.9,70.3c0,0,0.1-0.1,0.1-0.1C187.9,70.2,187.9,70.2,187.9,70.3c0,0.1-0.1,0.3-0.2,0.4
		c-0.5,0.8-1,1.8-1.5,2.9c0.5-1.1,1-2,1.5-2.9C187.7,70.6,187.8,70.4,187.9,70.3z"/>
	<path fill="none" d="M203.4,58.6c-0.2,0.5-0.3,1.1-0.5,1.5C203.1,59.6,203.2,59.1,203.4,58.6z"/>
	<path fill="none" d="M101.5,132.2c-1-1.3-3.8-5.9-8.3-13.8c-0.3-0.5-0.5-1-0.8-1.4c0.3,0.5,0.5,0.9,0.8,1.4
		C97.6,126.3,100.4,130.9,101.5,132.2c2.5,3.1,5.3,6.8,8.2,11.1c0.3,0.4,0.7,0.8,1.1,1.2c-0.4-0.4-0.7-0.8-1.1-1.2
		C106.8,139,104,135.3,101.5,132.2z"/>
	<path fill="none" d="M75.3,83.4c-0.2,0-0.3,0.1-0.5,0.1c-0.2,0-0.4,0.1-0.7,0.1c0.2,0,0.4-0.1,0.7-0.1
		C74.9,83.5,75.1,83.5,75.3,83.4z"/>
	<path fill="none" d="M70.5,77.6l-0.6-0.7L70.5,77.6c0.2,0.9,0.3,1.7,0.3,2.5c-0.6-0.2-1.1-0.2-1.3-0.2c-0.4,0-0.8,0.2-1.1,0.2
		c0.3,0,0.7-0.2,1.1-0.2c0.2,0,0.6,0.2,1.3,0.2c0,0,0,0,0.1,0c0.6,0,1.2,0.3,2.1,0.6l2.3,2.7L73,80.7L70.5,77.6z"/>
	<path fill="none" d="M143.1,24.1C143.1,24.1,143.1,24.1,143.1,24.1C143.1,24.1,143.1,24.1,143.1,24.1C143.1,24,143.1,24,143.1,24.1
		C143.1,24,143.1,24,143.1,24.1C143.1,24,143.1,24,143.1,24.1C143.1,24.1,143.1,24.1,143.1,24.1z"/>
	<path fill="none" d="M164.3,17.8c0.8,0.1,1.9,0.3,3.3,0.3c0,0,0,0,0,0c1.4,0,3.1-0.2,5.1-0.3c1.5-0.1,2.8-0.2,4-0.2c0,0,0,0,0,0
		c0.4,0,0.8,0,1.1,0c1.5,0,2.6,0.1,3.6,0.2c7.7,1,13.3,2.6,16.8,4.8c0.4,0.2,0.8,0.5,1.2,0.8c0.4,0.3,0.7,0.6,1,0.9
		c0.5,0.5,0.9,1.1,1.3,1.7c0.4,0.6,0.8,1.3,1.1,2.1c0.5,1.3,1,2.8,1.3,4.4c0.1,0.6,0.2,1.1,0.3,1.7c0.2,1.2,0.3,2.5,0.4,3.9
		c0.1,1.4,0.1,2.8,0.1,4.4c0,0.8,0,1.5,0,2.2c0,2.3-0.2,4.4-0.3,6.3c0,0.4-0.1,0.8-0.1,1.2c0-0.4,0.1-0.8,0.1-1.2
		c0.2-1.9,0.3-4,0.3-6.3c0-0.7,0-1.5,0-2.2c0-1.6,0-3-0.1-4.4c-0.1-1.4-0.2-2.7-0.4-3.9c-0.1-0.6-0.2-1.2-0.3-1.7
		c-0.3-1.7-0.8-3.2-1.3-4.4c-0.3-0.8-0.7-1.5-1.1-2.1c-0.4-0.6-0.9-1.2-1.3-1.7c-0.3-0.3-0.6-0.6-1-0.9c-0.4-0.3-0.7-0.5-1.2-0.8
		c-3.4-2.1-9-3.7-16.8-4.8c-0.9-0.1-2-0.2-3.5-0.2c-0.4,0-1,0-1,0v0v0c-1,0-2.7,0-4.2,0.1c-2,0.1-3.8,0.1-5.2,0.1
		c-1.4,0-2.5-0.1-3.3-0.2c-1.8-0.3-3.4-0.6-4.7-0.8c-2.2-0.3-3.9-0.7-4.9-0.7c1,0,2.6,0.4,4.9,0.7C160.9,17,162.5,17.5,164.3,17.8z"
		/>
	<path fill="none" d="M204.2,54.9c-0.2,1.3-0.5,2.5-0.8,3.6C203.7,57.4,204,56.2,204.2,54.9z"/>
	<path fill="none" d="M184.4,77.2c-0.2,0.4-0.4,0.8-0.6,1.2C184,78.1,184.2,77.7,184.4,77.2L184.4,77.2z"/>
	<path fill="none" d="M189.9,49.8c0-0.2-0.1-0.4-0.1-0.6c0.2,1.7,0.5,3.6,0.8,5.9C190.4,53.1,190.1,51.4,189.9,49.8z"/>
	<path fill="none" d="M77.9,86.7l-1.7-2v0c-0.2,0-0.3-0.1-0.5-0.1c-0.3-0.1-0.6-0.1-0.9-0.2c-0.3-0.1-0.5-0.2-0.8-0.3
		c-0.2-0.1-0.5-0.2-0.7-0.3c0,0,0,0,0,0c0,0,0,0,0,0c0.2,0.1,0.5,0.2,0.7,0.3c0.2,0.1,0.5,0.2,0.8,0.3c0.3,0.1,0.5,0.2,0.9,0.2
		c0.2,0,0.3,0.1,0.5,0.1L77.9,86.7L77.9,86.7c-0.2,0.1-0.3,0.1-0.5,0.1c-0.4,0.1-0.9,0.1-1.4,0.1c-1.3-0.3-2.4-0.5-3.3-0.6
		c-0.4-0.1-0.8-0.1-1.2-0.1c0,0-0.1,0-0.1,0c-0.1,0-0.3,0-0.4,0c-0.2,0-0.4,0-0.5,0c-0.3,0-0.5,0-0.7,0.1c0,0,0,0,0,0
		c0.2,0,0.4,0,0.7,0c0.2,0,0.3-0.1,0.5-0.1c0.1,0,0.2,0,0.4,0c0,0,0.1,0,0.1,0c0.3,0,0.7,0.1,1.2,0.2c0.9,0.1,2,0.4,3.3,0.6
		c0.5,0,1,0,1.4-0.1c0.2,0,0.3,0,0.5,0l0,0.2c0,0,0,0,0,0l2.3,2.7c0,0.2,0.1,0.2,0.1,0.4c0-0.1-0.1-0.3-0.1-0.6L77.9,86.7z"/>
	<path fill="none" d="M179.4,84.2c-0.3,0.2-0.6,0.5-0.9,0.7c-0.1,0-0.1,0-0.2,0.1c0.1,0,0.1,0,0.2-0.1
		C178.8,84.7,179.1,84.5,179.4,84.2z"/>
	<path fill="none" d="M178.3,85c-0.1,0-0.1,0-0.2,0.1c-0.2,0.1-0.5,0.2-0.8,0.3c0.3-0.1,0.5-0.2,0.8-0.3
		C178.2,85.1,178.3,85,178.3,85z"/>
	<path fill="none" d="M68.1,83.2c0-0.1,0-0.1,0-0.1c0-0.1,0.1-0.1,0.1-0.2c0,0.1-0.1,0.1-0.1,0.2C68.1,83.1,68.1,83.1,68.1,83.2z"/>
	<path fill="none" d="M143.1,21.1L143.1,21.1L143.1,21.1c0.1-0.2,0.2-0.3,0.3-0.4c0.2-0.2,0.4-0.4,0.6-0.6c0.1-0.1,0.2-0.1,0.3-0.2
		c0.2-0.2,0.4-0.4,0.5-0.5c0,0,0.1-0.1,0.1-0.1c0,0,0.1,0,0.1-0.1c0.4-0.2,0.9-0.4,1.6-0.5c0.7-0.1,1.5-0.2,2.5-0.2
		c0.7,0,1.5,0,2.4,0.1c0.3,0,0.6,0.1,0.9,0.1c0.6,0.1,1.3,0.2,2,0.3c2.2,0.4,4.8,0.9,7.8,1.6c0.5,0.1,1,0.2,1.5,0.4
		c1.6,0.4,3.2,0.8,5,1.3c3.2,0.9,9.1,3,17.5,6.3c0.1,0,0.1,0,0.2,0.1c0.1,0,0.1,0,0.2,0.1c0.7,0.2,1.3,0.5,1.9,0.7
		c1.8,0.8,3.3,1.6,4.6,2.5c0.8,0.6,1.6,1.2,2.2,1.9c0.6,0.7,1.1,1.4,1.4,2.1c0.4,0.8,0.7,1.8,1,3.1c-0.2-1.3-0.6-2.3-1-3.1
		c-0.4-0.7-0.8-1.4-1.4-2.1c-0.6-0.7-1.3-1.3-2.2-1.9c-1.3-0.9-2.8-1.7-4.6-2.5c-0.6-0.3-1.2-0.5-1.9-0.7c-0.1,0-0.1-0.1-0.2-0.1
		c-0.1,0-0.1-0.1-0.2-0.1c-8.4-3.3-14.3-5.4-17.5-6.3c-1.8-0.5-3.4-0.9-5-1.3c-0.5-0.1-1-0.3-1.5-0.4c-3-0.7-5.6-1.3-7.8-1.6
		c-0.7-0.1-1.4-0.3-2-0.4c-0.3,0-0.6-0.2-0.9-0.2c-0.9-0.1-1.7-0.4-2.4-0.4c0,0,0,0,0,0c-1,0-1.8,0.3-2.5,0.4
		c-0.6,0.1-1.2,0.5-1.6,0.7c0,0-0.1,0-0.1,0.1c0,0-0.1,0.1-0.1,0.1c-0.1,0.1-0.3,0.2-0.6,0.4c-0.1,0.1-0.2,0.2-0.3,0.2
		c-0.2,0.2-0.4,0.4-0.6,0.6c-0.1,0.1-0.3,0.2-0.3,0.3L143.1,21.1L143.1,21.1L143.1,21.1z"/>
	<path fill="none" d="M175.1,151.3c-3.6-1.7-7.3-2.9-11.3-3.6c-3.2-0.5-7.2-0.6-11.8-0.6c4.6,0,8.5,0.1,11.8,0.7
		C167.8,148.4,171.5,149.6,175.1,151.3z"/>
	<path fill="none" d="M145.7,26.3c0.3,0.3,0.7,0.7,1,1c0.6,0.5,1.2,1.1,1.8,1.6c-0.6-0.5-1.2-1-1.8-1.6
		C146.4,27,146,26.6,145.7,26.3z"/>
	<polygon fill="none" points="188.1,69.9 188.1,69.9 188.1,69.9 	"/>
	<path fill="none" d="M136.7,20.4c0.1,0,0.2,0.3,0.2,0.3l0-0.1C136.9,20.6,136.9,20.4,136.7,20.4c-0.1,0-0.2-0.3-0.3-0.3
		C136.6,20.1,136.6,20.3,136.7,20.4z"/>
	<path fill="none" d="M127,42.1C127,42.1,127,42,127,42.1c0-0.2,0-0.3,0-0.4c0-0.5,0-0.9,0-1.4c0-0.9-0.1-1.7-0.1-2.5
		c0-0.8,0-1.5,0-2.1c0,0,0,0,0,0c0-1,0-1.8,0-2.6c0-0.5,0-0.9,0-1.2c0,0.3-0.1,0.7-0.1,1.2c0,0.7,0,1.6,0.1,2.6c0,0,0,0,0,0
		c0,0.7,0,1.4,0.1,2.1c0,0.8,0,1.6,0.1,2.5c0,0.4,0,0.9,0.1,1.4C127,41.7,127,41.9,127,42.1C127,42,127,42.1,127,42.1
		c0.1,1.2,0.5,4.2,1.2,8.8c0.1,0.9,0.4,1.9,0.5,3l0,0c-0.2-1.1-0.4-2-0.5-3C127.5,46.2,127.1,43.3,127,42.1z"/>
	<path fill="none" d="M76.2,78.6c-0.1,0-0.2-0.1-0.2-0.1c0,0-0.1,0-0.1,0c-0.1-0.1-0.2-0.1-0.3-0.2c-0.2-0.2-0.3-0.5-0.3-0.8l0,0
		l0,0c0.1,0.3,0.2,0.6,0.3,0.8c0.1,0.1,0.2,0.2,0.3,0.2c0,0,0.1,0,0.1,0C76,78.6,76.1,78.6,76.2,78.6c0.1,0.1,0.1,0.1,0.3,0.2
		c0.1,0,0.2,0.1,0.4,0.1l0,0c-0.1,0-0.2,0-0.3,0C76.5,78.8,76.3,78.7,76.2,78.6z"/>
	<polygon fill="none" points="82.1,91.8 81.9,91.7 81.9,91.7 	"/>
	<path fill="none" d="M181.2,154.7c0,0-0.1,0-0.1-0.1c-8.3-2.4-16.4-3.5-24.3-3.5C164.8,151.1,172.9,152.3,181.2,154.7z"/>
	<path fill="none" d="M84.9,103.7C84.9,103.7,84.9,103.7,84.9,103.7c0.1,0.2,0.2,0.4,0.3,0.5C85.1,104.1,85,103.9,84.9,103.7z"/>
	<path fill="#F1CC96" d="M74.9,84.3c0.3,0.1,0.5,0.2,0.9,0.2c0.2,0,0.3,0.1,0.5,0.1l-1-1.2c-0.2,0-0.3,0.1-0.5,0.1
		c-0.2,0-0.4,0.1-0.7,0.1c-0.2,0-0.4,0-0.7,0c0.2,0.1,0.5,0.2,0.7,0.3C74.4,84.1,74.6,84.2,74.9,84.3z"/>
	<path fill="#F1CC96" d="M85.2,104.3c0.5,0.9,1.2,2,1.8,3.1c0.3,0.5,0.5,0.9,0.8,1.4c0.7,1.2,1.5,2.6,2.3,4.1c0.5,0.8,1,1.7,1.5,2.6
		c0.3,0.5,0.5,0.9,0.8,1.4s0.5,0.9,0.8,1.4c4.4,7.9,7.2,12.5,8.3,13.8c2.5,3.1,5.3,6.8,8.2,11.1c0.3,0.4,0.7,0.8,1.1,1.2
		c1.1,1.1,2.4,2.1,3.7,2.9c5.8-0.9,11.1-2.4,16-4.4c0-0.2-0.1-0.5-0.1-0.8c-0.6-3.4-2.1-6.2-4.4-8.4c-0.8-0.7-1.6-1.4-2.6-1.9
		l-5.9,2.5c-0.8-0.4-1.5-0.9-2.3-1.5c-4.7-3.1-8.5-7-11.3-11.7l-8.1-12.6l-13.8-17l0.1,0.2c-0.4-0.3-0.8-0.6-1.1-0.8
		c-0.2-0.2-0.3-0.3-0.4-0.4c-0.1-0.1-0.1-0.1-0.1-0.2c-0.1-0.1-0.1-0.2-0.1-0.3c0-0.1-0.1-0.2-0.1-0.4l-2.3-2.7c0,0,0,0,0,0l0-0.2
		c-0.2,0-0.3,0-0.5,0C77,87,76.5,87,76,87c-1.3-0.3-2.4-0.5-3.3-0.6c-0.4-0.1-0.8-0.1-1.2-0.2c0,0-0.1,0-0.1,0c-0.1,0-0.3,0-0.4,0
		c-0.2,0-0.4,0.1-0.5,0.1c-0.3,0-0.5,0-0.7,0c-0.4,0.1-0.7,0.3-0.8,0.5c0,0,0,0.1,0,0.1v0.2c0.1,0,0.1,0,0.2,0c0.6,0,2.3,0.1,5,0.6
		c2.5,0.5,3.9,0.6,4.2,0.9c0,0,0.1,0.1,0.1,0.1c0,0,0,0,0,0c0,0,0,0,0,0c0,0.3-0.3,0.7-1.1,1.1c-0.7,0.3-1.3,0.5-1.7,0.5
		c-1-0.4-1.9-0.7-2.9-0.9c-1-0.2-1.9-0.3-2.9-0.3c-0.9,0-1.6,0-2.2,0c4,4.4,8,7.1,11.9,7.9c0.7,0.1,1.4,0.5,2,1.2
		c0.3,0.3,0.8,0.8,1.3,1.4l0.1-0.1l0,0c0,0,0,0.1,0.1,0.2c0.5,1.1,1.1,2.4,1.8,3.8c0,0,0,0,0,0C85,103.9,85.1,104.1,85.2,104.3z"/>
	<path fill="#E6A23C" d="M69.5,79.9c0.2,0,0.6,0,1.3,0.2c0-0.8-0.1-1.6-0.3-2.5l-0.6-0.7L67,73.3c0.1,1.2,1.1,3.2,1.4,6l-0.2,0.8
		h0.1C68.7,80.1,69.1,79.9,69.5,79.9z"/>
	<path fill="#E8A84A" d="M67.7,84.7c0-0.1,0-0.1,0-0.1c0.1-0.4,0.1-0.7,0.2-0.9c0.1-0.2,0.1-0.4,0.1-0.5c0-0.1,0-0.1,0-0.1
		c0-0.1,0.1-0.1,0.1-0.2c0.2-0.3,0.5-0.5,1-0.5c0.4,0,1.4,0.2,2.7,0.7c0.4,0.1,0.8,0.3,1.4,0.5c0,0,0,0,0,0c0.2,0,0.4,0,0.7,0
		c0.2,0,0.4-0.1,0.7-0.1c0.2,0,0.4-0.1,0.5-0.1L73,80.7c-0.9-0.3-1.5-0.6-2.1-0.6c0,0,0,0-0.1,0c-0.6,0-1.1-0.2-1.3-0.2
		c-0.4,0-0.8,0.2-1.1,0.2h-0.1L67.6,80l-0.5,0.9l-0.2,0.6C66.9,82.7,67.2,83.8,67.7,84.7C67.7,84.7,67.7,84.7,67.7,84.7L67.7,84.7z"
		/>
	<path fill="#ECBA71" d="M80.2,89.6c0,0.2,0.1,0.4,0.1,0.6c0,0.1,0,0.2,0.1,0.3c0,0.1,0.1,0.1,0.1,0.2c0.1,0.1,0.2,0.3,0.4,0.4
		c0.3,0.2,0.6,0.5,1.1,0.8l-0.1-0.2L80.2,89.6z"/>
	<path fill="#ECBA71" d="M78.3,88.5c-0.3-0.2-1.7-0.4-4.2-0.9c-2.7-0.5-4.3-0.6-5-0.6c-0.1,0-0.1,0-0.2,0v-0.2c0,0,0-0.1,0-0.1
		c0.1-0.2,0.4-0.4,0.8-0.5c0,0,0,0,0,0c0.2,0,0.4-0.1,0.7-0.1c0.2,0,0.3,0,0.5,0c0.1,0,0.2,0,0.4,0c0,0,0.1,0,0.1,0
		c0.3,0,0.7,0.1,1.2,0.1c0.9,0.1,2,0.3,3.3,0.6c0.5,0,1,0,1.4-0.1c0.2,0,0.3-0.1,0.5-0.1l0,0l-1.7-2c-0.2,0-0.3-0.1-0.5-0.1
		c-0.3-0.1-0.6-0.1-0.9-0.2c-0.3-0.1-0.5-0.2-0.8-0.3c-0.2-0.1-0.5-0.2-0.7-0.3c0,0,0,0,0,0c-0.5-0.2-1-0.4-1.4-0.5
		c-1.3-0.5-2.3-0.7-2.7-0.7c-0.5,0-0.9,0.2-1,0.5c0,0.1-0.1,0.1-0.1,0.2c0,0,0,0.1,0,0.1c0,0.1-0.1,0.3-0.1,0.5
		c-0.1,0.2-0.1,0.5-0.2,0.9c0,0,0,0.1,0,0.1v0c0,0,0,0,0,0c0,0.1,0,0.2,0,0.3c-0.1,0.5-0.3,1.2-0.4,2c-0.1,0.1-0.2,0.3-0.2,0.4
		l0.1,1.1c0.1,0.1,0.2,0.3,0.4,0.4c0.5,0,1.2,0,2.2,0c1,0,1.9,0.1,2.9,0.3c1,0.2,1.9,0.5,2.9,0.9c0.4,0,1-0.2,1.7-0.5
		c0.7-0.4,1.1-0.7,1.1-1.1C78.4,88.7,78.4,88.6,78.3,88.5C78.4,88.6,78.4,88.6,78.3,88.5z"/>
	<path fill="#E9AC52" d="M114.5,147.4c-1.4-0.8-2.6-1.8-3.7-2.9c-0.4-0.4-0.7-0.8-1.1-1.2c-2.9-4.3-5.7-8-8.2-11.1
		c-1-1.3-3.8-5.9-8.3-13.8c-0.3-0.5-0.5-1-0.8-1.4c-0.3-0.5-0.5-0.9-0.8-1.4c-0.5-0.9-1-1.8-1.5-2.6c-0.8-1.5-1.6-2.8-2.3-4.1
		c-0.3-0.5-0.6-1-0.8-1.4c-0.7-1.2-1.3-2.2-1.8-3.1c-0.1-0.2-0.2-0.4-0.3-0.5c0.9,1.9,1.9,4.1,3.1,6.6c5,10.4,9,18.5,12.1,24.1
		c1.2,2.2,2.4,4.3,3.7,6.2c2.7,4.3,6,8.2,9.8,11.5c0.3,0.2,0.7,0.5,1.1,0.8c5.7-2.3,11-5.3,16-9c0-0.3-0.1-0.7-0.2-1.1
		C125.7,145,120.4,146.5,114.5,147.4z"/>
	<rect x="84.9" y="103.7" fill="#E9AC52" width="0" height="0"/>
	<path fill="#EDBD78" d="M161,108.1c0,0,0,0.1,0,0.2c0,1,0.3,2.2,0.6,3.6c0,0,0,0,0,0c0.2,1,0.6,2.1,0.9,3.2c0.3,1.2,0.6,2.4,1,3.7
		c0.1,0.5,0.3,1.1,0.5,1.7l2.2,5.7l0.1,0.1l0.7,1.2c0.3-0.3,0.7-0.7,1-1c0.8-0.8,1.6-1.7,2.4-2.4s1.6-1.5,2.4-2.3
		c1.1-0.9,2.2-1.9,3.4-2.8c1.1-0.9,2.2-1.9,3.3-2.8c1.2-1,2.2-2.1,3-3.3c0.6-0.8,1-1.6,1.4-2.5c0.2-0.4,0.4-0.9,0.5-1.3
		c0.2-0.5,0.3-0.9,0.4-1.4s0.2-1,0.3-1.5c0.1-0.5,0.1-1,0.1-1.4c0-1.1-0.3-2-0.9-2.9c-0.2-0.3-0.3-0.5-0.5-0.8l-4.1-1.9
		c0,0.2,0,0.4,0,0.6c-0.2,0.8-0.6,1.5-1.1,2.1c-1.1,1.2-2.3,2.1-3.7,2.9c-1.4,0.6-2.7,1.5-3.8,2.6c0,0,0,0,0,0.1
		c0.2,0.1,0.3,0.1,0.4,0.2v0c0,0,0.1,0.1,0.2,0.2c0.4,0.4,0.6,0.9,0.6,1.6c0,0.6-0.2,1.1-0.6,1.6c-0.4,0.4-0.9,0.6-1.6,0.6
		c-0.6,0-1.1-0.2-1.6-0.6c-0.2-0.2-0.4-0.5-0.5-0.8c-0.1-0.2-0.1-0.5-0.1-0.8c0-0.6,0.2-1.1,0.6-1.6c0.4-0.4,0.7-0.5,1.2-0.6
		c-0.3-0.4-0.6-0.8-0.9-1.1c-0.9-0.9-1.6-2-2-3.2c-0.3-0.9-0.3-1.6,0.2-2.1c0,0.1,0.1,0.2,0.2,0.3c0.1,0.2,0.2,0.5,0.3,0.9
		c0.6,1.7,1.6,3.5,2.9,5.2c0.1,0,0.1,0,0.2,0c2.2-1.9,4-3.2,5.2-3.7c1.2-0.6,2-1.3,2.5-2c0.4-0.7,0.7-1.6,0.7-2.6v0
		c0-0.1,0.1-0.2,0.1-0.3c0,0,0,0,0.1-0.1l-1.3-2.1l0.1,0l-0.1-0.1l-0.7-1.5c-0.1-0.2-0.2-0.4-0.3-0.7c0,0,0-0.1-0.1-0.1
		c-0.8-1.9-1.5-4-2-6c-0.1-0.5-0.2-1.1-0.3-1.6c-1.6,0.5-3.3,1.2-5.4,2c-0.9,0.4-1.9,1-3,1.4c-0.6,0.3-1.2,0.5-1.7,0.8
		c0.3,0.7,0.6,1.3,0.8,2c0.2,0.7,0.5,1.5,0.7,2.3l0.7,3.4l0.2,1.2l-2.5,1.9c-0.2,0.1-0.4,0.3-0.5,0.6l-0.2,0
		c-0.2,0.2-0.4,0.4-0.6,0.6c-0.5,0.7-1.1,1.7-1.3,3C161.3,106.4,161,107.2,161,108.1C161,108.1,161,108.1,161,108.1z"/>
	<path fill="#EDBD78" d="M171.4,109c-0.1,0.4-0.3,0.8-0.6,1.1c-0.1,0.1-0.2,0.2-0.3,0.3c0.1-0.1,0.2-0.2,0.3-0.3
		C171.2,109.8,171.4,109.5,171.4,109z"/>
	<path fill="#EDBD78" d="M167.9,110.4c0.3,0.3,0.8,0.4,1.3,0.4C168.7,110.8,168.2,110.7,167.9,110.4z"/>
	<path fill="#E3EEF9" d="M153.6,113.9c0,0.1,0,0.4,0.1,0.9c0,0.3,0.1,0.7,0.1,1.2c0.1,0.7,0.2,1.7,0.3,2.8c0,0.2,0,0.4,0,0.5
		c0,0.3,0,0.6-0.1,0.8c0,0.1-0.1,0.2-0.1,0.3c2.6-4.2,4.4-7.1,5.3-8.7c0.3-0.5,0.5-0.9,0.6-1.1c0.1,0,0.1,0,0.1-0.2
		c0,0.1,0.7,1.9,2,5.4c0.3,0.8,0.4,1.5,0.6,2.1c0.2,0.6,0.5,1.1,0.5,1.5v0c0,0.4,0.4,0.8,0.5,1.2c0,0,0-0.1,0-0.1
		c0,0,0.1,0.1,0.1,0.1c0.1,0.4,0.3,0.8,0.5,1.2l1.7,3.4l-1.8-4.8c-0.2-0.5-0.4-1.1-0.5-1.7c-0.4-1.3-0.7-2.6-1-3.7
		c-0.3-1.2-0.7-2.2-0.9-3.2c0,0,0,0,0,0c-0.2-1.3-0.6-2.5-0.6-3.6c0,0,0-0.1,0-0.2s0,0,0-0.1c0-0.8,0.3-1.6,0.4-2.2
		c0.2-1.3,0.7-2.3,1.2-3.1c0.2-0.2,0.4-0.6,0.6-0.6h0l0.3,0c0.1-0.2,0.4-0.4,0.6-0.6l2.5-1.9l-0.2-1.2l-2.3,0.8
		c-1.9,0.2-3.4,0.9-4.5,1.4c-1.6,0.6-2.9,1.6-3.8,2.6h0c-0.3,0-0.6,0.3-0.9,0.7c-0.2,0.3-0.4,0.7-0.6,1.2c0,0,0,0,0,0.1
		c0,0.2-0.1,0.4-0.1,0.6C153.7,107.1,153.6,109.8,153.6,113.9z"/>
	<path fill="#33406F" d="M204.4,251.2c-0.8-6.7-1.8-13.5-3.1-20.2c-1.1-5.8-2.4-11.6-4.1-17.4l-0.7-1.5c-0.7,1.3-1.4,2.6-2.2,3.9
		c0.7-1.5,1.3-3.1,1.9-4.6v0c-0.6,1.6-1.2,3.1-1.9,4.6c-1.2,2.1-2.3,4.1-3.2,5.8c-0.1,0.1-0.2,0.3-0.2,0.4l4.3,20.9l-0.4,0.1
		c-1.1-3.1-1.8-5-2.8-5.4v0.7c0,0,0.5,2.7,1.4,7.8c0,0.8,0,0.7-0.1,1.7h-0.8c0-1-0.5-1.9-1.6-4.5c-1-2.6-1.8-4.2-1.8-4.4v1.3
		c1,2.4,2,4.7,3,6.9v0.7h-1.6c-1.6-4-2.6-5.8-3.1-6.8c0,1.3,0.3,3.8,1,6.8h-0.6c-0.3,0-0.7-1.4-0.9-2.7c-0.2-1.3-0.5-2.1-0.6-2.4
		c-0.1-0.7-0.4-1.4-0.5-2c-0.3-1.6-0.7-3.2-0.7-4.7c0,0,0-0.2,0-0.2h0.2c0.4-6,0.8-9.3,0.8-10.5c0-0.1,0-0.1,0-0.2
		c0-0.1,0-0.1,0-0.1V225c2-6.6,3.4-11.5,4.3-14.6c0-0.2,0.1-0.4,0.2-0.6c0.1-0.5,0.3-1,0.4-1.5c0.1-0.3,0.3-0.6,0.4-0.9
		c0.5-1.2,1.1-2.3,1.5-3.3l-0.2-0.4l-2.5-5.3c-1.1-3.1-2.2-6.1-3.3-9.3c-1.8-5.6-3.6-11.2-5.2-17c-0.2-0.8-0.4-2.1-0.6-2.1h-0.2
		c0-1,0-0.8,0-1.1c-0.1-1.9,0-4.1,0.1-6.1c0.2-2.7,0.1-5.4,1.1-8.1c0,0,0-0.1,0-0.2c0-0.8,0.1-1.7,0.3-2.5c0.9-5.3,2.5-9.6,4.9-13.1
		c0.8-1.1,1.7-2.2,2.7-3.1c0,0,0,0,0,0.1c0,0,0,0,0.1-0.1c0-0.1,0.1-0.2,0.1-0.3c1,5.4,1.8,10.2,2.5,14.5l0.9,5.2l1.7-0.3
		c0,0,0-0.1,0-0.1l7-1.4c0,0,0-0.1-0.1-0.1c0,0,0,0,0,0l3-0.5c0,0,0,0,0,0c0,0,0,0.1,0,0.1l0.9-0.2l-0.4-2.8
		c-0.3-2.9-0.6-5.7-0.7-8.6c-0.1-2.9-0.1-5.8-0.1-8.7c0-3,0.1-6,0.3-9c0.1-1.1,0.3-2.1,0.5-3c0.3-1.3,0.4-2.6,0.4-4c0-0.3,0-0.7,0-1
		c-0.1-1.7-0.4-3.4-1-5.1l-0.1-0.4c-0.3-0.6-0.7-1.3-1-1.9c-0.5-1-1.4-1.8-2.5-2.5c-1.3-0.6-2.6-1-3.8-1.2c-1.2-0.2-2-0.4-2.4-0.7
		c-0.7-0.4-0.9-0.7-1.9-1c0,0,0,0,0,0c0,0.4-0.3,0.8-0.4,1.3c-0.1,0.5-0.4,1.2-0.5,1.9c-0.2,1.1-0.4,2.5-0.6,3.9
		c-0.3,2.1-0.4,4-0.4,5.6c0,0.3,0,0.5,0,0.8c0,0,0,0.1,0,0.1c0,0.3,0,0.6,0,0.9c0,0.2,0,0.4,0,0.6c0,0.2,0,0.4,0,0.6
		c0,0.1,0,0.1,0,0.2c0.1,1.2,0.3,2.3,0.6,3.2c0.1,0.1,0.2,0.2,0.3,0.3v0.1h-0.2c-1-1-2-1.8-2.7-2.5c-0.1-0.1-0.3-0.3-0.5-0.4
		c-0.1-0.1-0.3-0.2-0.3-0.2l-2.7-3.3c-3.1,1.3-6,3.1-8.9,5.1c-1.1,0.8-2.3,1.6-3.5,2.3l-1.1,0.7c-0.7,0.5-1.4,1-1.9,1.4
		c-0.8,0.6-1.5,1.1-1.9,1.4c-0.3,0.2-0.5,0.4-0.6,0.5c-0.1,0.1-0.1,0.1-0.1,0.1c-0.1,0.2-0.3,0.4-0.5,0.5l0,0l0,0l-0.7-1.2l-0.1-0.1
		l0-0.1l0-0.1l0-0.1l0-0.1l0,0l0,0l0,0l0,0l0,0l0,0l0,0l0,0l0,0l0,0l0,0l0,0l0,0l0,0l0,0l-1.7-3.4c-0.1-0.4-0.3-0.8-0.4-1.2
		c0,0,0-0.1,0-0.1c-0.1-0.2-0.2-0.6-0.4-1.1v0c-0.1-0.4-0.3-0.9-0.6-1.5c-0.2-0.6-0.5-1.3-0.7-2.1c-1.3-3.5-1.9-5.3-2-5.4
		c0,0.1,0,0.2-0.1,0.2c-0.1,0.2-0.3,0.6-0.6,1.1c-0.9,1.6-2.6,4.5-5.3,8.7c0-0.1,0.1-0.2,0.1-0.3c0.1-0.2,0.1-0.5,0.1-0.8
		c0-0.2,0-0.3,0-0.5c-0.1-1.1-0.2-2.1-0.3-2.8c-0.1-0.5-0.1-0.9-0.1-1.2c0-0.5-0.1-0.8-0.1-0.9c0-4.1,0.1-6.8,0.3-8.2
		c0-0.2,0.1-0.4,0.1-0.6c0-0.1,0-0.2,0-0.2c0.1-0.5,0.3-0.9,0.6-1.3c-1.6,0.5-2.9,1.3-3.8,2.4c-1.6,1.7-4.5,5.4-8.6,11.1
		c-4.2,5.6-10.5,10.6-18.8,14.9c0.9,0.6,1.8,1.2,2.6,1.9c2.3,2.2,3.8,4.9,4.4,8.4c0,0.2,0.1,0.5,0.1,0.8c0,0.3,0.1,0.7,0.2,1.1
		l0.2,1.3c5.8-3.7,11.3-7.8,16.4-12.4c-0.5,2.4-0.8,4.6-0.8,6.8c0,2.8,0.4,4.4,1.1,4.8c0.9,0.5,1.8,1.4,2.8,2.3c0.3,0,0.7,0,1,0
		c0.1,0,0.3,0,0.4,0c4.6,0,8.5,0,11.8,0.6c3.9,0.7,7.7,1.9,11.3,3.6c2.1,1,4.1,2.1,6.1,3.4c0,0-0.1,0-0.1,0c0,0,0.1,0,0.1,0.1
		c-8.3-2.4-16.4-3.6-24.4-3.6c-0.1,0-0.2,0-0.4,0c-0.8,0-1.5,0-2.1,0c-0.1,0-0.2,0-0.3,0c1,1.5,1.9,3.1,2.8,4.7
		c1.1,2.6,2.2,5.6,3.4,8.9c0.5,1.5,1,3.1,1.5,4.7c0.2,0.7,0.5,1.5,0.7,2.5c1,5.8,0.9,11.6-0.3,17.4c0,0.3-0.1,0.6-0.2,0.9
		c-0.5,2.7-1,5.4-1.2,8.1l-0.3,3.9c0,0.8-0.2,1.6-0.2,2.4c0,0.2-0.2,0.5-0.2,0.8c0,0,0,0.1,0,0.2l0.1,0c-0.4,3.3-0.6,9.1-0.6,17.6
		c0,2.4,0.3,9.2,0.9,19.9l0.9,14.9h16.8c0.6,0,1.2,0,1.9,0c0.4,0,0.9,0,1.4,0h23.6c-0.1-0.9-0.1-1.7-0.2-2.5
		c-0.1-0.7-0.1-1.4-0.2-2.1C204.6,252.8,204.5,252,204.4,251.2z"/>
	<path fill="#E3EEF9" d="M179,98.6C179.1,98.6,179.1,98.6,179,98.6c0.1,0,0.1,0,0.2,0c0,0,0.1,0,0.2,0c0.2,0.2,0.3,0.4,0.3,0.6
		l4.1,1.9c0.2,0.3,0.4,0.5,0.5,0.8c0.5,0.9,0.8,1.9,0.9,2.9c0,0.5,0,0.9-0.1,1.4c-0.1,0.5-0.2,1-0.3,1.5s-0.3,0.9-0.4,1.4
		c-0.2,0.5-0.3,0.9-0.5,1.3c-0.4,0.9-0.9,1.7-1.4,2.5c-0.8,1.2-1.8,2.3-3,3.3c-1.1,0.9-2.2,1.9-3.3,2.8c-1.1,0.9-2.2,1.9-3.4,2.8
		c-0.8,0.7-1.6,1.5-2.4,2.3s-1.6,1.6-2.4,2.4c-0.3,0.3-0.7,0.7-1,1c0.2-0.1,0.4-0.2,0.5-0.5c0,0,0.1-0.1,0.1-0.1
		c0.1-0.1,0.3-0.3,0.6-0.5c0.4-0.4,1.1-0.8,1.9-1.4c0.6-0.4,1.2-0.9,1.9-1.4l1-0.7c1.1-0.7,2.3-1.5,3.4-2.3c2.8-2,5.8-3.8,8.9-5.1
		l0,0l0,0l2.7,3.3c0.1,0.1,0.2,0.2,0.3,0.2c0.2,0.1,0.4,0.3,0.6,0.4c0.7,0.6,1.6,1.4,2.5,2.2c-0.3-0.9-0.5-2-0.6-3.2
		c0-0.1,0-0.1,0-0.2c0-0.2,0-0.4,0-0.6c0-0.2,0-0.4,0-0.6c0-0.3,0-0.6,0-0.9c0,0,0-0.1,0-0.1c0-0.3,0-0.5,0-0.8
		c0.1-1.6,0.2-3.5,0.4-5.6c0.2-1.4,0.4-2.8,0.6-3.9c0.1-0.7,0.4-1.3,0.5-1.9c0-0.5,0.4-0.9,0.4-1.3c0,0,0,0,0,0c0-0.1,0-0.1,0-0.2
		c0,0,0-0.1,0-0.1c0-1,0-1.6,0-1.9c0-1.4-1.7-2.6-4.5-2.6c-0.1,0-0.2,0-0.2,0l-10.4-1.5l-0.1,0L179,98.6z"/>
	<path fill="#E3EEF9" d="M191.7,122.1h0.2V122c-0.1-0.1-0.2-0.2-0.3-0.3C191.7,121.8,191.7,122,191.7,122.1z"/>
	<path fill="#283257" d="M198.2,206.4c0.3-0.7,0.5-1.4,0.8-2C198.7,205.1,198.5,205.8,198.2,206.4c-0.5,1.4-1.1,2.9-1.7,4.3
		c-0.1,0.2-0.2,0.4-0.3,0.7v0c0.1-0.2,0.2-0.4,0.3-0.7C197.1,209.3,197.7,207.9,198.2,206.4z"/>
	<path fill="#283257" d="M207.3,223.9c-1.8-6.7-4.1-13.2-6.8-19.6c-0.6,1.3-1.2,2.6-1.8,3.9c-0.6,1.2-1.2,2.4-1.9,3.6
		c-0.1,0.1-0.2,0.3-0.2,0.4l0.7,1.5c1.6,5.7,3,11.5,4.1,17.3c1.2,6.6,2.3,13.5,3.1,20.2c0.1,0.8,0.2,1.6,0.3,2.4
		c0.1,0.7,0.2,1.3,0.2,2.1c0.1,0.7,0.1,1.5,0.2,2.5h7.2c-1.2-7-2-13.4-2.6-20.2C209.3,233.1,208.5,228.4,207.3,223.9z"/>
	<path fill="#283257" d="M192.8,204.1c1.4-3.1,2.4-5.4,2.8-6.8c0.3-0.8,0.5-1.5,0.7-2.3c-1.2-2.5-2.4-5-3.7-7.5
		c-2.7-5.2-5.5-10.5-8.2-15.6c0-0.2-0.1-0.4-0.2-0.6c-0.8-3.5-1.2-7.6-1.2-12.2c0-1,0-2.1,0.1-3.2c0-0.2,0-0.5,0.1-0.7
		c0.5-4.3,1.8-8.8,3.9-13.4v0c0.9-2,1.8-3.9,2.6-5.7c0,0,0,0,0-0.1c-1,0.9-1.9,2-2.7,3.1c-2.4,3.4-4,7.8-4.9,13.1
		c-0.1,0.8-0.3,1.7-0.3,2.5c0,0,0,0.1,0,0.2c-1,2.7-0.9,5.4-1.1,8.1c-0.1,1.9-0.2,4.1-0.1,6.1c0,0.3-0.1,0.1,0,1.1h0.2
		c0.1,0,0.3,1.2,0.6,2.1c1.6,5.7,3.4,11.3,5.2,17c1,3.1,2.1,6.2,3.3,9.3l2.5,5.3L192.8,204.1C192.8,204.1,192.8,204.1,192.8,204.1z
		 M180.8,169.7C180.8,169.7,180.8,169.7,180.8,169.7l0.2-0.1L180.8,169.7z"/>
	<path fill="#99CC33" d="M163.2,119.6L163.2,119.6L163.2,119.6c0.2,0.6,0.3,0.9,0.4,1.1c0,0,0,0.1,0,0.1
		C163.5,120.4,163.3,120,163.2,119.6z"/>
	<path fill="#283257" d="M156.4,151.1c0.1,0,0.2,0,0.4,0c7.9,0,16,1.2,24.3,3.5c0,0,0.1,0,0.1,0c-2-1.3-4-2.4-6.1-3.4
		c-3.6-1.6-7.3-2.8-11.3-3.5c-3.2-0.5-7.2-0.7-11.8-0.7c-0.1,0-0.3,0-0.4,0c-0.3,0-0.7,0.1-1,0.1c1,1,2.1,1.9,3.1,3.9
		c0,0,0.1,0,0.1,0h0c0.1,0,0.1,0,0.2,0c0.1,0,0.2,0,0.3,0C154.9,151.1,155.6,151.1,156.4,151.1z M153.8,151c0-0.1-0.1-0.2-0.1-0.2
		c0,0,0.1,0,0.1,0V151z"/>
	<path fill="#2F747B" d="M153.8,151v-0.2c0,0-0.1,0-0.1,0C153.7,150.8,153.8,150.9,153.8,151z"/>
	<path fill="#89B02D" d="M180.8,169.7l0.2-0.1L180.8,169.7C180.8,169.7,180.8,169.7,180.8,169.7z"/>
	<path fill="#991A1A" d="M173,51.1C173,51.1,173,51.1,173,51.1c0,0-0.1,0-0.1,0c0,0,0,0,0,0C172.9,51.1,173,51.1,173,51.1z"/>
	<path fill="#991A1A" d="M143.1,24C143.1,24,143.1,24,143.1,24C143.1,24.1,143.1,24.1,143.1,24C143.1,24.1,143.1,24.1,143.1,24
		C143.1,24.1,143.1,24.1,143.1,24z"/>
	<path fill="#991A1A" d="M126.2,84c0.7,0.5,1.4,1,2.1,1.2c0.7,0.3,1.5,0.4,2.3,0.4c0.4,0,0.9,0,1.2-0.1c0.4-0.1,0.7-0.2,1-0.3
		c0.2-0.1,0.4-0.2,0.5-0.3c0.4-0.3,0.7-0.6,0.9-1c0-0.1,0-0.2,0.1-0.3c0.1-0.5,0.2-1.3,0.2-2.5c0-0.9-0.1-1.9-0.2-3.1
		c-0.1-1.1-0.4-2.4-0.7-3.8c-0.2-1.1-0.4-2-0.6-2.7c-0.1-0.3-0.1-0.5-0.1-0.7c-0.1-0.6-0.2-1-0.2-1.1c0-1.6,0.6-3.4,1.8-5.4
		c0-0.7,0.1-1.4,0.1-2.1c0-0.6,0.1-1.2,0.1-1.8c0,0,0,0,0,0l0,0c0-0.9,0-1.7,0.1-2.3c0,0.1,0.1,0.2,0.2,0.3c0,0,0,0,0,0
		c0-0.1,0-0.2,0-0.3c0-0.3,0-0.6,0-0.9c0-0.3-0.1-0.6-0.2-0.9c-0.1-1-0.5-1.9-0.5-2.8c-1,0.1-1.3,0.4-2.3,0.8c0-0.5,0-1,0-1.6
		c1-0.2,1-0.4,2-0.4v0c0,0,0-0.1-0.1-0.1h0.1c0-0.7,0-1-0.1-2c0,0,0,0,0,0c0,0,0,0,0.1,0.1c0,0,0,0,0-0.1c-0.1-1.1,0-2.1,0-3
		c0,0,0,0,0,0v0c0,0,0,0,0,0c0,0-0.1,0-0.1,0c0-0.6,0-1.2,0-1.7c0.1,0,0.1-0.1,0.2-0.1c0-0.1,0-0.1,0-0.2c0-2.8,0.2-5.5,0.6-8.2
		c0-0.2,0.1-0.4,0.1-0.6c0.1-0.6,0.2-1.2,0.3-1.8c0,0,0-0.1,0.1-0.1c0-0.1,0-0.3,0.1-0.5c0-0.2,0.1-0.4,0.1-0.5
		c0.7-2.6,1.5-4.6,2.6-6.1c0.3-0.4,0.6-0.7,0.9-1c0,0,0,0,0-0.1c1.2-1.2,2.5-2,4-2c0,0,0.1,0,0.1,0v-0.3c0,0,0.4,0,0.6,0
		c0,0,0,0.1,0,0.1c0,0,0.1,0,0.1,0c0,0,0,0-0.1,0.1s-0.1,0.1-0.1,0.1c0,0,0,0,0,0c0,0,0,0,0,0c0,0-0.1,0.1-0.1,0.1c0,0-0.1,0-0.1,0
		s-0.1,0-0.1,0c0,0,0,0.1,0,0.3c0,0.2,0,0.5,0,0.9c0,0.3,0.1,0.6,0.1,0.9c0,0.2,0,0.4,0,0.6c0,0.4,0,0.8,0,1.3
		c0,0.7,0.2,1.5,0.7,2.5c1.1,2.1,3.3,5,6.6,8.4c0,0,0.1,0.1,0.1,0.1c0,0,0.1,0.1,0.1,0.1c0.1,0.1,0.2,0.2,0.3,0.3
		c3,2.3,7.4,4.8,13.1,7.5h0h0l0,0h0c0.2,0.1,0.5,0.2,0.7,0.3c0.2,0.1,0.5,0.2,0.7,0.3c0.3,0.1,0.7,0.3,1.3,0.6c0,0,0,0,0,0
		c1,0.4,2.3,0.9,3.9,1.6c0.7,0.3,1.5,0.6,2.3,1c0,0,0.1,0,0.1,0c0,0,0,0,0,0c0,0,0,0,0,0c0,0,0.1,0,0.1,0c0.1,0,0.3,0.1,0.4,0.2v0
		c0,0,0,0.2,0,0.2l0,0c0.6,0.2,1.4,0.5,2.1,0.8c0.6,0.2,1.2,0.5,1.7,0.8l0,0l0,0c0.5,0.2,1,0.5,1.5,0.7c1.4,0.7,2.7,1.3,3.8,2
		c0.7,0.4,1.4,0.8,2,1.2c0.6,0.4,1.1,0.8,1.6,1.2c0,0,0.1,0.1,0.2,0.2c0,0,0-0.1-0.1-0.1c0,0,0-0.1,0-0.1c0-1.9-0.2-3.5-0.4-4.9
		c-0.1-0.6-0.3-1.2-0.5-1.8c0,0,0,0,0,0c-0.2-0.5-0.4-1.1-0.7-1.6c-0.1-0.3-0.3-0.5-0.4-0.8c-0.2-0.3-0.4-0.6-0.6-0.9
		c0,0,0-0.1-0.1-0.1c-0.1-0.1-0.2-0.2-0.2-0.3c-0.3-0.4-0.7-0.8-1-1.2c-0.2-0.2-0.5-0.5-0.8-0.7c-0.5-0.4-1.1-0.9-1.8-1.3
		c-0.4-0.2-0.7-0.5-1.1-0.7s-0.8-0.5-1.3-0.7c-1.4-0.7-3-1.4-4.8-2.1c-0.6-0.2-1.2-0.5-1.9-0.7c-1.8-0.7-3.5-1.3-5.1-1.9
		c-4.9-1.9-8.2-3.3-10-4.3c-0.7-0.4-1.4-0.8-2.2-1.3c-1.7-1.1-3.4-2.4-5.1-3.8c-0.6-0.5-1.2-1-1.8-1.6c-0.4-0.4-0.7-0.7-1-1
		c-1-1-1.7-1.7-2.2-2.2c0.6,0.2,1.4,0.6,2.5,1.2c0.7,0.4,1.4,0.8,2.2,1.2c1.3,0.6,2.7,1.1,4.3,1.6c2.6,0.8,5.7,1.4,9.1,1.8
		c5.6,0.7,11,1.9,16,3.6c0.6,0.2,1.2,0.4,1.7,0.6c4.7,1.7,7.4,3.5,8.1,5.3c0.2,0.4,0.3,0.9,0.5,1.4c0.2,0.5,0.3,1.1,0.5,1.8
		c0.3,1.3,0.6,2.9,0.9,4.7c0.1,0.5,0.2,1.1,0.3,1.8c0,0.2,0.1,0.4,0.1,0.6c0.2,1.5,0.5,3.3,0.7,5.3c0.4,2,0.7,3.6,0.9,4.8
		c0.4-0.1,0.8-0.1,1.1-0.1c0.8,0,1.3,0.1,1.4,0.4c0,0.1,0.1,0.2,0.1,0.4c0,0.1,0,0.2,0,0.4c0,0.1,0,0.3-0.1,0.5
		c0,1.1-0.3,2.1-0.8,3.1c-0.3,0.6-0.8,1.3-1.4,1.9c-0.2,0.2-0.3,0.3-0.5,0.5c0,0,0,0,0.1,0c0,0,0,0,0.1,0.1c0.4,0.4,0.6,0.9,0.6,1.6
		c0,0.6-0.2,1.2-0.7,1.7c-0.4,0.4-1,0.7-1.7,0.7c-0.6,0-1.2-0.2-1.7-0.7c-0.1-0.1-0.1-0.2-0.2-0.2c0,0-0.1,0.1-0.1,0.1
		c0,0.1-0.1,0.3-0.2,0.4c0,0.1,0,0.3,0,0.5c0,0.3,0,0.7-0.1,1.2s-0.1,0.9-0.1,1.5c0,0.6-0.1,1.2-0.1,1.8c0,0.3,0,0.7-0.1,1
		c0,4.2,0.5,6.8,1.4,7.9c0.3,0.3,0.7,0.7,1.3,1c0.2,0.1,0.4,0.2,0.7,0.3c0.4,0.2,0.8,0.4,1.3,0.6s1,0.4,1.5,0.5
		c0.8,0.3,1.8,0.5,2.8,0.8c0.3,0.1,0.7,0.2,1.1,0.3c1.2,0.3,2.7,0.6,4.6,0.8c0.6,0.1,1.3,0.1,2.1,0.2c1.6-0.8,3.1-1.8,4.6-3.1
		c3.7-3.1,5.5-6.1,5.5-9c0-0.7-0.1-1.5-0.4-2.3c-1.5,1.4-2.7,2.5-3.6,3.2c-1.7,1.4-3.3,2.1-4.7,2.1c-1.8,0-3,0-3.6-0.2
		c-0.7-0.2-1-0.6-1-1.3c2.1-2.9,4.2-6.2,6.4-9.8c3.7-6.3,5.8-12.6,6.3-18.9c0-0.9,0.1-1.9,0.1-2.9c0-3.7-0.3-8.9-0.8-15.4
		c-0.1-1.8-0.4-3.6-1-5.3c-2.4-3.9-5.5-6.9-9.3-8.9c-6.3-3.2-11.8-5.2-16.2-6.1c-2.8-0.5-7.8-0.7-15-0.7c-6.8,0-12.1,0.3-15.9,0.9
		c-5,0.8-9.4,2.3-13.1,4.6c-0.1,0-0.2,0.1-0.3,0.2s-0.3,0.2-0.4,0.3c-0.3,0-0.7,0-1.1,0c-1.4,0-3.6,0.6-6.4,1.9
		c-3.5,1.5-5.6,3.3-6.3,5.2c-1.4,3.9-2.1,6.4-2.2,7.2c0,0.2,0,0.6,0,1.2c0,1.1,0.1,3,0.3,5.5c0,3.5,0.2,6.3,0.6,8.4
		c0.1,0.9,0.4,2.2,0.7,3.7c0.1,0.9,0.4,1.9,0.6,3.1c0.6,3,1.2,5.9,1.7,8.7c0.4,2.8,0.8,4.7,1.1,5.7c0.3,1,0.5,2,0.7,3
		c0.1,0.4,0.1,1.8,0.1,3.9c0,0.6,0,1.2,0,1.7c-0.1,2-0.4,3.5-0.9,4.4c-0.6,1.1-1.7,1.6-3.2,1.6c-1.8,0-3.1-0.3-3.9-0.9
		c0.2,0.4,0.4,0.8,0.7,1.2c0.1,0,0.2,0,0.3,0C124.4,82.3,125,82.9,126.2,84z M143,21v-0.1c0-0.1,0-0.3,0-0.4c1-1,2.1-1.8,3.5-2.4
		c1.3-0.6,2.8-1.1,4.5-1.3c0.5-0.1,1.1-0.2,1.7-0.2c0,0,0.1-0.1,0.1-0.1c0.6,0,1.2-0.3,1.8-0.3c0,0,0,0,0,0c0,0,0,0,0,0c0,0,0,0,0,0
		c1,0,2.6,0.4,4.9,0.7c1.3,0.2,2.9,0.5,4.7,0.8c0.8,0.1,1.9,0.2,3.3,0.2c1.4,0,3.2,0,5.2-0.1c1.5-0.1,3.2-0.1,4.2-0.1v0v0
		c0,0,0.6,0,1,0c1.5,0,2.6,0.1,3.5,0.2c7.7,1,13.3,2.6,16.8,4.8c0.4,0.2,0.8,0.5,1.2,0.8c0.4,0.3,0.7,0.6,1,0.9
		c0.5,0.5,0.9,1.1,1.3,1.7c0.4,0.6,0.8,1.3,1.1,2.1c0.5,1.3,1,2.8,1.3,4.4c0.1,0.6,0.2,1.1,0.3,1.7c0.2,1.2,0.3,2.5,0.4,3.9
		c0.1,1.4,0.1,2.8,0.1,4.4c0,0.8,0,1.5,0,2.2c0,2.3-0.2,4.4-0.3,6.3c0,0.4-0.1,0.8-0.1,1.2c0,0.2,0,0.3-0.1,0.5
		c-0.1,0.7-0.2,1.3-0.3,2c0,0,0,0.1,0,0.1c-0.2,1.3-0.5,2.5-0.8,3.6c0,0,0,0,0,0c-0.2,0.5-0.3,1.1-0.5,1.5c-1,2.9-4.2,8.8-9.6,17.7
		c0.1-0.3,0.3-1.4,0.7-3.2c0.1-0.5,0.2-1.1,0.4-1.7c0.1-0.6,0.3-1.3,0.5-2.1s0.3-1.6,0.5-2.4c0.2-0.9,0.4-1.8,0.6-2.8
		c0.1-0.5,0.2-1,0.3-1.5c0.2-1.1,0.4-2.1,0.6-3.1c0.1-0.3,0.1-0.6,0.2-1c0.1-0.8,0.3-1.6,0.4-2.4c0.1-0.6,0.2-1.2,0.2-1.8
		c0-0.1,0-0.2,0-0.2c0.1-0.7,0.1-1.3,0.2-2c0.2-1.9,0.3-3.8,0.3-5.7c0-0.7,0-1.4,0-2.1c0-2-0.2-3.8-0.4-5.2c-0.1-0.5-0.1-1-0.2-1.4
		c-0.2-1.3-0.6-2.3-1-3.1c-0.4-0.7-0.8-1.4-1.4-2.1c-0.6-0.7-1.3-1.3-2.2-1.9c-1.3-0.9-2.8-1.7-4.6-2.5c-0.6-0.3-1.2-0.5-1.9-0.7
		c-0.1,0-0.1,0-0.2-0.1c-0.1,0-0.1,0-0.2-0.1c-8.4-3.3-14.3-5.4-17.5-6.3c-1.8-0.5-3.4-0.9-5-1.3c-0.5-0.1-1-0.3-1.5-0.4
		c-3-0.7-5.6-1.2-7.8-1.6c-0.7-0.1-1.4-0.2-2-0.3c-0.3,0-0.6-0.1-0.9-0.1c-0.9-0.1-1.7-0.1-2.4-0.1c-1,0-1.8,0.1-2.5,0.2
		c-0.7,0.1-1.2,0.3-1.6,0.5c0,0-0.1,0-0.1,0.1c0,0-0.1,0.1-0.1,0.1c-0.1,0.1-0.3,0.3-0.5,0.5c-0.1,0.1-0.2,0.1-0.3,0.2
		c-0.2,0.2-0.4,0.4-0.6,0.6c-0.1,0.1-0.1,0.2-0.2,0.4h-0.1h0h0h0V21z M130.3,32.7c-0.4,0.5-0.8,1.1-1.2,1.8
		c-0.1,0.2-0.3,0.5-0.4,0.8c-0.3,0.8-0.6,1.6-0.7,2.6c0,0.1,0,0.2,0,0.3c-0.1,0.7-0.1,2.2-0.1,4.3c0,0.5,0,1.1,0.1,1.7
		c0,0.5,0.1,1,0.1,1.5c0,0.1,0.1,0.1,0.1,0.2c0.1,1.5,0.8,3.2,0.8,5.1v2.8l-0.2,0.1v0l0,0c-0.2-1.1-0.4-2-0.5-3
		c-0.7-4.6-1.1-7.6-1.2-8.8c0,0,0-0.1,0-0.1c0-0.1,0-0.3,0-0.4c0-0.5,0-0.9-0.1-1.4c0-0.9-0.1-1.7-0.1-2.5c0-0.8,0-1.5-0.1-2.1
		c0,0,0,0,0,0c0-1,0-1.8-0.1-2.6c0-0.5,0.1-0.9,0.1-1.2c0,0,0.1-0.1,0.1-0.2c0,0,0,0,0,0c0-0.4-0.1-0.7-0.1-0.9
		c0-2.1,0.2-3.9,0.8-5.4c0.4-0.9,0.9-1.7,1.5-2.3c0.4-0.4,0.8-0.8,1.3-1.1s1-0.6,1.6-0.9c0.6-0.2,1.2-0.5,1.9-0.6
		c0.7-0.1,1.4-0.4,2.2-0.4c0,0,0.1,0,0.1,0c0.1,0,0.2,0.3,0.3,0.3c0.1,0,0.2,0.2,0.2,0.2l0,0.1v2.5c0,0.6-0.6,1.7-1.7,3.3
		c-0.6,0.8-1.2,1.7-2.1,2.7c-0.4,0.5-0.9,1.1-1.3,1.6C131.4,31.4,130.9,32,130.3,32.7z"/>
	<path fill="#991A1A" d="M190.6,69.7c-0.4,0.3-0.9,0.4-1.5,0.4c-0.4,0-0.7-0.1-1-0.2l0,0c0.3,0.1,0.6,0.2,1,0.2
		C189.7,70.1,190.2,70,190.6,69.7z"/>
	<path fill="#BC2121" d="M133.2,29.2c0.8-1,1.5-1.9,2.1-2.7c1.1-1.6,1.7-2.7,1.7-3.3v-2.5c0,0-0.1-0.3-0.2-0.3
		c-0.1,0-0.2-0.3-0.3-0.3c0,0-0.1,0-0.1,0c-0.8,0-1.5,0.3-2.2,0.4c-0.7,0.1-1.3,0.4-1.9,0.6c-0.6,0.2-1.1,0.5-1.6,0.9
		s-0.9,0.7-1.3,1.1c-0.6,0.6-1.1,1.4-1.5,2.3c-0.6,1.5-0.8,3.3-0.8,5.4c0,0.2,0.1,0.6,0.1,0.9c0,0,0,0,0,0c0,0-0.1,0.1-0.1,0.2
		c0,0.3-0.1,0.7,0,1.2c0,0.7,0,1.6,0,2.6c0,0,0,0,0,0c0,0.7,0,1.4,0,2.1c0,0.8,0,1.6,0.1,2.5c0,0.4,0,0.9,0,1.4c0,0.1,0,0.2,0,0.4
		c0,0,0,0.1,0,0.1c0.1,1.2,0.5,4.2,1.2,8.8c0.1,0.9,0.4,1.9,0.5,3v0l0.2-0.1v-2.8c0-1.9-0.6-3.6-0.8-5.1c0-0.1-0.1-0.1-0.1-0.2
		c0-0.5-0.1-1-0.1-1.5c0-0.6-0.1-1.1-0.1-1.7c0-2.1,0-3.6,0.1-4.3c0-0.1,0-0.2,0-0.3c0.1-0.9,0.3-1.8,0.7-2.6
		c0.1-0.3,0.2-0.5,0.4-0.8c0.3-0.6,0.7-1.2,1.2-1.8c0.5-0.6,1.1-1.2,1.5-1.8C132.4,30.3,132.8,29.7,133.2,29.2z"/>
	<path fill="#BC2121" d="M143.3,20.7c0.2-0.2,0.4-0.4,0.6-0.6c0.1-0.1,0.2-0.2,0.3-0.2c0.2-0.2,0.4-0.3,0.6-0.4c0,0,0.1-0.1,0.1-0.1
		c0,0,0.1,0,0.1-0.1c0.4-0.2,0.9-0.6,1.6-0.7c0.7-0.1,1.5-0.4,2.5-0.4c0,0,0,0,0,0c0.7,0,1.5,0.3,2.4,0.4c0.3,0,0.6,0.2,0.9,0.2
		c0.6,0.1,1.3,0.2,2,0.4c2.2,0.4,4.8,0.9,7.8,1.6c0.5,0.1,1,0.3,1.5,0.4c1.6,0.4,3.2,0.8,5,1.3c3.2,0.9,9.1,3,17.5,6.3
		c0.1,0,0.1,0.1,0.2,0.1c0.1,0,0.1,0.1,0.2,0.1c0.7,0.2,1.3,0.5,1.9,0.7c1.8,0.8,3.3,1.6,4.6,2.5c0.8,0.6,1.6,1.2,2.2,1.9
		c0.6,0.7,1.1,1.4,1.4,2.1c0.4,0.8,0.7,1.8,1,3.1c0.1,0.4,0.2,0.9,0.2,1.4c0.2,1.5,0.3,3.2,0.4,5.2c0,0.7,0,1.4,0,2.1
		c0,1.8-0.1,3.7-0.3,5.7c-0.1,0.6-0.1,1.3-0.2,2c0,0.1,0,0.2,0,0.2c-0.1,0.6-0.1,1.2-0.2,1.8c-0.1,0.8-0.2,1.6-0.4,2.4
		c-0.1,0.3-0.1,0.6-0.2,1c-0.2,1-0.4,2.1-0.6,3.1c-0.1,0.5-0.2,1-0.3,1.5c-0.2,1-0.4,1.9-0.6,2.8c-0.2,0.9-0.4,1.7-0.5,2.4
		s-0.3,1.4-0.5,2.1c-0.1,0.6-0.3,1.2-0.4,1.7c-0.4,1.8-0.6,2.9-0.7,3.2c5.3-8.8,8.5-14.7,9.6-17.7c0.2-0.5,0.3-1,0.5-1.5
		c0,0,0,0,0,0c0.3-1.1,0.6-2.3,0.8-3.6c0,0,0-0.1,0-0.1c0.1-0.6,0.2-1.3,0.3-2c0-0.2,0-0.3,0.1-0.5c0-0.4,0.1-0.8,0.1-1.2
		c0.2-1.9,0.3-4,0.3-6.3c0-0.7,0-1.5,0-2.2c0-1.6,0-3-0.1-4.4c-0.1-1.4-0.2-2.7-0.4-3.9c-0.1-0.6-0.2-1.2-0.3-1.7
		c-0.3-1.7-0.8-3.2-1.3-4.4c-0.3-0.8-0.7-1.5-1.1-2.1c-0.4-0.6-0.9-1.2-1.3-1.7c-0.3-0.3-0.6-0.6-1-0.9c-0.4-0.3-0.7-0.5-1.2-0.8
		c-3.4-2.1-9-3.7-16.8-4.8c-0.9-0.1-2.1-0.2-3.6-0.2c-0.4,0-0.7,0-1.1,0c0,0,0,0,0,0c-1.2,0-2.5,0.2-4,0.2c-2,0.1-3.7,0.3-5.1,0.3
		c0,0,0,0,0,0c-1.4,0-2.5-0.2-3.3-0.3c-1.8-0.3-3.4-0.8-4.7-1c-2.2-0.3-3.9-0.7-4.9-0.7c0,0,0,0,0,0c0,0,0,0,0,0c0,0,0,0,0,0
		c-0.6,0-1.2,0.2-1.8,0.3c0,0-0.1,0.1-0.1,0.1c-0.6,0-1.2,0.2-1.7,0.2c-1.7,0.2-3.2,0.7-4.5,1.3c-1.3,0.6-2.5,1.4-3.5,2.4
		c0,0.1,0,0.3,0,0.4V21C143,20.9,143.2,20.8,143.3,20.7z"/>
	<path fill="#F1CC96" d="M168.9,88.4c2.1-0.8,3.9-1.4,5.4-2c0.8-0.3,1.5-0.5,2.1-0.7c0.3-0.1,0.6-0.2,0.9-0.3
		c0.3-0.1,0.5-0.2,0.8-0.3c0.1,0,0.1,0,0.2-0.1c0.1,0,0.1,0,0.2-0.1c0.3-0.2,0.6-0.4,0.9-0.7c0.6-0.5,1.1-1,1.7-1.6
		c1-1.2,2-2.6,2.8-4.2c0.2-0.4,0.4-0.8,0.6-1.2c0.6-1.3,1.1-2.5,1.7-3.6s1-2,1.5-2.9c0.1-0.1,0.2-0.3,0.2-0.4c0,0,0.1-0.1,0.1-0.1
		c-0.1-0.1-0.2-0.3-0.2-0.4c0.1,0.1,0.3,0.1,0.4,0.2v0c-0.1-0.1-0.3-0.1-0.4-0.2c-0.1-0.3-0.2-0.6-0.2-1c0-0.6,0.2-1.2,0.7-1.7
		s1-0.7,1.7-0.7c0.6,0,1.2,0.2,1.6,0.7c0.2-0.2,0.3-0.3,0.5-0.5c0.6-0.6,1-1.2,1.4-1.9c0.5-1,0.8-2,0.8-3.1c0-0.2,0-0.4,0.1-0.5
		c0-0.1,0-0.3,0-0.4c0-0.2,0-0.4-0.1-0.4c-0.1-0.2-0.6-0.4-1.4-0.4c-0.3,0-0.7,0-1.1,0.1c-0.4,0.1-0.8,0.2-1.2,0.4s-0.9,0.4-1.4,0.6
		c-0.3-0.4-0.6-0.8-0.9-1.1c-0.1-0.1-0.1-0.2-0.2-0.3c-0.4-0.4-0.8-0.8-1.2-1.2c0,0,0,0,0,0c-0.1,0-0.2-0.1-0.2-0.2
		c-0.4-0.4-1-0.8-1.6-1.2c-0.6-0.4-1.2-0.8-2-1.2c-1.1-0.6-2.3-1.3-3.8-2c-0.5-0.2-1-0.5-1.5-0.7l0,0c0.3,0.4,0.6,0.8,0.9,1.3
		c0.2,0.3,0.3,0.6,0.4,1c0,0.1,0,0.1,0.1,0.2c0,0.1,0.1,0.3,0.1,0.4l2.2,2.9v0c-0.2,0.3-0.4,0.7-0.6,1s-0.5,0.7-0.8,1.1
		c-0.1,0.1-0.2,0.3-0.3,0.5c0,0,0,0,0,0.1c0,0,0,0,0,0c0,0-0.1,0.1-0.2,0.2c0,0-0.1,0.1-0.1,0.1h0.1c0,0,0.1,0,0,0.1
		c-0.1,0.1-0.2,0.1-0.4,0.3c-0.2,0.2-0.4,0.4-0.6,0.5c-0.6,0.4-1.2,0.8-2,1c-0.5,0.2-1.1,0.3-1.7,0.4c-0.9,0.2-1.9,0.2-3,0.2h0
		c-1.8,0-3.6-0.3-5.6-1c-0.2-0.1-0.4-0.2-0.7-0.2c-0.6-0.2-1.1-0.5-1.7-0.7c-0.7-0.4-1.2-0.7-1.7-1c-0.7-0.4-1.3-0.7-1.8-1
		c-0.1-0.1-0.3-0.1-0.4-0.2c0,0,0.1-0.1,0.1-0.1c0,0-0.1,0-0.1-0.1l-0.2-0.3h0c0,0-0.1,0-0.1,0c0,0,0,0,0,0c0,0,0,0,0,0h0h0H159H159
		l0,0v0v0v0v0v-0.4c0.2-0.3,0.5-0.7,0.8-1.1c0-0.1,0.1-0.1,0.1-0.2c0.3-0.4,0.6-0.7,1-1.1c0.2-0.2,0.4-0.4,0.6-0.5
		c0.8-0.7,1.8-1.5,3.1-2.4c2.6-1.6,4.9-2.6,6.8-3c0,0,0,0,0,0c0.5-0.1,1-0.3,1.4-0.3c0,0,0.1,0,0.1,0c-0.8-0.3-1.6-0.7-2.3-1
		c-1.6-0.7-2.9-1.2-3.9-1.6c0,0,0,0,0,0c0,0,0,0,0,0c0,0,0,0,0,0c-1.6,0.3-3,0.7-4.2,1.5c-0.9,0.7-1.7,1.3-2.5,1.8
		c-0.4,0.3-0.8,0.5-1.1,0.7c-0.4,0.2-0.7,0.4-1,0.6c-0.2-0.5-0.3-0.9-0.4-1.3c-0.1-0.4-0.1-0.8-0.1-1.1v0c0,0,0,0,0,0
		c0-0.4,0.2-0.7,0.6-1.1c0.1-0.1,0.3-0.2,0.5-0.4s0.4-0.2,0.6-0.3c0.4-0.2,1-0.5,1.6-0.7c0.3-0.1,0.6-0.2,1-0.3
		c0.4-0.1,0.8-0.2,1.2-0.4c0.4-0.1,0.8-0.2,1.1-0.3h0h0c-5.7-2.6-10-5.1-13.1-7.5c-0.1-0.1-0.2-0.2-0.3-0.3c0,0-0.1-0.1-0.1-0.1
		c0,0-0.1-0.1-0.1-0.1c-3.4-3.5-5.6-6.3-6.6-8.4c-0.5-1-0.7-1.8-0.7-2.5c0-0.5,0-0.9,0-1.3c0-0.2,0-0.4,0-0.6c0-0.4-0.1-0.7-0.1-0.9
		c0-0.4,0-0.7,0-0.9c0-0.1,0-0.2,0-0.3c0,0,0.1,0,0.1,0s0,0,0,0c0,0,0.1-0.1,0.2-0.1c0,0,0,0,0.1,0c0,0,0,0,0.1,0
		c0,0,0.1-0.1,0.1-0.1c0,0,0,0,0,0c0,0,0,0,0,0c0,0,0-0.1,0-0.1c-0.1,0-0.6,0-0.6,0v0.3c-0.1,0-0.1,0-0.1,0c-1.5,0-2.8,0.8-4,2
		c0,0,0,0,0,0.1c-0.3,0.3-0.6,0.6-0.9,1.1c-1.1,1.5-1.9,3.7-2.6,6.2c0,0.1-0.1,0.6-0.1,0.6h0.1c-0.1,0-0.1,0.1-0.2,0.3
		c0,0,0,0.1-0.1,0.1c-0.1,0.6-0.2,1.2-0.3,1.8c0,0.2-0.1,0.4-0.1,0.7c-0.4,2.6-0.6,5.3-0.6,8.1c0,0,0,0.1,0,0.2c0,0,0,0,0,0
		c0.2-0.2,0.8-0.3,1.2-0.3c0,0,0,0,0,0c0,0,0,0,0,0c0,0,0,0,0.1,0c1,0,2.3,0.2,4,0.7c0.6,0.1,1.1,0.3,1.8,0.5
		c0.7,0.2,1.3,0.2,1.9,0.4c1.6,0.6,2.4,1.6,2.4,1.6h0c0,0.7,0,0.6,0,0.5c0,0.1,0,0.1,0,0.2c0,0.3-0.1,0.7-0.3,1.3
		c0.1,0.2,0.2,0.4,0.4,0.6c0.3,0.4,0.5,0.9,0.8,1.3c0.2,0.4,0.4,0.8,0.6,1.1c0.2,0.4,0.5,0.9,0.6,1.3c0.1,0.2,0.2,0.4,0.2,0.6
		c0.2,0.5,0.4,0.9,0.5,1.3c0.1,0.2,0.1,0.5,0.2,0.9c0,0,0,0,0,0.1c0,0,0,0.1,0,0.1c0,0.2,0,0.4,0.1,0.6c0,0.1,0,0.3,0,0.4
		c0,0.2,0,0.5,0,0.7c0,0.1,0,0.3,0,0.4c0,0.3,0.1,0.6,0.1,0.9c0,0.1,0.1,0.3,0.1,0.4c0,0.4,0.2,0.8,0.2,1.2c0,0.1,0,0.1,0,0.2
		c0,0,0,0,0,0c0,0,0,0,0,0v0c0,1.5-0.2,3-0.4,4.3c-0.1,1.2-0.4,2.5-0.6,3.4c0,0.1,0,0.2,0.1,0.3c0.1,0.1,0.3,0.3,0.6,0.4
		c0.5,0.2,1.4,0.4,2.5,0.5c0,0.1,0.1,0.2,0.1,0.4c0.1,0.3-0.1,0.6-0.1,0.9c0,0.2-0.2,0.3-0.2,0.5c0,0,0,0,0,0c0,0,0.3,0.1,0.3,0.1
		c0,0.3,0.2,0.6,0.2,0.8c-0.1,0.4-0.1,0.7-0.3,1.1c0,0.1-0.1,0.2-0.1,0.2c0.4,0,0.8,0,1.3,0c0,0,0,0,0,0c0.3,0,0.7,0,1,0
		c1.1,0.1,2.6,1,4.3,1c0,0,0,0,0,0c0,0,0,0,0,0c0,0,0,0.2,0,0.2c0.7,0.1,1.5,0.3,2.5,0.6c0.2,0,0.4,0.2,0.6,0.2h0.2v0.3
		c-0.2,0.2-0.3,0.3-0.4,0.5c-0.3,0.5-0.5,1-0.8,1.4c-0.1,0.3-0.2,0.5-0.3,0.7c-0.2,0.4-0.5,0.8-0.7,1.1c-0.1,0.1-0.2,0.2-0.2,0.3
		c-0.1,0.2-0.2,0.3-0.3,0.4c-1.9,2.6-3.9,4-6,4.3h0c-0.1,0-0.1,0-0.2,0v0c0,0.1,0.3,0.2,0.4,0.4c0.1,0.2,0.3,0.4,0.5,0.7
		c0.2,0.3,0.3,0.6,0.4,0.9c0.1,0.2,0.1,0.4,0.1,0.6c0,0.4-0.3,0.8-1,1.2c-0.4,0.2-0.6,0.4-0.8,0.6c-0.1,0.1-0.2,0.3-0.2,0.4
		c0,0.1-0.1,0.3-0.1,0.5l0.1,1.7c0,0,0,0,0,0l0,0.1c1,0.4,2.1,0.8,3.1,0.8c0,0,0.1,0,0.2,0c0.4,0,1-0.2,1.7-0.4
		c1.7-0.5,4.3-1.5,7.7-3c0,0,0,0,0,0c0.5-0.2,1.1-0.5,1.7-0.8C166.9,89.4,167.9,88.8,168.9,88.4z M143.1,24
		C143.1,24,143.1,24,143.1,24C143.1,24,143.1,24,143.1,24C143.1,24.1,143.1,24.1,143.1,24C143.1,24.1,143.1,24.1,143.1,24
		C143.1,24.1,143.1,24.1,143.1,24C143.1,24.1,143.1,24.1,143.1,24z"/>
	<path fill="#F1CC96" d="M173.7,51.3c-0.1,0-0.3-0.1-0.4-0.2C173.4,51.2,173.6,51.3,173.7,51.3L173.7,51.3z"/>
	<path fill="#F1CC96" d="M173.1,51.1C173.1,51.1,173.1,51.1,173.1,51.1C173.1,51.1,173,51.1,173.1,51.1
		C173,51.1,173,51.1,173.1,51.1C173.1,51.1,173.1,51.1,173.1,51.1z"/>
	<path fill="#7B1515" d="M189.8,49.2c-0.1-0.6-0.2-1.2-0.3-1.8c-0.3-1.8-0.6-3.4-0.9-4.7c-0.2-0.7-0.3-1.3-0.5-1.8
		c-0.2-0.5-0.3-1-0.5-1.4c-0.7-1.8-3.4-3.5-8.1-5.3c-0.5-0.2-1.1-0.4-1.7-0.6c-5-1.7-10.4-2.9-16-3.6c-3.5-0.4-6.5-1-9.1-1.8
		c-1.6-0.5-3-1-4.3-1.6c-0.8-0.5-1.6-0.9-2.2-1.2c-1.1-0.6-1.9-1-2.5-1.2c0.5,0.5,1.2,1.2,2.2,2.2c0.3,0.3,0.7,0.7,1,1
		c0.6,0.5,1.2,1.1,1.8,1.6c1.7,1.5,3.5,2.8,5.1,3.8c0.7,0.5,1.5,0.9,2.2,1.3c1.7,0.9,5.1,2.4,10,4.3c1.5,0.6,3.2,1.2,5.1,1.9
		c0.7,0.2,1.3,0.5,1.9,0.7c1.8,0.7,3.4,1.4,4.8,2.1c0.5,0.2,0.9,0.5,1.3,0.7s0.8,0.5,1.1,0.7c0.7,0.4,1.3,0.9,1.8,1.3
		c0.3,0.2,0.6,0.5,0.8,0.7c0.4,0.4,0.7,0.8,1,1.2c0.1,0.1,0.2,0.2,0.2,0.3c0,0,0,0.1,0.1,0.1c0.2,0.3,0.4,0.6,0.6,0.9
		c0.1,0.2,0.3,0.5,0.4,0.8c0.3,0.5,0.5,1,0.7,1.6c0,0,0,0,0,0c0.2,0.6,0.4,1.2,0.5,1.8c0.2,1.3,0.4,2.9,0.4,4.9c0,0,0,0,0,0.1
		c0,0,0,0.1,0.1,0.1c0,0,0,0,0,0c0.4,0.4,0.8,0.8,1.2,1.2c0.1,0.1,0.1,0.2,0.2,0.3c0.3,0.4,0.6,0.7,0.9,1.1c0.5-0.2,0.9-0.5,1.4-0.6
		s0.8-0.3,1.2-0.4c-0.2-1.1-0.5-2.7-0.9-4.8C190.3,52.9,190,50.9,189.8,49.2z"/>
	<path fill="#6D1212" d="M164.8,47.6c-0.2-0.1-0.5-0.2-0.7-0.3h0c-0.4,0.1-0.7,0.2-1.1,0.3c-0.4,0.1-0.8,0.2-1.2,0.4
		c-0.3,0.1-0.7,0.2-1,0.3c-0.6,0.2-1.1,0.4-1.6,0.7c-0.2,0.1-0.4,0.2-0.6,0.3s-0.3,0.2-0.5,0.4c-0.4,0.4-0.6,0.7-0.6,1.1v0
		c0,0.3,0,0.7,0.1,1.1c0.1,0.4,0.2,0.8,0.4,1.3c0.3-0.2,0.7-0.4,1-0.6c0.4-0.2,0.7-0.5,1.1-0.7c0.8-0.5,1.6-1.1,2.5-1.8
		c1.2-0.7,2.6-1.2,4.2-1.5c0,0,0,0,0,0c0,0,0,0,0,0c-0.5-0.2-0.9-0.4-1.3-0.6C165.3,47.8,165,47.7,164.8,47.6z"/>
	<path fill="#E9AF5A" d="M159.2,60.1L159.2,60.1L159.2,60.1H159c0,0,0,0-0.1,0.1h0.1L159.2,60.1L159.2,60.1L159.2,60.1
		C159.2,60.1,159.2,60.1,159.2,60.1C159.2,60.1,159.2,60.1,159.2,60.1C159.2,60.1,159.2,60.1,159.2,60.1L159.2,60.1z"/>
	<path fill="#E9AF5A" d="M159,60.1L159,60.1c1-1.1,2.3-2.2,3.4-3.1c0.9-0.7,1.8-1.2,2.8-1.6c0.6-0.3,1.1-0.5,1.7-0.7
		c1.1-0.3,2.2-0.5,3.3-0.5c0,0,0,0,0,0c0,0,0,0,0,0c0.4,0,0.7,0,1.1,0c0,0,0,0,0,0c0.7,0,1.4-0.2,2.1,0s1.4,0.1,2.1,0.4
		c0.6,0.2,1.2,0.4,1.8,0.7c0.6,0.3,1.2,0.6,1.7,1c0-0.2-0.1-0.3-0.1-0.4c0-0.1-0.1-0.1-0.1-0.2c-0.1-0.4-0.3-0.7-0.4-1
		c-0.3-0.5-0.5-1-0.9-1.3c-0.5-0.2-1.1-0.6-1.7-0.8c-0.7-0.3-1.5-0.6-2.1-0.8v0l0,0c0,0,0-0.2,0-0.2c-0.1,0-0.3-0.1-0.4-0.2
		c0,0-0.1,0-0.1,0c0,0,0,0,0,0c0,0-0.1,0-0.1,0c0,0-0.1,0-0.1,0c-0.4,0-0.9,0.2-1.4,0.3c0,0,0,0,0,0c-1.9,0.4-4.3,1.4-6.8,3
		c-1.3,0.8-2.3,1.6-3.1,2.4c-0.2,0.2-0.4,0.4-0.6,0.5c-0.4,0.4-0.7,0.8-1,1.1c0,0.1-0.1,0.1-0.1,0.2c-0.3,0.4-0.5,0.7-0.8,1.1
		L159,60.1L159,60.1L159,60.1z"/>
	<path d="M159,60.1L159,60.1L159,60.1L159,60.1L159,60.1L159,60.1L159,60.1L159,60.1C159,60.1,159,60.1,159,60.1L159,60.1z"/>
	<path d="M179.1,56.1c-0.6-0.4-1.1-0.7-1.7-1c-0.6-0.3-1.2-0.5-1.8-0.7c-0.7-0.2-1.4-0.3-2.1-0.4s-1.4,0-2.1,0c0,0,0,0,0,0
		c-0.4,0-0.7,0-1.1,0c0,0,0,0,0,0c-1.1,0-2.2,0.3-3.3,0.6c-0.6,0.2-1.2,0.4-1.7,0.7c-1,0.4-1.9,1-2.8,1.6c-1.2,0.9-2.4,2-3.4,3.1
		h0.1h0h0h0.1h0.1h0l0.2,0.3c0.8-1,1.7-1.8,2.7-2.5c0.3-0.2,0.7-0.4,1-0.6c0.7-0.4,1.5-0.8,2.2-1.2c0.7-0.3,1.5-0.6,2.3-0.9
		s1.6-0.5,2.4-0.6c0.4-0.1,0.8-0.1,1.2-0.1c1.2,0,2.3,0.2,3.5,0.7c0.6,0.3,1.2,0.8,1.9,1.3c0.6,0.6,1.2,1.2,1.8,1.8l0.8,1.7l0.4,1.2
		c0.3-0.3,0.6-0.7,0.8-1.1s0.4-0.7,0.6-1L179.1,56.1C179.1,56.1,179.1,56.1,179.1,56.1C179.1,56.1,179.1,56.1,179.1,56.1z"/>
	<path fill="#5E7A30" d="M174,57.4c0,0.1,0,0.3,0.1,0.4c0-0.2,0-0.4,0-0.5L174,57.4z"/>
	<path fill="#5E7A30" d="M178.4,58.2l0.1,0.4c0-0.1,0.1-0.2,0.1-0.4c-0.5-0.6-1.1-1.2-1.8-1.8c-0.6-0.5-1.2-0.9-1.9-1.3
		c-1.1-0.5-2.3-0.7-3.5-0.7c-0.4,0-0.8,0-1.2,0.1c-0.8,0.2-1.6,0.4-2.4,0.6s-1.5,0.5-2.3,0.9v0l0,0.8c0,4.7,2.6,7,7.7,7
		C175.8,63.9,177.5,62,178.4,58.2z M175.6,57.2c0,0.6-0.3,0.9-0.8,0.9c0,0,0,0-0.1,0c0,0,0,0-0.1,0c-0.3,0-0.7-0.1-0.7-0.2
		c0,0.1,0,0.2,0,0.3c0,1.8-0.7,2.8-2.1,2.8c-1.7,0-2.6-0.8-2.6-2.2c0-0.9,1-1.7,2.9-2.7h0.2c0.2,0,0.3,0,0.5,0c0.6,0,1,0.3,1.1,1.1
		l0.3-0.8C175.2,56.5,175.6,56.7,175.6,57.2C175.6,57.2,175.6,57.2,175.6,57.2C175.6,57.2,175.6,57.2,175.6,57.2z"/>
	<path fill="#FFFFFF" d="M179,61.7c0-0.6,0-1.1,0-1.7l-0.5-1.4l-0.1-0.4c-0.9,3.7-2.6,5.6-5.2,5.6c0,0,0,0,0,0c-5.2,0-7.7-2.3-7.7-7
		l0.1-0.8c-0.7,0.3-1.5,0.7-2.2,1.2c-0.4,0.2-0.7,0.4-1,0.7c-1,0.7-1.8,1.5-2.6,2.5c0,0-0.1,0.1-0.1,0.1c0.1,0.1,0.2,0.1,0.4,0.2
		c0.5,0.2,1.1,0.6,1.8,1c0.5,0.3,1.1,0.6,1.7,1c0.6,0.3,1.2,0.5,1.7,0.7c0.2,0.1,0.4,0.2,0.7,0.2c2,0.7,3.9,1,5.6,1h0
		c1.1,0,2.1-0.1,3-0.2c0.6-0.1,1.2-0.2,1.7-0.4c0.8-0.3,1.4-0.6,2-1c0.2-0.2,0.4-0.3,0.6-0.5c0.1-0.1,0.2-0.1,0.4-0.3
		c0,0-0.1-0.1,0-0.1h-0.1H179C179,62.1,179,61.7,179,61.7z"/>
	<path fill="#E9AF5A" d="M151.2,91.5c0-0.2,0-0.3,0.1-0.5c0-0.1,0.1-0.3,0.2-0.4c0.2-0.2,0.5-0.5,0.8-0.6c0.7-0.3,1-0.7,1-1.2
		c0-0.1,0-0.3-0.1-0.6c-0.1-0.2-0.2-0.5-0.4-0.9c-0.1-0.3-0.4-0.5-0.5-0.7c-0.1-0.2-0.4-0.3-0.4-0.4v0c-0.1,0-0.2,0-0.3,0
		c-0.1,0-0.1-0.1-0.2-0.1c0,0,0,0,0,0h0c0,0,0,0,0,0c0,0,0,0,0,0c-0.3,0-0.6,0-0.9-0.2c-0.1,0-0.1-0.1-0.1-0.1
		c-0.1,0-0.2-0.1-0.2-0.1c-0.3-0.3-0.5-0.6-0.7-1c-0.1-0.1-0.1-0.3-0.2-0.5c-0.1-0.4-0.2-1-0.3-1.5c0-0.4,0-0.8-0.1-1.3
		c0-0.7-0.1-1.3-0.1-1.8c0,0,0,0,0-0.1c0,0,0,0,0,0c0,0,0-0.1,0-0.1c0,0,0,0,0-0.1c0,0,0-0.1,0-0.1c-0.1-0.3-0.1-0.6-0.2-0.9
		c-0.2-0.5-0.4-0.9-0.6-1.2c-0.1-0.1-0.2-0.2-0.3-0.3h0c0,0,0,0-0.1,0c-0.2,0-0.4,0-0.5,0c-0.2,0-0.5,0.1-0.6,0.1
		c0.1,0.1,0.1,0.2,0.2,0.2h-0.3H146v-0.2c0,0,0.1,0,0.1-0.1c0,0,0,0,0-0.1c0-0.1,0-0.2,0-0.2c0-0.1,0.2-0.3,0.4-0.4
		c0.1-0.1,0.2-0.2,0.4-0.3c0.2-0.1,0.4-0.1,0.6-0.1c0.1,0,0.2,0,0.4,0c0.7,0,1.6,0,2.6-0.6c0,0,0.4,0,0.4,0v0c0,0,0,0,0,0
		c0,0,0,0,0.1,0c0-0.1,0.1-0.1,0.1-0.2c0.1-0.3,0.2-0.7,0.3-1.1c0-0.3-0.2-0.5-0.2-0.8c0,0-0.3-0.1-0.3-0.1c0,0,0,0,0,0
		c0-0.2,0.2-0.4,0.2-0.5c0-0.4,0.1-0.6,0-0.9c0-0.1,0-0.2,0-0.4c-1.1-0.1-1.9-0.3-2.4-0.5c-0.3-0.1-0.5-0.1-0.6-0.2
		c-0.1-0.1-0.2-0.3-0.2-0.3h0c0-0.1,0-0.1,0-0.2c0.2-1,0.6-2.2,0.7-3.4c0.1-1.3,0.4-2.8,0.4-4.3v0c0,0,0,0,0,0c0,0,0,0,0,0
		c0-0.1,0-0.1,0-0.2c0-0.4-0.2-0.8-0.2-1.2c0-0.2-0.1-0.3-0.1-0.4c0-0.3-0.1-0.6-0.1-0.9c0-0.2,0-0.3,0-0.4c0-0.2,0-0.5,0-0.7
		c0-0.1,0-0.3,0-0.4c0-0.2,0-0.4-0.1-0.6c0,0,0-0.1,0-0.1c0,0,0,0,0,0c0-0.4-0.1-0.7-0.2-0.9c-0.1-0.4-0.3-0.8-0.5-1.3
		c-0.1-0.2-0.2-0.4-0.2-0.6c-0.2-0.4-0.4-0.8-0.6-1.3c-0.2-0.4-0.4-0.7-0.6-1.1c-0.2-0.4-0.5-0.8-0.8-1.2c-0.1-0.2-0.3-0.4-0.4-0.6
		c0,0,0,0.1,0,0.1c0,0,0,0.1,0,0.1c-0.1,0-0.2-0.1-0.4-0.2c-0.2-0.1-0.4-0.3-0.6-0.5c-0.2-0.2-0.5-0.4-0.9-0.7s-0.7-0.6-1.1-1
		c-0.1-0.1-0.3-0.2-0.5-0.4c-0.3-0.2-0.7-0.4-1.1-0.6c-0.6-0.2-1.3-0.4-2-0.5c-0.5-0.1-1.1-0.1-1.6-0.1c-1,0-1.8,0.1-2.6,0.4
		c-0.1,0-0.2,0-0.2,0.1c0,0,0,0,0,0c0,0.9,0,1.9,0.1,3c0.6-0.2,1.3-0.2,1.9-0.2c0.2,0,0.4,0.2,0.6,0.2c0,0,0,0,0,0
		c0.4,0,0.8,0,1.2,0c0.4,0,0.7,0,1.1,0.1c0,0,0,0,0.1,0c1.4,0.4,2.5,0.9,3.4,2c0.5,0.6,0.9,1.2,1.3,1.9c0.2,0.4,0.4,1,0.7,1.8
		c0.1,0.2,0.1,0.5,0.2,0.8c0,0,0,0,0,0c0,0,0,0,0,0c0,0.2,0.1,0.5,0.2,0.8c0.1,0.6,0.3,1.3,0.4,2c0,0.1,0.1,0.3,0.3,0.5l0,0
		c0,0,0,0,0,0.1c-0.1,0-0.1,0.1-0.2,0.2c-0.5,0.4-1,0.8-1.4,1.2c-0.5,0.4-1.1,0.7-1.7,0.9c-0.6,0.2-1.3,0.3-2,0.3
		c-1.5,0-2.8-0.3-3.9-1c-0.3-0.1-0.6-0.3-0.8-0.5c-0.3-0.2-0.5-0.4-0.7-0.6c0,0.5,0,1.1-0.1,1.8c0,0.6-0.1,1.3-0.1,2.1
		c0,0.8-0.1,1.7-0.2,2.7c0,0.4,0,0.8-0.1,1.3c0,1.5,0.1,3,0.4,4.4c0.3,1.4,0.7,2.9,1.2,4.3c1.1,2.8,2.7,5.5,4.9,8
		c0.4,0.5,1,1.1,1.5,1.7c0.1,0.1,0.2,0.2,0.3,0.3c2.3,2.3,4.4,4,6.5,5.1c0.7,0.4,1.4,0.7,2.1,1c0,0,0,0,0,0L151.2,91.5z"/>
	<path fill="#6D1212" d="M133.8,47.1c0,0,0.1,0,0.1,0c0.1,0,0.1,0,0.2-0.1c0.7-0.2,1.6-0.4,2.6-0.4c0.6,0,1.1,0,1.6,0.1
		c0.8,0.1,1.4,0.3,2,0.5c0.4,0.2,0.8,0.3,1.1,0.6c0.2,0.1,0.3,0.2,0.5,0.4c0.4,0.4,0.8,0.7,1.1,1s0.6,0.5,0.9,0.7
		c0.2,0.2,0.5,0.4,0.6,0.5c0.2,0.1,0.3,0.2,0.4,0.2c0,0,0-0.1,0-0.1c0,0,0-0.1,0-0.1c0,0,0,0,0-0.1c0.1-0.5,0.2-1,0.3-1.3
		c0-0.1,0-0.1,0-0.2c0,0,0-0.1,0-0.1v0c0-0.6-0.8-1.2-2.4-1.8c-0.5-0.2-1.2-0.4-1.9-0.6c-0.6-0.2-1.2-0.4-1.8-0.5
		c-1.7-0.4-3-0.6-4-0.7c0,0,0,0,0,0c0,0,0,0,0,0c-0.4,0-0.8,0.1-1.2,0.3c0,0,0,0,0,0c-0.1,0-0.1,0.1-0.2,0.1
		C133.8,45.9,133.8,46.4,133.8,47.1z"/>
	<path fill="#C9841D" d="M134,50.1C134,50.1,134,50.1,134,50.1C133.9,50.1,133.9,50.1,134,50.1C133.9,50.1,133.9,50.1,134,50.1
		c0,0.9,0,1.2,0,1.9h0v0.1c1-0.1,2-0.2,2-0.2v0c2,0,2.7,0.1,3.3,0.1h0c0.1,0,0.3,0.1,0.4,0.1c0.4,0.1,0.8,0.4,1.4,0.8
		c0.2,0.1,0.5,0.3,0.7,0.5c0.9,0.6,1.6,1.3,2.2,2.2c0.2,0.3,0.4,0.6,0.6,0.9c0,0,0,0,0,0c-0.1-0.3-0.1-0.5-0.2-0.8
		c-0.2-0.7-0.4-1.3-0.7-1.8c-0.4-0.7-0.8-1.4-1.3-1.9c-0.9-1.1-2.1-1.6-3.4-2c0,0,0,0-0.1,0c-0.3-0.1-0.7-0.1-1.1-0.1
		c-0.4,0-0.8,0-1.2,0c0,0,0,0,0,0c-0.2,0-0.4-0.2-0.6-0.2C135.4,49.9,134.7,49.9,134,50.1C134,50.2,134,50.1,134,50.1z"/>
	<path d="M136.9,53.1C136.9,53.1,136.9,53.1,136.9,53.1C136.9,53.1,137,53.1,136.9,53.1c1.5,0,2.7,0.4,3.9,1.1
		c0.3,0.2,0.6,0.4,0.9,0.6c0.8,0.7,1.6,1.5,2.4,2.6c0,0-0.2,0.1-0.1,0.2c0,0.1,0,0.1,0,0.2c0,0.1,0,0.1,0,0.2c0,0,0,0,0,0
		c1,0.3,0.7,0.8,1.1,1.4c-0.1-0.7-0.2-1.4-0.3-2c-0.1-0.3-0.1-0.6-0.2-0.8c-0.2-0.3-0.3-0.7-0.5-1c-0.6-0.9-1.4-1.6-2.2-2.2
		c-0.3-0.2-0.5-0.3-0.7-0.5c-0.6-0.4-1-0.6-1.4-0.8c-0.2-0.1-0.3-0.1-0.4-0.1h0c-0.5,0-1.3-0.1-3.3-0.1v0c0,0-1,0.1-2,0.2v-0.1h0
		h-0.1c0.1,0,0.1,0.1,0.1,0.1v0c-1,0-1,0.2-2,0.4c0,0.5,0,1.1,0,1.6c1-0.3,1.2-0.7,2.2-0.9C134.9,53.2,135.8,53.1,136.9,53.1z"/>
	<path fill="#5E7A30" d="M135.3,58.9c0.1,0.1,0.1,0.2,0.2,0.3c0.2,0.2,0.3,0.3,0.5,0.5c0.3,0.2,0.7,0.4,1,0.7
		c0.2,0.1,0.3,0.2,0.5,0.2c0.4,0.2,0.8,0.3,1.1,0.4c0.5,0.2,1,0.2,1.5,0.2c0,0,0,0,0,0c0.5,0,1,0,1.4-0.1c0.4-0.1,0.8-0.3,1.2-0.5
		s0.6-0.6,0.8-1c0.3-0.4,0.4-0.8,0.4-1.3c0-0.1,0-0.2,0-0.2c0-0.1,0-0.1,0-0.2c-0.1-0.1,0-0.2,0-0.2c-0.7-1-1.5-1.9-2.3-2.6
		c-0.3-0.2-0.5-0.5-0.8-0.7c-1.2-0.7-2.4-1.1-3.8-1.1c0,0,0,0-0.1,0c-1,0-1.8,0.1-2.5,0.2c0,0.8,0.2,1.8,0.4,2.8
		c0,0.3,0.2,0.6,0.2,1c0,0.3,0,0.6,0,0.9C135,58.4,135.1,58.6,135.3,58.9C135.3,58.8,135.3,58.9,135.3,58.9z M136.7,55
		c0.1-0.3,0.4-0.5,0.9-0.5c0,0,0.1,0.1,0.3,0.3c0.1,0,0.1-0.1,0.2-0.1c0,0,0.2,0.4,0.5,0.4c0.1,0,0.1,0,0.2,0c0.1,0,0.2,0,0.2,0v0
		c1.7,0.1,2.6,0.8,2.6,2c0,1.1-0.6,1.7-1.9,1.7c-0.5,0-0.8-0.1-1.1-0.2c-0.6-0.2-0.9-0.7-0.9-1.4c0-0.5,0.1-1,0.4-1.4
		c-0.1,0-0.1,0-0.2,0c0,0,0,0,0,0c-0.1,0.1-0.2,0.2-0.3,0.2C137,55.9,136.7,55.6,136.7,55C136.7,55,136.7,55,136.7,55
		C136.7,55,136.7,55,136.7,55z"/>
	<path fill="#FFFFFF" d="M136.3,61.6c1.1,0.6,2.4,1,3.9,1c0.7,0,1.4-0.1,2-0.3c0.6-0.2,1.2-0.5,1.7-0.9c0.4-0.3,0.9-0.7,1.4-1.2
		c0-0.3-0.2-0.5-0.3-0.8c0,0-0.1,0-0.1,0c-0.3-0.6-0.1-1-1.1-1.4c0,0,0,0,0,0c0,0.5-0.2,1-0.4,1.3c-0.3,0.4-0.5,0.7-0.8,1
		s-0.7,0.4-1.2,0.5c-0.4,0.1-0.9,0.1-1.4,0.1c0,0,0,0,0,0c-0.5,0-1,0-1.5-0.2c-0.4-0.1-0.7-0.2-1.1-0.4c-0.2-0.1-0.4-0.2-0.6-0.3
		c-0.3-0.2-0.6-0.4-0.9-0.6c-0.2-0.1-0.4-0.3-0.5-0.5c-0.1-0.1-0.2-0.2-0.2-0.3c0,0,0,0,0,0c-0.1-0.1-0.2-0.3-0.3-0.4c0,0,0,0,0,0
		c-0.1-0.1-0.1-0.2-0.2-0.3c0,0.6,0,1.5-0.1,2.3l0,0c0.2,0.2,0.4,0.4,0.7,0.7C135.7,61.3,136,61.5,136.3,61.6z"/>
	<path fill="#7B1515" d="M140.8,85c-2.2-2.6-3.8-5.2-4.9-8c-0.5-1.4-1-2.8-1.2-4.3c-0.3-1.4-0.4-2.9-0.4-4.4c0-0.4,0-0.8,0.1-1.3
		c0-0.9,0.1-1.8,0.2-2.7c-1.2,2-1.8,3.8-1.8,5.4c0,0.1,0.1,0.5,0.2,1.1c0,0.2,0.1,0.4,0.1,0.7c0.1,0.7,0.3,1.6,0.6,2.7
		c0.3,1.4,0.5,2.6,0.7,3.8c0.1,1.1,0.2,2.2,0.2,3.1c0,1.1,0,1.9-0.2,2.5c0,0.1,0,0.2-0.1,0.3c-0.2,0.4-0.5,0.8-0.9,1
		c-0.2,0.1-0.3,0.2-0.5,0.3c-0.3,0.1-0.6,0.2-1,0.3c-0.4,0.1-0.8,0.1-1.2,0.1c-0.8,0-1.5-0.1-2.3-0.4c-0.7-0.3-1.4-0.7-2.1-1.2
		c-1.1-1.1-1.8-1.6-2-1.6c-0.1,0-0.2,0-0.3,0c0.9,1.6,1.8,3.3,2.9,5.2c1.4,1.5,3.9,2.3,7.6,2.3c1.4,0,3-0.3,4.7-1
		c1.1-0.4,2.3-1.1,3.6-1.9c-0.1-0.1-0.2-0.2-0.3-0.3C141.8,86.1,141.2,85.5,140.8,85z"/>
	<path fill="#7B1515" d="M197.3,88.2c-0.4-0.1-0.7-0.2-1.1-0.3c-1-0.3-2-0.5-2.8-0.8c-0.6-0.2-1.1-0.4-1.5-0.5s-0.9-0.4-1.3-0.6
		c-0.2-0.1-0.5-0.2-0.7-0.3c-0.6-0.3-1-0.7-1.3-1c-0.9-1.1-1.4-3.7-1.4-7.9c0-0.4,0-0.7,0.1-1c0-0.7,0.1-1.3,0.1-1.8
		c0-0.6,0.1-1,0.1-1.5s0-0.8,0.1-1.2c0-0.2,0-0.3,0-0.5c-0.5,0.8-1,1.8-1.5,2.9s-1.1,2.3-1.7,3.6h0c-0.2,0.4-0.4,0.8-0.6,1.2
		c-0.8,1.6-1.7,3-2.8,4.2c-0.5,0.6-1.1,1.1-1.7,1.6c-0.3,0.2-0.6,0.5-0.9,0.7c-0.1,0-0.1,0-0.2,0.1c-0.1,0-0.1,0-0.2,0.1
		c-0.2,0.1-0.5,0.2-0.8,0.3c-0.3,0.1-0.6,0.2-0.9,0.3c0.9,0.5,2.3,1.4,4.1,2.5c0.8,0.4,1.7,0.8,2.6,1.2c0.3,0.1,0.6,0.2,1,0.4
		c3.1,1.2,6.1,1.8,8.8,1.8c4,0,7.7-0.8,11-2.4c-0.7-0.1-1.4-0.1-2.1-0.2C200,88.8,198.5,88.5,197.3,88.2z"/>
	<path fill="#D70F0F" d="M146.1,76.8C146.1,76.8,146.1,76.8,146.1,76.8C146.1,76.8,146.1,76.9,146.1,76.8l0,0.3h0.3
		C146.3,77.1,146.3,76.9,146.1,76.8C146.2,76.8,146.1,76.8,146.1,76.8C146.1,76.8,146.1,76.8,146.1,76.8z"/>
	<path fill="#D70F0F" d="M151,75.1L151,75.1c0,0-0.4,0-0.4,0c-1.1,0.6-1.9,0.6-2.6,0.6c-0.1,0-0.3,0-0.4,0c-0.2,0-0.5,0-0.6,0.1
		c-0.1,0-0.3,0.2-0.4,0.3c-0.2,0.1-0.3,0.3-0.4,0.4c0,0,0,0.2,0,0.2c0,0,0,0,0,0.1c0,0,0,0,0,0c0.2,0,0.5,0,0.7,0c0.2,0,0.3,0,0.5,0
		c0,0,0,0,0.1,0h0c0,0,0.1,0,0.1,0c0,0-0.1-0.1-0.1-0.1c0.3,0,0.6,0,1,0c2.5,0.1,6.1,0.4,10.9,0.4c0.2,0,0.7,0,0.7,0v0.1
		c0,0,0,0,0,0.1c0,0,0,0.1-0.1,0.2s0,0.1-0.1,0.1c-0.2,0.1-0.3,0.3-0.5,0.5c0,0,0,0,0,0c-0.3,0.3-0.5,0.6-0.8,0.8
		c-0.7,0.8-1.4,1.5-2,2.1c-1,1-2,1.7-2.8,2.2s-1.5,0.7-2,0.7c-0.3,0-0.6-0.1-0.9-0.2c-0.8-0.2-1.5-0.6-1.9-1.1
		c0.1,0.6,0.2,1.1,0.3,1.5c0.1,0.2,0.1,0.3,0.2,0.5c0.2,0.4,0.4,0.8,0.7,1c0.1,0.1,0.1,0.1,0.2,0.1c0.1,0,0.1,0.1,0.2,0.1
		c0.3,0.1,0.6,0.2,0.9,0.2c0,0,0,0,0,0h0c0,0,0,0,0,0c0.1,0,0.1,0.1,0.2,0.1c0.1,0,0.1,0,0.2,0c0.1,0,0.1,0,0.1,0v0
		c2-0.2,4.3-1.7,6.1-4.3c0.1-0.1,0.2-0.3,0.3-0.4c0.1-0.1,0.2-0.2,0.2-0.3c0.2-0.3,0.4-0.7,0.7-1.1c0.1-0.2,0.3-0.5,0.4-0.7
		c0.2-0.4,0.5-0.9,0.8-1.4c0.1-0.2,0.2-0.3,0.3-0.5l0,0c-0.2,0-0.4-0.1-0.6-0.2c-1-0.3-1.8-0.7-2.5-0.8c0,0,0-0.2,0-0.2c0,0,0,0,0,0
		c-1.7,0-3.1-0.9-4.3-1c-0.4,0-0.7,0-1,0c0,0,0,0,0,0C151.8,75.1,151.5,75.1,151,75.1C151,75.1,151,75.1,151,75.1
		C151,75.1,151,75.1,151,75.1z"/>
	<path fill="#FFFFFF" d="M148.4,78.3c0.1,0.3,0.2,0.5,0.2,0.9c0.4,0.4,1,0.7,1.7,0.9c0.7,0.2,1.5,0.3,2.4,0.3c0.3,0,0.9-0.1,1.7-0.4
		c0.8-0.2,1.8-0.6,3.1-1.1c0.3-0.1,0.6-0.3,0.9-0.4c0.3-0.1,0.6-0.3,0.9-0.4c0,0,0,0,0,0c0,0,0,0,0,0c0.1-0.2,0.3-0.4,0.5-0.5
		c0,0,0-0.1,0.1-0.1s0-0.1,0.1-0.2c0,0,0-0.1,0-0.1v-0.1c0,0-0.4,0-0.7,0c-4.8,0-8.4-0.3-10.9-0.4c-0.4,0-0.7,0-1,0
		c0,0,0.1,0.1,0.1,0.1c0.1,0.1,0.2,0.2,0.3,0.3C148,77.3,148.2,77.8,148.4,78.3z"/>
	<path d="M148.8,81.3c0,0.4,0,0.9,0.1,1.3l0,0c0.4,0.6,1,0.9,1.9,1.1c0.3,0.1,0.6,0.1,0.9,0.2c0.5,0,1.2-0.2,2-0.7s1.7-1.2,2.8-2.2
		c0.6-0.6,1.3-1.3,2-2.1c0.2-0.3,0.5-0.5,0.8-0.8c0,0,0,0,0,0c-0.3,0.1-0.6,0.2-0.9,0.4c-0.3,0.1-0.6,0.3-0.9,0.4
		c-1.3,0.5-2.3,0.8-3.1,1.1c-0.8,0.2-1.4,0.4-1.7,0.4c-0.9,0-1.7-0.1-2.4-0.3c-0.7-0.2-1.2-0.5-1.7-0.9c0,0,0,0,0,0.1c0,0,0,0,0,0.1
		c0,0,0,0,0,0c0,0,0,0.1,0,0.1c0,0,0,0,0,0c0,0,0,0,0,0.1C148.7,80,148.8,80.6,148.8,81.3z"/>
	<path fill="#FFFFFF" d="M189.1,70.1c0.6,0,1-0.1,1.5-0.4c0.1-0.1,0.3-0.2,0.4-0.3c0.5-0.4,0.7-1,0.7-1.7c0-0.2,0-0.4,0-0.5
		c0,0,0,0-0.1-0.1c0,0,0,0-0.1,0c-0.4-0.4-1-0.7-1.6-0.7c-0.6,0-1.2,0.2-1.7,0.7s-0.7,1-0.7,1.7c0,0.4,0.1,0.7,0.2,1
		c0.1,0.1,0.3,0.1,0.4,0.2h0C188.4,70,188.7,70.1,189.1,70.1z"/>
	<path fill="#D9D9D9" d="M189.9,71.1c0.6,0,1.2-0.2,1.7-0.7c0.4-0.4,0.7-1,0.7-1.7c0-0.6-0.2-1.1-0.6-1.6c0,0.1,0,0.3,0,0.5
		c0,0.7-0.2,1.3-0.7,1.7c-0.1,0.1-0.3,0.2-0.4,0.3c-0.4,0.3-0.9,0.4-1.5,0.4c-0.4,0-0.7-0.1-1-0.2c-0.1-0.1-0.3-0.1-0.4-0.2
		c0.1,0.1,0.1,0.3,0.2,0.4c0.1,0.1,0.1,0.2,0.2,0.2C188.6,70.8,189.2,71.1,189.9,71.1z"/>
	<path fill="#FFFFFF" d="M137.5,55.9c0.1,0,0.2-0.1,0.3-0.2c0,0,0,0,0,0c0.1-0.1,0.3-0.3,0.5-0.5c-0.2-0.2-0.3-0.3-0.4-0.4
		c-0.2-0.2-0.3-0.3-0.3-0.3c-0.4,0-0.7,0.1-0.9,0.5c0,0,0,0,0,0C136.7,55.6,137,55.9,137.5,55.9z"/>
	<path d="M138.3,55.8c-0.3,0.4-0.5,0.9-0.5,1.4c0,0.7,0.3,1.1,0.8,1.4c0.3,0.1,0.7,0.2,1.1,0.2c1.3,0,1.9-0.6,1.9-1.7
		c0-1.2-0.9-1.9-2.6-2v0.2C138,55.4,138.4,55.6,138.3,55.8z"/>
	<path d="M139,55.1c0,0-0.1,0-0.2,0C138.9,55.1,138.9,55.1,139,55.1L139,55.1z"/>
	<path fill="#FFFFFF" d="M174.4,56.5l-0.3,0.8c0,0.1,0,0.3,0,0.5c0.1,0.1,0.3,0.2,0.5,0.2c0,0,0,0,0.1,0c0,0,0,0,0.1,0
		c0.5,0,0.8-0.3,0.8-0.9c0,0,0,0,0,0C175.6,56.7,175.2,56.5,174.4,56.5z"/>
	<path d="M174,57.3c-0.1-0.7-0.5-1.2-1.1-1.2c-0.1,0-0.3,0-0.5,0h-0.2c-1.9,1-2.9,1.8-2.9,2.7c0,1.3,0.8,2.2,2.6,2.2
		c1.4,0,2.1-0.9,2.1-2.8c0-0.1,0-0.2,0-0.3c0-0.1,0-0.2,0-0.4L174,57.3z"/>
	<path fill="#BA7A1B" d="M70.5,77.6l2.5,3.1l2.3,2.8l1,1.2v0l1.7,2l2.3,2.9l1.7,2.1l0,0l13.8,17l1.1,1.4l3.1-3.5L86.9,91.2l-6.5-7.5
		c-1.1-0.5-2.1-1.1-3-1.8c-0.4-0.3-0.7-0.5-1-0.8c-0.4-0.4-0.8-0.8-1.1-1.2c-0.2-0.3-0.4-0.5-0.6-0.8c-0.4-0.8-0.5-1.5-0.2-2.3
		c0,0,0,0,0,0L15.3,8.1l-0.6,0.7l52,64l0.4,0.5l2.9,3.6L70.5,77.6z"/>
	<path fill="#F1CC96" d="M74.7,79.1c0.1,0.3,0.3,0.5,0.6,0.8c0.3,0.4,0.7,0.8,1.1,1.2c0.2,0.2,0.6,0.5,1,0.8c0.9,0.7,1.9,1.3,3,1.8
		l6.5,7.5c-0.5-4.8-0.8-7.9-0.8-9.2c-0.9-0.1-1.8-0.3-2.7-0.6c0,0,0,0-0.1,0c0,0,0,0,0,0c-1-0.3-1.9-0.7-2.9-1.2
		c-0.5-0.3-1.3-0.7-1.8-1.1c-0.4-0.3-0.6-0.6-1.4-0.7l-0.1,0.6c-0.1,0-0.2,0-0.2,0l0,0c-0.2,0-0.2,0-0.4-0.1c-0.1,0-0.2-0.1-0.4-0.2
		c-0.1,0-0.1-0.1-0.2-0.1c0,0-0.1,0-0.1,0c-0.1-0.1-0.2-0.1-0.3-0.2c-0.2-0.2-0.3-0.5-0.3-0.8l0,0l0.2-0.9c0,0,0.1,0.1,0.1,0.1
		l0-0.1l0,0h0l-0.8-0.2c-0.1,0.2-0.2,0.3-0.2,0.5c0,0,0,0,0,0C74.2,77.6,74.3,78.3,74.7,79.1z"/>
	<polygon fill="#DD3422" points="75.5,76.5 75.5,76.5 75.5,76.5 	"/>
	<path fill="#DD3422" d="M75.2,77.5L75.2,77.5c0.1,0.4,0.2,0.6,0.3,0.8c0.1,0.1,0.2,0.2,0.3,0.2c0,0,0.1,0,0.1,0
		c0.1,0,0.2,0.1,0.2,0.1c0.1,0.1,0.3,0.1,0.4,0.2c0.1,0,0.2,0,0.3,0c0.1,0,0.2,0,0.2,0l0.1-0.7l0-0.1H77h0v0.1
		c0-0.2-0.2-0.4-0.4-0.5c-0.4-0.4-0.7-0.7-1.1-1c0,0-0.1-0.1-0.1-0.1L75.2,77.5z"/>
	<path fill="#C18702" d="M170.2,107.4c-1.3-1.7-2.2-3.5-2.9-5.2c-0.1-0.3-0.2-0.6-0.3-0.9c0-0.1-0.1-0.2-0.2-0.3
		c-0.5,0.5-0.5,1.2-0.2,2.1c0.4,1.1,1.1,2.2,2,3.2c0.3,0.4,0.6,0.7,0.9,1.1c0.1,0,0.3,0,0.4,0C170.1,107.3,170.1,107.4,170.2,107.4z
		"/>
	<path fill="#C18702" d="M179.5,98.6c0,0-0.1,0-0.2,0c-0.1,0-0.1,0-0.2,0c0,0,0,0,0,0c0,0-0.1,0-0.1,0.1c0,0.1-0.1,0.2-0.1,0.3v0
		c0,0.9-0.2,1.8-0.7,2.6c-0.5,0.7-1.3,1.4-2.5,2c-1.2,0.5-2.9,1.8-5.2,3.7c0.2,0,0.4,0.1,0.5,0.2c0,0,0,0,0-0.1
		c1.1-1.1,2.4-2,3.8-2.6c1.4-0.7,2.6-1.7,3.7-2.9c0.5-0.6,0.9-1.3,1.1-2.1c0.1-0.2,0.1-0.4,0-0.6c0,0,0,0,0,0
		C179.7,99,179.6,98.8,179.5,98.6z"/>
	<path fill="#97D8E8" d="M171.4,109c-0.1,0.4-0.3,0.8-0.6,1.1c-0.1,0.1-0.2,0.2-0.3,0.3c-0.4,0.2-0.8,0.4-1.3,0.4
		c-0.5,0-1-0.1-1.3-0.4c0.1,0.3,0.2,0.5,0.5,0.8c0.4,0.4,0.9,0.6,1.6,0.6c0.6,0,1.1-0.2,1.6-0.6c0.4-0.4,0.6-0.9,0.6-1.6
		c0-0.6-0.2-1.1-0.6-1.6c0,0-0.1-0.1-0.2-0.2c0,0.2,0.1,0.5,0.1,0.8C171.5,108.7,171.5,108.9,171.4,109z"/>
	<path fill="#FFFFFF" d="M170.2,107.4c-0.1,0-0.1,0-0.2,0c-0.1,0-0.3,0-0.4,0c-0.5,0.1-0.8,0.3-1.2,0.6c-0.4,0.4-0.6,0.9-0.6,1.6
		c0,0.3,0,0.5,0.1,0.8c0.3,0.3,0.8,0.4,1.3,0.4c0.5,0,0.9-0.1,1.3-0.4c0.1-0.1,0.2-0.2,0.3-0.3c0.3-0.3,0.5-0.7,0.6-1.1
		c0-0.1,0-0.3,0-0.5c0-0.3,0-0.5-0.1-0.8v0c-0.1-0.1-0.3-0.2-0.4-0.2c-0.2-0.1-0.4-0.1-0.5-0.2C170.3,107.4,170.3,107.4,170.2,107.4
		z"/>
	<path fill="#F1CC96" d="M190.8,222.3c0-0.1,0.2-0.3,0.3-0.4c0.9-1.7,2-3.6,3.2-5.8c0.7-1.5,1.3-3.1,1.9-4.6
		c0.1-0.2,0.2-0.4,0.3-0.7c0.6-1.4,1.2-2.9,1.7-4.3c0.3-0.7,0.5-1.4,0.8-2c0.2-0.7,0.5-1.4,0.7-2c0.1-0.3,0.2-0.6,0.3-0.9
		c0.1-0.3,0.2-0.6,0.3-0.9c0.5-1.5,1-2.9,1.4-4.4c0.5-1.8,1.1-3.6,1.6-5.4c0.3-1.3,0.5-2.6,0.7-3.9c0,0,0,0,0-0.1c0-0.3,0-0.7,0.1-1
		c0-0.3,0-0.7,0-1c-0.1-1.2-0.2-2.4-0.2-3.6c0-1.3,0-2.5,0-3.8c0-1.3,0-2.5,0-3.8c0-1.3-0.1-2.7-0.2-4c-0.1-1.2-0.2-2.4-0.3-3.7
		c-0.1-1.1-0.3-2.2-0.4-3.3c-0.1-1.8-0.4-3.6-0.6-5.4c-0.1-0.6,0-1.2,0-1.8c0-0.2,0-0.4,0-0.6c-0.1-0.4-0.2-0.8-0.5-1.2l-7,1.4
		c0,0,0,0.1,0,0.1c0.6,8.3,1.2,15.7,1.8,22.4c0.2,2.9,0.4,5.3,0.6,7.1c0,0.9,0,1.8,0,2.4c0,2.6-0.4,5.3-1.2,8.1
		c-0.2,0.8-0.4,1.5-0.7,2.3c-0.5,1.4-1.4,3.7-2.8,6.8c0,0,0,0,0,0c-0.5,1-0.9,2.1-1.5,3.3c-0.1,0.3-0.2,0.6-0.4,0.9
		c-0.1,0.5-0.3,1-0.5,1.5c-0.1,0.2-0.1,0.4-0.2,0.6c-0.8,3.1-2.3,7.9-4.3,14.6v0.3c0,0,0,0.1,0,0.2c0,0.1,0,0.1,0,0.1
		c0,1.1-0.4,4.5-0.8,10.5H185c0,0,0,0.2,0,0.2c0,1.5,0.4,3.1,0.7,4.7c0.1,0.6,0.4,1.3,0.5,2c0.1,0.2,0.4,1.1,0.6,2.4
		c0.2,1.3,0.6,2.7,0.9,2.7h0.6c-0.6-3-0.9-5.5-1-6.8c0.4,0.9,1.5,2.8,3.1,6.8h1.6v-0.7c-1-2.2-2-4.5-3-6.9v-1.3
		c0,0.2,0.7,1.8,1.8,4.4c1,2.6,1.5,3.5,1.6,4.5h0.8c0.1-1,0.1-0.9,0.1-1.7c-0.9-5-1.4-7.7-1.4-7.8v-0.7c1,0.4,1.7,2.3,2.8,5.4
		l0.4-0.1L190.8,222.3z"/>
	<path fill="#EAB462" d="M205,153l-3,0.5c0,0,0,0,0,0c0,0,0,0.1,0.1,0.1c0,0,0,0,0,0c0.3,0.4,0.4,0.8,0.5,1.2c0,0.2,0,0.4,0,0.6
		c0,0.6-0.1,1.2,0,1.8c0.2,1.8,0.5,3.6,0.6,5.4c0.1,1.1,0.3,2.2,0.4,3.3c0.1,1.2,0.2,2.4,0.3,3.7c0.1,1.3,0.2,2.7,0.2,4
		c0,1.2,0,2.5,0,3.8c0,1.3,0,2.5,0,3.8c0,1.1,0.1,2.3,0.2,3.6c0,0.3,0,0.7,0,1c0,0.3,0,0.7-0.1,1c0,0,0,0,0,0.1
		c-0.1,1.3-0.3,2.6-0.7,3.9c-0.5,1.8-1,3.6-1.6,5.4c-0.5,1.5-0.9,2.9-1.4,4.4c-0.1,0.3-0.2,0.6-0.3,0.9c-0.1,0.3-0.2,0.6-0.3,0.9
		c-0.2,0.7-0.5,1.4-0.7,2c-0.2,0.7-0.5,1.4-0.8,2c-0.5,1.4-1.1,2.9-1.7,4.3c-0.1,0.2-0.2,0.4-0.3,0.7c-0.6,1.6-1.2,3.1-1.9,4.6
		c0.8-1.3,1.5-2.6,2.2-3.9c0.1-0.1,0.2-0.3,0.2-0.4c0.6-1.1,1.3-2.3,1.9-3.6c0.6-1.3,1.3-2.6,1.8-3.9c0,0,0-0.1,0.1-0.1
		c0.7-1.4,1.3-2.9,2-4.4c0.5-1.1,1-2.2,1.5-3.4c0.7-1.7,1.4-3.4,2-5.1c0.4-1.2,0.8-2.4,1.1-3.7c0.1-0.6,0.1-1.2,0.1-1.8
		c-0.1-1.3-0.2-2.8-0.2-4.2c0-1.2-0.1-2.5-0.2-3.8c-0.1-1.5-0.2-3-0.3-4.5c-0.1-1.8-0.3-3.6-0.4-5.3c0-1-0.1-2-0.2-3
		c0-1-0.1-2-0.2-3.1c-0.1-1.1-0.2-2.2-0.2-3.3c-0.1-1.8-0.3-3.5-0.4-5.2C205,153.1,205,153.1,205,153C205,153,205,153,205,153z"/>
</g>
</svg>
